G04 #@! TF.GenerationSoftware,KiCad,Pcbnew,6.0.11-2627ca5db0~126~ubuntu22.04.1*
G04 #@! TF.CreationDate,2023-04-06T22:24:34+02:00*
G04 #@! TF.ProjectId,panel,70616e65-6c2e-46b6-9963-61645f706362,rev?*
G04 #@! TF.SameCoordinates,Original*
G04 #@! TF.FileFunction,Legend,Bot*
G04 #@! TF.FilePolarity,Positive*
%FSLAX46Y46*%
G04 Gerber Fmt 4.6, Leading zero omitted, Abs format (unit mm)*
G04 Created by KiCad (PCBNEW 6.0.11-2627ca5db0~126~ubuntu22.04.1) date 2023-04-06 22:24:34*
%MOMM*%
%LPD*%
G01*
G04 APERTURE LIST*
%ADD10C,0.130000*%
%ADD11C,0.150000*%
%ADD12C,0.120000*%
G04 APERTURE END LIST*
D10*
X48672857Y-16559523D02*
X48672857Y-16826190D01*
X49091904Y-16940476D02*
X49091904Y-16559523D01*
X48291904Y-16559523D01*
X48291904Y-16940476D01*
X49091904Y-17283333D02*
X48291904Y-17283333D01*
X49091904Y-17740476D01*
X48291904Y-17740476D01*
X15072857Y-16559523D02*
X15072857Y-16826190D01*
X15491904Y-16940476D02*
X15491904Y-16559523D01*
X14691904Y-16559523D01*
X14691904Y-16940476D01*
X15491904Y-17283333D02*
X14691904Y-17283333D01*
X15491904Y-17740476D01*
X14691904Y-17740476D01*
X31872857Y-16559523D02*
X31872857Y-16826190D01*
X32291904Y-16940476D02*
X32291904Y-16559523D01*
X31491904Y-16559523D01*
X31491904Y-16940476D01*
X32291904Y-17283333D02*
X31491904Y-17283333D01*
X32291904Y-17740476D01*
X31491904Y-17740476D01*
X65472857Y-16559523D02*
X65472857Y-16826190D01*
X65891904Y-16940476D02*
X65891904Y-16559523D01*
X65091904Y-16559523D01*
X65091904Y-16940476D01*
X65891904Y-17283333D02*
X65091904Y-17283333D01*
X65891904Y-17740476D01*
X65091904Y-17740476D01*
X82272857Y-16559523D02*
X82272857Y-16826190D01*
X82691904Y-16940476D02*
X82691904Y-16559523D01*
X81891904Y-16559523D01*
X81891904Y-16940476D01*
X82691904Y-17283333D02*
X81891904Y-17283333D01*
X82691904Y-17740476D01*
X81891904Y-17740476D01*
X99072857Y-16559523D02*
X99072857Y-16826190D01*
X99491904Y-16940476D02*
X99491904Y-16559523D01*
X98691904Y-16559523D01*
X98691904Y-16940476D01*
X99491904Y-17283333D02*
X98691904Y-17283333D01*
X99491904Y-17740476D01*
X98691904Y-17740476D01*
X15072857Y-47559523D02*
X15072857Y-47826190D01*
X15491904Y-47940476D02*
X15491904Y-47559523D01*
X14691904Y-47559523D01*
X14691904Y-47940476D01*
X15491904Y-48283333D02*
X14691904Y-48283333D01*
X15491904Y-48740476D01*
X14691904Y-48740476D01*
X31872857Y-47559523D02*
X31872857Y-47826190D01*
X32291904Y-47940476D02*
X32291904Y-47559523D01*
X31491904Y-47559523D01*
X31491904Y-47940476D01*
X32291904Y-48283333D02*
X31491904Y-48283333D01*
X32291904Y-48740476D01*
X31491904Y-48740476D01*
X48672857Y-47559523D02*
X48672857Y-47826190D01*
X49091904Y-47940476D02*
X49091904Y-47559523D01*
X48291904Y-47559523D01*
X48291904Y-47940476D01*
X49091904Y-48283333D02*
X48291904Y-48283333D01*
X49091904Y-48740476D01*
X48291904Y-48740476D01*
X65472857Y-47559523D02*
X65472857Y-47826190D01*
X65891904Y-47940476D02*
X65891904Y-47559523D01*
X65091904Y-47559523D01*
X65091904Y-47940476D01*
X65891904Y-48283333D02*
X65091904Y-48283333D01*
X65891904Y-48740476D01*
X65091904Y-48740476D01*
X82272857Y-47559523D02*
X82272857Y-47826190D01*
X82691904Y-47940476D02*
X82691904Y-47559523D01*
X81891904Y-47559523D01*
X81891904Y-47940476D01*
X82691904Y-48283333D02*
X81891904Y-48283333D01*
X82691904Y-48740476D01*
X81891904Y-48740476D01*
X99072857Y-47559523D02*
X99072857Y-47826190D01*
X99491904Y-47940476D02*
X99491904Y-47559523D01*
X98691904Y-47559523D01*
X98691904Y-47940476D01*
X99491904Y-48283333D02*
X98691904Y-48283333D01*
X99491904Y-48740476D01*
X98691904Y-48740476D01*
X15072857Y-78559523D02*
X15072857Y-78826190D01*
X15491904Y-78940476D02*
X15491904Y-78559523D01*
X14691904Y-78559523D01*
X14691904Y-78940476D01*
X15491904Y-79283333D02*
X14691904Y-79283333D01*
X15491904Y-79740476D01*
X14691904Y-79740476D01*
X31872857Y-78559523D02*
X31872857Y-78826190D01*
X32291904Y-78940476D02*
X32291904Y-78559523D01*
X31491904Y-78559523D01*
X31491904Y-78940476D01*
X32291904Y-79283333D02*
X31491904Y-79283333D01*
X32291904Y-79740476D01*
X31491904Y-79740476D01*
X48672857Y-78559523D02*
X48672857Y-78826190D01*
X49091904Y-78940476D02*
X49091904Y-78559523D01*
X48291904Y-78559523D01*
X48291904Y-78940476D01*
X49091904Y-79283333D02*
X48291904Y-79283333D01*
X49091904Y-79740476D01*
X48291904Y-79740476D01*
X65472857Y-78559523D02*
X65472857Y-78826190D01*
X65891904Y-78940476D02*
X65891904Y-78559523D01*
X65091904Y-78559523D01*
X65091904Y-78940476D01*
X65891904Y-79283333D02*
X65091904Y-79283333D01*
X65891904Y-79740476D01*
X65091904Y-79740476D01*
X82272857Y-78559523D02*
X82272857Y-78826190D01*
X82691904Y-78940476D02*
X82691904Y-78559523D01*
X81891904Y-78559523D01*
X81891904Y-78940476D01*
X82691904Y-79283333D02*
X81891904Y-79283333D01*
X82691904Y-79740476D01*
X81891904Y-79740476D01*
X99072857Y-78559523D02*
X99072857Y-78826190D01*
X99491904Y-78940476D02*
X99491904Y-78559523D01*
X98691904Y-78559523D01*
X98691904Y-78940476D01*
X99491904Y-79283333D02*
X98691904Y-79283333D01*
X99491904Y-79740476D01*
X98691904Y-79740476D01*
D11*
G04 #@! TO.C,R9*
X78656666Y-53962380D02*
X78990000Y-53486190D01*
X79228095Y-53962380D02*
X79228095Y-52962380D01*
X78847142Y-52962380D01*
X78751904Y-53010000D01*
X78704285Y-53057619D01*
X78656666Y-53152857D01*
X78656666Y-53295714D01*
X78704285Y-53390952D01*
X78751904Y-53438571D01*
X78847142Y-53486190D01*
X79228095Y-53486190D01*
X78180476Y-53962380D02*
X77990000Y-53962380D01*
X77894761Y-53914761D01*
X77847142Y-53867142D01*
X77751904Y-53724285D01*
X77704285Y-53533809D01*
X77704285Y-53152857D01*
X77751904Y-53057619D01*
X77799523Y-53010000D01*
X77894761Y-52962380D01*
X78085238Y-52962380D01*
X78180476Y-53010000D01*
X78228095Y-53057619D01*
X78275714Y-53152857D01*
X78275714Y-53390952D01*
X78228095Y-53486190D01*
X78180476Y-53533809D01*
X78085238Y-53581428D01*
X77894761Y-53581428D01*
X77799523Y-53533809D01*
X77751904Y-53486190D01*
X77704285Y-53390952D01*
X95456666Y-53962380D02*
X95790000Y-53486190D01*
X96028095Y-53962380D02*
X96028095Y-52962380D01*
X95647142Y-52962380D01*
X95551904Y-53010000D01*
X95504285Y-53057619D01*
X95456666Y-53152857D01*
X95456666Y-53295714D01*
X95504285Y-53390952D01*
X95551904Y-53438571D01*
X95647142Y-53486190D01*
X96028095Y-53486190D01*
X94980476Y-53962380D02*
X94790000Y-53962380D01*
X94694761Y-53914761D01*
X94647142Y-53867142D01*
X94551904Y-53724285D01*
X94504285Y-53533809D01*
X94504285Y-53152857D01*
X94551904Y-53057619D01*
X94599523Y-53010000D01*
X94694761Y-52962380D01*
X94885238Y-52962380D01*
X94980476Y-53010000D01*
X95028095Y-53057619D01*
X95075714Y-53152857D01*
X95075714Y-53390952D01*
X95028095Y-53486190D01*
X94980476Y-53533809D01*
X94885238Y-53581428D01*
X94694761Y-53581428D01*
X94599523Y-53533809D01*
X94551904Y-53486190D01*
X94504285Y-53390952D01*
X78656666Y-22962380D02*
X78990000Y-22486190D01*
X79228095Y-22962380D02*
X79228095Y-21962380D01*
X78847142Y-21962380D01*
X78751904Y-22010000D01*
X78704285Y-22057619D01*
X78656666Y-22152857D01*
X78656666Y-22295714D01*
X78704285Y-22390952D01*
X78751904Y-22438571D01*
X78847142Y-22486190D01*
X79228095Y-22486190D01*
X78180476Y-22962380D02*
X77990000Y-22962380D01*
X77894761Y-22914761D01*
X77847142Y-22867142D01*
X77751904Y-22724285D01*
X77704285Y-22533809D01*
X77704285Y-22152857D01*
X77751904Y-22057619D01*
X77799523Y-22010000D01*
X77894761Y-21962380D01*
X78085238Y-21962380D01*
X78180476Y-22010000D01*
X78228095Y-22057619D01*
X78275714Y-22152857D01*
X78275714Y-22390952D01*
X78228095Y-22486190D01*
X78180476Y-22533809D01*
X78085238Y-22581428D01*
X77894761Y-22581428D01*
X77799523Y-22533809D01*
X77751904Y-22486190D01*
X77704285Y-22390952D01*
X45056666Y-84962380D02*
X45390000Y-84486190D01*
X45628095Y-84962380D02*
X45628095Y-83962380D01*
X45247142Y-83962380D01*
X45151904Y-84010000D01*
X45104285Y-84057619D01*
X45056666Y-84152857D01*
X45056666Y-84295714D01*
X45104285Y-84390952D01*
X45151904Y-84438571D01*
X45247142Y-84486190D01*
X45628095Y-84486190D01*
X44580476Y-84962380D02*
X44390000Y-84962380D01*
X44294761Y-84914761D01*
X44247142Y-84867142D01*
X44151904Y-84724285D01*
X44104285Y-84533809D01*
X44104285Y-84152857D01*
X44151904Y-84057619D01*
X44199523Y-84010000D01*
X44294761Y-83962380D01*
X44485238Y-83962380D01*
X44580476Y-84010000D01*
X44628095Y-84057619D01*
X44675714Y-84152857D01*
X44675714Y-84390952D01*
X44628095Y-84486190D01*
X44580476Y-84533809D01*
X44485238Y-84581428D01*
X44294761Y-84581428D01*
X44199523Y-84533809D01*
X44151904Y-84486190D01*
X44104285Y-84390952D01*
G04 #@! TO.C,U2*
X59061904Y-30987380D02*
X59061904Y-31796904D01*
X59014285Y-31892142D01*
X58966666Y-31939761D01*
X58871428Y-31987380D01*
X58680952Y-31987380D01*
X58585714Y-31939761D01*
X58538095Y-31892142D01*
X58490476Y-31796904D01*
X58490476Y-30987380D01*
X58061904Y-31082619D02*
X58014285Y-31035000D01*
X57919047Y-30987380D01*
X57680952Y-30987380D01*
X57585714Y-31035000D01*
X57538095Y-31082619D01*
X57490476Y-31177857D01*
X57490476Y-31273095D01*
X57538095Y-31415952D01*
X58109523Y-31987380D01*
X57490476Y-31987380D01*
G04 #@! TO.C,R8*
X13386666Y-20622380D02*
X13720000Y-20146190D01*
X13958095Y-20622380D02*
X13958095Y-19622380D01*
X13577142Y-19622380D01*
X13481904Y-19670000D01*
X13434285Y-19717619D01*
X13386666Y-19812857D01*
X13386666Y-19955714D01*
X13434285Y-20050952D01*
X13481904Y-20098571D01*
X13577142Y-20146190D01*
X13958095Y-20146190D01*
X12815238Y-20050952D02*
X12910476Y-20003333D01*
X12958095Y-19955714D01*
X13005714Y-19860476D01*
X13005714Y-19812857D01*
X12958095Y-19717619D01*
X12910476Y-19670000D01*
X12815238Y-19622380D01*
X12624761Y-19622380D01*
X12529523Y-19670000D01*
X12481904Y-19717619D01*
X12434285Y-19812857D01*
X12434285Y-19860476D01*
X12481904Y-19955714D01*
X12529523Y-20003333D01*
X12624761Y-20050952D01*
X12815238Y-20050952D01*
X12910476Y-20098571D01*
X12958095Y-20146190D01*
X13005714Y-20241428D01*
X13005714Y-20431904D01*
X12958095Y-20527142D01*
X12910476Y-20574761D01*
X12815238Y-20622380D01*
X12624761Y-20622380D01*
X12529523Y-20574761D01*
X12481904Y-20527142D01*
X12434285Y-20431904D01*
X12434285Y-20241428D01*
X12481904Y-20146190D01*
X12529523Y-20098571D01*
X12624761Y-20050952D01*
G04 #@! TO.C,U2*
X92661904Y12620D02*
X92661904Y-796904D01*
X92614285Y-892142D01*
X92566666Y-939761D01*
X92471428Y-987380D01*
X92280952Y-987380D01*
X92185714Y-939761D01*
X92138095Y-892142D01*
X92090476Y-796904D01*
X92090476Y12620D01*
X91661904Y-82619D02*
X91614285Y-35000D01*
X91519047Y12620D01*
X91280952Y12620D01*
X91185714Y-35000D01*
X91138095Y-82619D01*
X91090476Y-177857D01*
X91090476Y-273095D01*
X91138095Y-415952D01*
X91709523Y-987380D01*
X91090476Y-987380D01*
G04 #@! TO.C,R9*
X11456666Y-22962380D02*
X11790000Y-22486190D01*
X12028095Y-22962380D02*
X12028095Y-21962380D01*
X11647142Y-21962380D01*
X11551904Y-22010000D01*
X11504285Y-22057619D01*
X11456666Y-22152857D01*
X11456666Y-22295714D01*
X11504285Y-22390952D01*
X11551904Y-22438571D01*
X11647142Y-22486190D01*
X12028095Y-22486190D01*
X10980476Y-22962380D02*
X10790000Y-22962380D01*
X10694761Y-22914761D01*
X10647142Y-22867142D01*
X10551904Y-22724285D01*
X10504285Y-22533809D01*
X10504285Y-22152857D01*
X10551904Y-22057619D01*
X10599523Y-22010000D01*
X10694761Y-21962380D01*
X10885238Y-21962380D01*
X10980476Y-22010000D01*
X11028095Y-22057619D01*
X11075714Y-22152857D01*
X11075714Y-22390952D01*
X11028095Y-22486190D01*
X10980476Y-22533809D01*
X10885238Y-22581428D01*
X10694761Y-22581428D01*
X10599523Y-22533809D01*
X10551904Y-22486190D01*
X10504285Y-22390952D01*
G04 #@! TO.C,U2*
X92661904Y-30987380D02*
X92661904Y-31796904D01*
X92614285Y-31892142D01*
X92566666Y-31939761D01*
X92471428Y-31987380D01*
X92280952Y-31987380D01*
X92185714Y-31939761D01*
X92138095Y-31892142D01*
X92090476Y-31796904D01*
X92090476Y-30987380D01*
X91661904Y-31082619D02*
X91614285Y-31035000D01*
X91519047Y-30987380D01*
X91280952Y-30987380D01*
X91185714Y-31035000D01*
X91138095Y-31082619D01*
X91090476Y-31177857D01*
X91090476Y-31273095D01*
X91138095Y-31415952D01*
X91709523Y-31987380D01*
X91090476Y-31987380D01*
X25461904Y12620D02*
X25461904Y-796904D01*
X25414285Y-892142D01*
X25366666Y-939761D01*
X25271428Y-987380D01*
X25080952Y-987380D01*
X24985714Y-939761D01*
X24938095Y-892142D01*
X24890476Y-796904D01*
X24890476Y12620D01*
X24461904Y-82619D02*
X24414285Y-35000D01*
X24319047Y12620D01*
X24080952Y12620D01*
X23985714Y-35000D01*
X23938095Y-82619D01*
X23890476Y-177857D01*
X23890476Y-273095D01*
X23938095Y-415952D01*
X24509523Y-987380D01*
X23890476Y-987380D01*
G04 #@! TO.C,R9*
X95456666Y-84962380D02*
X95790000Y-84486190D01*
X96028095Y-84962380D02*
X96028095Y-83962380D01*
X95647142Y-83962380D01*
X95551904Y-84010000D01*
X95504285Y-84057619D01*
X95456666Y-84152857D01*
X95456666Y-84295714D01*
X95504285Y-84390952D01*
X95551904Y-84438571D01*
X95647142Y-84486190D01*
X96028095Y-84486190D01*
X94980476Y-84962380D02*
X94790000Y-84962380D01*
X94694761Y-84914761D01*
X94647142Y-84867142D01*
X94551904Y-84724285D01*
X94504285Y-84533809D01*
X94504285Y-84152857D01*
X94551904Y-84057619D01*
X94599523Y-84010000D01*
X94694761Y-83962380D01*
X94885238Y-83962380D01*
X94980476Y-84010000D01*
X95028095Y-84057619D01*
X95075714Y-84152857D01*
X95075714Y-84390952D01*
X95028095Y-84486190D01*
X94980476Y-84533809D01*
X94885238Y-84581428D01*
X94694761Y-84581428D01*
X94599523Y-84533809D01*
X94551904Y-84486190D01*
X94504285Y-84390952D01*
G04 #@! TO.C,R8*
X30186666Y-20622380D02*
X30520000Y-20146190D01*
X30758095Y-20622380D02*
X30758095Y-19622380D01*
X30377142Y-19622380D01*
X30281904Y-19670000D01*
X30234285Y-19717619D01*
X30186666Y-19812857D01*
X30186666Y-19955714D01*
X30234285Y-20050952D01*
X30281904Y-20098571D01*
X30377142Y-20146190D01*
X30758095Y-20146190D01*
X29615238Y-20050952D02*
X29710476Y-20003333D01*
X29758095Y-19955714D01*
X29805714Y-19860476D01*
X29805714Y-19812857D01*
X29758095Y-19717619D01*
X29710476Y-19670000D01*
X29615238Y-19622380D01*
X29424761Y-19622380D01*
X29329523Y-19670000D01*
X29281904Y-19717619D01*
X29234285Y-19812857D01*
X29234285Y-19860476D01*
X29281904Y-19955714D01*
X29329523Y-20003333D01*
X29424761Y-20050952D01*
X29615238Y-20050952D01*
X29710476Y-20098571D01*
X29758095Y-20146190D01*
X29805714Y-20241428D01*
X29805714Y-20431904D01*
X29758095Y-20527142D01*
X29710476Y-20574761D01*
X29615238Y-20622380D01*
X29424761Y-20622380D01*
X29329523Y-20574761D01*
X29281904Y-20527142D01*
X29234285Y-20431904D01*
X29234285Y-20241428D01*
X29281904Y-20146190D01*
X29329523Y-20098571D01*
X29424761Y-20050952D01*
G04 #@! TO.C,R9*
X28256666Y-84962380D02*
X28590000Y-84486190D01*
X28828095Y-84962380D02*
X28828095Y-83962380D01*
X28447142Y-83962380D01*
X28351904Y-84010000D01*
X28304285Y-84057619D01*
X28256666Y-84152857D01*
X28256666Y-84295714D01*
X28304285Y-84390952D01*
X28351904Y-84438571D01*
X28447142Y-84486190D01*
X28828095Y-84486190D01*
X27780476Y-84962380D02*
X27590000Y-84962380D01*
X27494761Y-84914761D01*
X27447142Y-84867142D01*
X27351904Y-84724285D01*
X27304285Y-84533809D01*
X27304285Y-84152857D01*
X27351904Y-84057619D01*
X27399523Y-84010000D01*
X27494761Y-83962380D01*
X27685238Y-83962380D01*
X27780476Y-84010000D01*
X27828095Y-84057619D01*
X27875714Y-84152857D01*
X27875714Y-84390952D01*
X27828095Y-84486190D01*
X27780476Y-84533809D01*
X27685238Y-84581428D01*
X27494761Y-84581428D01*
X27399523Y-84533809D01*
X27351904Y-84486190D01*
X27304285Y-84390952D01*
X61856666Y-22962380D02*
X62190000Y-22486190D01*
X62428095Y-22962380D02*
X62428095Y-21962380D01*
X62047142Y-21962380D01*
X61951904Y-22010000D01*
X61904285Y-22057619D01*
X61856666Y-22152857D01*
X61856666Y-22295714D01*
X61904285Y-22390952D01*
X61951904Y-22438571D01*
X62047142Y-22486190D01*
X62428095Y-22486190D01*
X61380476Y-22962380D02*
X61190000Y-22962380D01*
X61094761Y-22914761D01*
X61047142Y-22867142D01*
X60951904Y-22724285D01*
X60904285Y-22533809D01*
X60904285Y-22152857D01*
X60951904Y-22057619D01*
X60999523Y-22010000D01*
X61094761Y-21962380D01*
X61285238Y-21962380D01*
X61380476Y-22010000D01*
X61428095Y-22057619D01*
X61475714Y-22152857D01*
X61475714Y-22390952D01*
X61428095Y-22486190D01*
X61380476Y-22533809D01*
X61285238Y-22581428D01*
X61094761Y-22581428D01*
X60999523Y-22533809D01*
X60951904Y-22486190D01*
X60904285Y-22390952D01*
G04 #@! TO.C,U2*
X25461904Y-61987380D02*
X25461904Y-62796904D01*
X25414285Y-62892142D01*
X25366666Y-62939761D01*
X25271428Y-62987380D01*
X25080952Y-62987380D01*
X24985714Y-62939761D01*
X24938095Y-62892142D01*
X24890476Y-62796904D01*
X24890476Y-61987380D01*
X24461904Y-62082619D02*
X24414285Y-62035000D01*
X24319047Y-61987380D01*
X24080952Y-61987380D01*
X23985714Y-62035000D01*
X23938095Y-62082619D01*
X23890476Y-62177857D01*
X23890476Y-62273095D01*
X23938095Y-62415952D01*
X24509523Y-62987380D01*
X23890476Y-62987380D01*
X92661904Y-61987380D02*
X92661904Y-62796904D01*
X92614285Y-62892142D01*
X92566666Y-62939761D01*
X92471428Y-62987380D01*
X92280952Y-62987380D01*
X92185714Y-62939761D01*
X92138095Y-62892142D01*
X92090476Y-62796904D01*
X92090476Y-61987380D01*
X91661904Y-62082619D02*
X91614285Y-62035000D01*
X91519047Y-61987380D01*
X91280952Y-61987380D01*
X91185714Y-62035000D01*
X91138095Y-62082619D01*
X91090476Y-62177857D01*
X91090476Y-62273095D01*
X91138095Y-62415952D01*
X91709523Y-62987380D01*
X91090476Y-62987380D01*
G04 #@! TO.C,R8*
X30186666Y-51622380D02*
X30520000Y-51146190D01*
X30758095Y-51622380D02*
X30758095Y-50622380D01*
X30377142Y-50622380D01*
X30281904Y-50670000D01*
X30234285Y-50717619D01*
X30186666Y-50812857D01*
X30186666Y-50955714D01*
X30234285Y-51050952D01*
X30281904Y-51098571D01*
X30377142Y-51146190D01*
X30758095Y-51146190D01*
X29615238Y-51050952D02*
X29710476Y-51003333D01*
X29758095Y-50955714D01*
X29805714Y-50860476D01*
X29805714Y-50812857D01*
X29758095Y-50717619D01*
X29710476Y-50670000D01*
X29615238Y-50622380D01*
X29424761Y-50622380D01*
X29329523Y-50670000D01*
X29281904Y-50717619D01*
X29234285Y-50812857D01*
X29234285Y-50860476D01*
X29281904Y-50955714D01*
X29329523Y-51003333D01*
X29424761Y-51050952D01*
X29615238Y-51050952D01*
X29710476Y-51098571D01*
X29758095Y-51146190D01*
X29805714Y-51241428D01*
X29805714Y-51431904D01*
X29758095Y-51527142D01*
X29710476Y-51574761D01*
X29615238Y-51622380D01*
X29424761Y-51622380D01*
X29329523Y-51574761D01*
X29281904Y-51527142D01*
X29234285Y-51431904D01*
X29234285Y-51241428D01*
X29281904Y-51146190D01*
X29329523Y-51098571D01*
X29424761Y-51050952D01*
G04 #@! TO.C,R9*
X11456666Y-53962380D02*
X11790000Y-53486190D01*
X12028095Y-53962380D02*
X12028095Y-52962380D01*
X11647142Y-52962380D01*
X11551904Y-53010000D01*
X11504285Y-53057619D01*
X11456666Y-53152857D01*
X11456666Y-53295714D01*
X11504285Y-53390952D01*
X11551904Y-53438571D01*
X11647142Y-53486190D01*
X12028095Y-53486190D01*
X10980476Y-53962380D02*
X10790000Y-53962380D01*
X10694761Y-53914761D01*
X10647142Y-53867142D01*
X10551904Y-53724285D01*
X10504285Y-53533809D01*
X10504285Y-53152857D01*
X10551904Y-53057619D01*
X10599523Y-53010000D01*
X10694761Y-52962380D01*
X10885238Y-52962380D01*
X10980476Y-53010000D01*
X11028095Y-53057619D01*
X11075714Y-53152857D01*
X11075714Y-53390952D01*
X11028095Y-53486190D01*
X10980476Y-53533809D01*
X10885238Y-53581428D01*
X10694761Y-53581428D01*
X10599523Y-53533809D01*
X10551904Y-53486190D01*
X10504285Y-53390952D01*
G04 #@! TO.C,U2*
X42261904Y-30987380D02*
X42261904Y-31796904D01*
X42214285Y-31892142D01*
X42166666Y-31939761D01*
X42071428Y-31987380D01*
X41880952Y-31987380D01*
X41785714Y-31939761D01*
X41738095Y-31892142D01*
X41690476Y-31796904D01*
X41690476Y-30987380D01*
X41261904Y-31082619D02*
X41214285Y-31035000D01*
X41119047Y-30987380D01*
X40880952Y-30987380D01*
X40785714Y-31035000D01*
X40738095Y-31082619D01*
X40690476Y-31177857D01*
X40690476Y-31273095D01*
X40738095Y-31415952D01*
X41309523Y-31987380D01*
X40690476Y-31987380D01*
X75861904Y-61987380D02*
X75861904Y-62796904D01*
X75814285Y-62892142D01*
X75766666Y-62939761D01*
X75671428Y-62987380D01*
X75480952Y-62987380D01*
X75385714Y-62939761D01*
X75338095Y-62892142D01*
X75290476Y-62796904D01*
X75290476Y-61987380D01*
X74861904Y-62082619D02*
X74814285Y-62035000D01*
X74719047Y-61987380D01*
X74480952Y-61987380D01*
X74385714Y-62035000D01*
X74338095Y-62082619D01*
X74290476Y-62177857D01*
X74290476Y-62273095D01*
X74338095Y-62415952D01*
X74909523Y-62987380D01*
X74290476Y-62987380D01*
X75861904Y12620D02*
X75861904Y-796904D01*
X75814285Y-892142D01*
X75766666Y-939761D01*
X75671428Y-987380D01*
X75480952Y-987380D01*
X75385714Y-939761D01*
X75338095Y-892142D01*
X75290476Y-796904D01*
X75290476Y12620D01*
X74861904Y-82619D02*
X74814285Y-35000D01*
X74719047Y12620D01*
X74480952Y12620D01*
X74385714Y-35000D01*
X74338095Y-82619D01*
X74290476Y-177857D01*
X74290476Y-273095D01*
X74338095Y-415952D01*
X74909523Y-987380D01*
X74290476Y-987380D01*
G04 #@! TO.C,R8*
X46986666Y-82622380D02*
X47320000Y-82146190D01*
X47558095Y-82622380D02*
X47558095Y-81622380D01*
X47177142Y-81622380D01*
X47081904Y-81670000D01*
X47034285Y-81717619D01*
X46986666Y-81812857D01*
X46986666Y-81955714D01*
X47034285Y-82050952D01*
X47081904Y-82098571D01*
X47177142Y-82146190D01*
X47558095Y-82146190D01*
X46415238Y-82050952D02*
X46510476Y-82003333D01*
X46558095Y-81955714D01*
X46605714Y-81860476D01*
X46605714Y-81812857D01*
X46558095Y-81717619D01*
X46510476Y-81670000D01*
X46415238Y-81622380D01*
X46224761Y-81622380D01*
X46129523Y-81670000D01*
X46081904Y-81717619D01*
X46034285Y-81812857D01*
X46034285Y-81860476D01*
X46081904Y-81955714D01*
X46129523Y-82003333D01*
X46224761Y-82050952D01*
X46415238Y-82050952D01*
X46510476Y-82098571D01*
X46558095Y-82146190D01*
X46605714Y-82241428D01*
X46605714Y-82431904D01*
X46558095Y-82527142D01*
X46510476Y-82574761D01*
X46415238Y-82622380D01*
X46224761Y-82622380D01*
X46129523Y-82574761D01*
X46081904Y-82527142D01*
X46034285Y-82431904D01*
X46034285Y-82241428D01*
X46081904Y-82146190D01*
X46129523Y-82098571D01*
X46224761Y-82050952D01*
X46986666Y-51622380D02*
X47320000Y-51146190D01*
X47558095Y-51622380D02*
X47558095Y-50622380D01*
X47177142Y-50622380D01*
X47081904Y-50670000D01*
X47034285Y-50717619D01*
X46986666Y-50812857D01*
X46986666Y-50955714D01*
X47034285Y-51050952D01*
X47081904Y-51098571D01*
X47177142Y-51146190D01*
X47558095Y-51146190D01*
X46415238Y-51050952D02*
X46510476Y-51003333D01*
X46558095Y-50955714D01*
X46605714Y-50860476D01*
X46605714Y-50812857D01*
X46558095Y-50717619D01*
X46510476Y-50670000D01*
X46415238Y-50622380D01*
X46224761Y-50622380D01*
X46129523Y-50670000D01*
X46081904Y-50717619D01*
X46034285Y-50812857D01*
X46034285Y-50860476D01*
X46081904Y-50955714D01*
X46129523Y-51003333D01*
X46224761Y-51050952D01*
X46415238Y-51050952D01*
X46510476Y-51098571D01*
X46558095Y-51146190D01*
X46605714Y-51241428D01*
X46605714Y-51431904D01*
X46558095Y-51527142D01*
X46510476Y-51574761D01*
X46415238Y-51622380D01*
X46224761Y-51622380D01*
X46129523Y-51574761D01*
X46081904Y-51527142D01*
X46034285Y-51431904D01*
X46034285Y-51241428D01*
X46081904Y-51146190D01*
X46129523Y-51098571D01*
X46224761Y-51050952D01*
X97386666Y-51622380D02*
X97720000Y-51146190D01*
X97958095Y-51622380D02*
X97958095Y-50622380D01*
X97577142Y-50622380D01*
X97481904Y-50670000D01*
X97434285Y-50717619D01*
X97386666Y-50812857D01*
X97386666Y-50955714D01*
X97434285Y-51050952D01*
X97481904Y-51098571D01*
X97577142Y-51146190D01*
X97958095Y-51146190D01*
X96815238Y-51050952D02*
X96910476Y-51003333D01*
X96958095Y-50955714D01*
X97005714Y-50860476D01*
X97005714Y-50812857D01*
X96958095Y-50717619D01*
X96910476Y-50670000D01*
X96815238Y-50622380D01*
X96624761Y-50622380D01*
X96529523Y-50670000D01*
X96481904Y-50717619D01*
X96434285Y-50812857D01*
X96434285Y-50860476D01*
X96481904Y-50955714D01*
X96529523Y-51003333D01*
X96624761Y-51050952D01*
X96815238Y-51050952D01*
X96910476Y-51098571D01*
X96958095Y-51146190D01*
X97005714Y-51241428D01*
X97005714Y-51431904D01*
X96958095Y-51527142D01*
X96910476Y-51574761D01*
X96815238Y-51622380D01*
X96624761Y-51622380D01*
X96529523Y-51574761D01*
X96481904Y-51527142D01*
X96434285Y-51431904D01*
X96434285Y-51241428D01*
X96481904Y-51146190D01*
X96529523Y-51098571D01*
X96624761Y-51050952D01*
G04 #@! TO.C,U2*
X42261904Y12620D02*
X42261904Y-796904D01*
X42214285Y-892142D01*
X42166666Y-939761D01*
X42071428Y-987380D01*
X41880952Y-987380D01*
X41785714Y-939761D01*
X41738095Y-892142D01*
X41690476Y-796904D01*
X41690476Y12620D01*
X41261904Y-82619D02*
X41214285Y-35000D01*
X41119047Y12620D01*
X40880952Y12620D01*
X40785714Y-35000D01*
X40738095Y-82619D01*
X40690476Y-177857D01*
X40690476Y-273095D01*
X40738095Y-415952D01*
X41309523Y-987380D01*
X40690476Y-987380D01*
G04 #@! TO.C,R8*
X13386666Y-82622380D02*
X13720000Y-82146190D01*
X13958095Y-82622380D02*
X13958095Y-81622380D01*
X13577142Y-81622380D01*
X13481904Y-81670000D01*
X13434285Y-81717619D01*
X13386666Y-81812857D01*
X13386666Y-81955714D01*
X13434285Y-82050952D01*
X13481904Y-82098571D01*
X13577142Y-82146190D01*
X13958095Y-82146190D01*
X12815238Y-82050952D02*
X12910476Y-82003333D01*
X12958095Y-81955714D01*
X13005714Y-81860476D01*
X13005714Y-81812857D01*
X12958095Y-81717619D01*
X12910476Y-81670000D01*
X12815238Y-81622380D01*
X12624761Y-81622380D01*
X12529523Y-81670000D01*
X12481904Y-81717619D01*
X12434285Y-81812857D01*
X12434285Y-81860476D01*
X12481904Y-81955714D01*
X12529523Y-82003333D01*
X12624761Y-82050952D01*
X12815238Y-82050952D01*
X12910476Y-82098571D01*
X12958095Y-82146190D01*
X13005714Y-82241428D01*
X13005714Y-82431904D01*
X12958095Y-82527142D01*
X12910476Y-82574761D01*
X12815238Y-82622380D01*
X12624761Y-82622380D01*
X12529523Y-82574761D01*
X12481904Y-82527142D01*
X12434285Y-82431904D01*
X12434285Y-82241428D01*
X12481904Y-82146190D01*
X12529523Y-82098571D01*
X12624761Y-82050952D01*
G04 #@! TO.C,U2*
X8661904Y-30987380D02*
X8661904Y-31796904D01*
X8614285Y-31892142D01*
X8566666Y-31939761D01*
X8471428Y-31987380D01*
X8280952Y-31987380D01*
X8185714Y-31939761D01*
X8138095Y-31892142D01*
X8090476Y-31796904D01*
X8090476Y-30987380D01*
X7661904Y-31082619D02*
X7614285Y-31035000D01*
X7519047Y-30987380D01*
X7280952Y-30987380D01*
X7185714Y-31035000D01*
X7138095Y-31082619D01*
X7090476Y-31177857D01*
X7090476Y-31273095D01*
X7138095Y-31415952D01*
X7709523Y-31987380D01*
X7090476Y-31987380D01*
G04 #@! TO.C,R8*
X80586666Y-20622380D02*
X80920000Y-20146190D01*
X81158095Y-20622380D02*
X81158095Y-19622380D01*
X80777142Y-19622380D01*
X80681904Y-19670000D01*
X80634285Y-19717619D01*
X80586666Y-19812857D01*
X80586666Y-19955714D01*
X80634285Y-20050952D01*
X80681904Y-20098571D01*
X80777142Y-20146190D01*
X81158095Y-20146190D01*
X80015238Y-20050952D02*
X80110476Y-20003333D01*
X80158095Y-19955714D01*
X80205714Y-19860476D01*
X80205714Y-19812857D01*
X80158095Y-19717619D01*
X80110476Y-19670000D01*
X80015238Y-19622380D01*
X79824761Y-19622380D01*
X79729523Y-19670000D01*
X79681904Y-19717619D01*
X79634285Y-19812857D01*
X79634285Y-19860476D01*
X79681904Y-19955714D01*
X79729523Y-20003333D01*
X79824761Y-20050952D01*
X80015238Y-20050952D01*
X80110476Y-20098571D01*
X80158095Y-20146190D01*
X80205714Y-20241428D01*
X80205714Y-20431904D01*
X80158095Y-20527142D01*
X80110476Y-20574761D01*
X80015238Y-20622380D01*
X79824761Y-20622380D01*
X79729523Y-20574761D01*
X79681904Y-20527142D01*
X79634285Y-20431904D01*
X79634285Y-20241428D01*
X79681904Y-20146190D01*
X79729523Y-20098571D01*
X79824761Y-20050952D01*
G04 #@! TO.C,U2*
X59061904Y-61987380D02*
X59061904Y-62796904D01*
X59014285Y-62892142D01*
X58966666Y-62939761D01*
X58871428Y-62987380D01*
X58680952Y-62987380D01*
X58585714Y-62939761D01*
X58538095Y-62892142D01*
X58490476Y-62796904D01*
X58490476Y-61987380D01*
X58061904Y-62082619D02*
X58014285Y-62035000D01*
X57919047Y-61987380D01*
X57680952Y-61987380D01*
X57585714Y-62035000D01*
X57538095Y-62082619D01*
X57490476Y-62177857D01*
X57490476Y-62273095D01*
X57538095Y-62415952D01*
X58109523Y-62987380D01*
X57490476Y-62987380D01*
G04 #@! TO.C,R8*
X80586666Y-51622380D02*
X80920000Y-51146190D01*
X81158095Y-51622380D02*
X81158095Y-50622380D01*
X80777142Y-50622380D01*
X80681904Y-50670000D01*
X80634285Y-50717619D01*
X80586666Y-50812857D01*
X80586666Y-50955714D01*
X80634285Y-51050952D01*
X80681904Y-51098571D01*
X80777142Y-51146190D01*
X81158095Y-51146190D01*
X80015238Y-51050952D02*
X80110476Y-51003333D01*
X80158095Y-50955714D01*
X80205714Y-50860476D01*
X80205714Y-50812857D01*
X80158095Y-50717619D01*
X80110476Y-50670000D01*
X80015238Y-50622380D01*
X79824761Y-50622380D01*
X79729523Y-50670000D01*
X79681904Y-50717619D01*
X79634285Y-50812857D01*
X79634285Y-50860476D01*
X79681904Y-50955714D01*
X79729523Y-51003333D01*
X79824761Y-51050952D01*
X80015238Y-51050952D01*
X80110476Y-51098571D01*
X80158095Y-51146190D01*
X80205714Y-51241428D01*
X80205714Y-51431904D01*
X80158095Y-51527142D01*
X80110476Y-51574761D01*
X80015238Y-51622380D01*
X79824761Y-51622380D01*
X79729523Y-51574761D01*
X79681904Y-51527142D01*
X79634285Y-51431904D01*
X79634285Y-51241428D01*
X79681904Y-51146190D01*
X79729523Y-51098571D01*
X79824761Y-51050952D01*
X30186666Y-82622380D02*
X30520000Y-82146190D01*
X30758095Y-82622380D02*
X30758095Y-81622380D01*
X30377142Y-81622380D01*
X30281904Y-81670000D01*
X30234285Y-81717619D01*
X30186666Y-81812857D01*
X30186666Y-81955714D01*
X30234285Y-82050952D01*
X30281904Y-82098571D01*
X30377142Y-82146190D01*
X30758095Y-82146190D01*
X29615238Y-82050952D02*
X29710476Y-82003333D01*
X29758095Y-81955714D01*
X29805714Y-81860476D01*
X29805714Y-81812857D01*
X29758095Y-81717619D01*
X29710476Y-81670000D01*
X29615238Y-81622380D01*
X29424761Y-81622380D01*
X29329523Y-81670000D01*
X29281904Y-81717619D01*
X29234285Y-81812857D01*
X29234285Y-81860476D01*
X29281904Y-81955714D01*
X29329523Y-82003333D01*
X29424761Y-82050952D01*
X29615238Y-82050952D01*
X29710476Y-82098571D01*
X29758095Y-82146190D01*
X29805714Y-82241428D01*
X29805714Y-82431904D01*
X29758095Y-82527142D01*
X29710476Y-82574761D01*
X29615238Y-82622380D01*
X29424761Y-82622380D01*
X29329523Y-82574761D01*
X29281904Y-82527142D01*
X29234285Y-82431904D01*
X29234285Y-82241428D01*
X29281904Y-82146190D01*
X29329523Y-82098571D01*
X29424761Y-82050952D01*
X97386666Y-82622380D02*
X97720000Y-82146190D01*
X97958095Y-82622380D02*
X97958095Y-81622380D01*
X97577142Y-81622380D01*
X97481904Y-81670000D01*
X97434285Y-81717619D01*
X97386666Y-81812857D01*
X97386666Y-81955714D01*
X97434285Y-82050952D01*
X97481904Y-82098571D01*
X97577142Y-82146190D01*
X97958095Y-82146190D01*
X96815238Y-82050952D02*
X96910476Y-82003333D01*
X96958095Y-81955714D01*
X97005714Y-81860476D01*
X97005714Y-81812857D01*
X96958095Y-81717619D01*
X96910476Y-81670000D01*
X96815238Y-81622380D01*
X96624761Y-81622380D01*
X96529523Y-81670000D01*
X96481904Y-81717619D01*
X96434285Y-81812857D01*
X96434285Y-81860476D01*
X96481904Y-81955714D01*
X96529523Y-82003333D01*
X96624761Y-82050952D01*
X96815238Y-82050952D01*
X96910476Y-82098571D01*
X96958095Y-82146190D01*
X97005714Y-82241428D01*
X97005714Y-82431904D01*
X96958095Y-82527142D01*
X96910476Y-82574761D01*
X96815238Y-82622380D01*
X96624761Y-82622380D01*
X96529523Y-82574761D01*
X96481904Y-82527142D01*
X96434285Y-82431904D01*
X96434285Y-82241428D01*
X96481904Y-82146190D01*
X96529523Y-82098571D01*
X96624761Y-82050952D01*
G04 #@! TO.C,U2*
X59061904Y12620D02*
X59061904Y-796904D01*
X59014285Y-892142D01*
X58966666Y-939761D01*
X58871428Y-987380D01*
X58680952Y-987380D01*
X58585714Y-939761D01*
X58538095Y-892142D01*
X58490476Y-796904D01*
X58490476Y12620D01*
X58061904Y-82619D02*
X58014285Y-35000D01*
X57919047Y12620D01*
X57680952Y12620D01*
X57585714Y-35000D01*
X57538095Y-82619D01*
X57490476Y-177857D01*
X57490476Y-273095D01*
X57538095Y-415952D01*
X58109523Y-987380D01*
X57490476Y-987380D01*
G04 #@! TO.C,R9*
X61856666Y-84962380D02*
X62190000Y-84486190D01*
X62428095Y-84962380D02*
X62428095Y-83962380D01*
X62047142Y-83962380D01*
X61951904Y-84010000D01*
X61904285Y-84057619D01*
X61856666Y-84152857D01*
X61856666Y-84295714D01*
X61904285Y-84390952D01*
X61951904Y-84438571D01*
X62047142Y-84486190D01*
X62428095Y-84486190D01*
X61380476Y-84962380D02*
X61190000Y-84962380D01*
X61094761Y-84914761D01*
X61047142Y-84867142D01*
X60951904Y-84724285D01*
X60904285Y-84533809D01*
X60904285Y-84152857D01*
X60951904Y-84057619D01*
X60999523Y-84010000D01*
X61094761Y-83962380D01*
X61285238Y-83962380D01*
X61380476Y-84010000D01*
X61428095Y-84057619D01*
X61475714Y-84152857D01*
X61475714Y-84390952D01*
X61428095Y-84486190D01*
X61380476Y-84533809D01*
X61285238Y-84581428D01*
X61094761Y-84581428D01*
X60999523Y-84533809D01*
X60951904Y-84486190D01*
X60904285Y-84390952D01*
X95456666Y-22962380D02*
X95790000Y-22486190D01*
X96028095Y-22962380D02*
X96028095Y-21962380D01*
X95647142Y-21962380D01*
X95551904Y-22010000D01*
X95504285Y-22057619D01*
X95456666Y-22152857D01*
X95456666Y-22295714D01*
X95504285Y-22390952D01*
X95551904Y-22438571D01*
X95647142Y-22486190D01*
X96028095Y-22486190D01*
X94980476Y-22962380D02*
X94790000Y-22962380D01*
X94694761Y-22914761D01*
X94647142Y-22867142D01*
X94551904Y-22724285D01*
X94504285Y-22533809D01*
X94504285Y-22152857D01*
X94551904Y-22057619D01*
X94599523Y-22010000D01*
X94694761Y-21962380D01*
X94885238Y-21962380D01*
X94980476Y-22010000D01*
X95028095Y-22057619D01*
X95075714Y-22152857D01*
X95075714Y-22390952D01*
X95028095Y-22486190D01*
X94980476Y-22533809D01*
X94885238Y-22581428D01*
X94694761Y-22581428D01*
X94599523Y-22533809D01*
X94551904Y-22486190D01*
X94504285Y-22390952D01*
X45056666Y-22962380D02*
X45390000Y-22486190D01*
X45628095Y-22962380D02*
X45628095Y-21962380D01*
X45247142Y-21962380D01*
X45151904Y-22010000D01*
X45104285Y-22057619D01*
X45056666Y-22152857D01*
X45056666Y-22295714D01*
X45104285Y-22390952D01*
X45151904Y-22438571D01*
X45247142Y-22486190D01*
X45628095Y-22486190D01*
X44580476Y-22962380D02*
X44390000Y-22962380D01*
X44294761Y-22914761D01*
X44247142Y-22867142D01*
X44151904Y-22724285D01*
X44104285Y-22533809D01*
X44104285Y-22152857D01*
X44151904Y-22057619D01*
X44199523Y-22010000D01*
X44294761Y-21962380D01*
X44485238Y-21962380D01*
X44580476Y-22010000D01*
X44628095Y-22057619D01*
X44675714Y-22152857D01*
X44675714Y-22390952D01*
X44628095Y-22486190D01*
X44580476Y-22533809D01*
X44485238Y-22581428D01*
X44294761Y-22581428D01*
X44199523Y-22533809D01*
X44151904Y-22486190D01*
X44104285Y-22390952D01*
G04 #@! TO.C,R8*
X80586666Y-82622380D02*
X80920000Y-82146190D01*
X81158095Y-82622380D02*
X81158095Y-81622380D01*
X80777142Y-81622380D01*
X80681904Y-81670000D01*
X80634285Y-81717619D01*
X80586666Y-81812857D01*
X80586666Y-81955714D01*
X80634285Y-82050952D01*
X80681904Y-82098571D01*
X80777142Y-82146190D01*
X81158095Y-82146190D01*
X80015238Y-82050952D02*
X80110476Y-82003333D01*
X80158095Y-81955714D01*
X80205714Y-81860476D01*
X80205714Y-81812857D01*
X80158095Y-81717619D01*
X80110476Y-81670000D01*
X80015238Y-81622380D01*
X79824761Y-81622380D01*
X79729523Y-81670000D01*
X79681904Y-81717619D01*
X79634285Y-81812857D01*
X79634285Y-81860476D01*
X79681904Y-81955714D01*
X79729523Y-82003333D01*
X79824761Y-82050952D01*
X80015238Y-82050952D01*
X80110476Y-82098571D01*
X80158095Y-82146190D01*
X80205714Y-82241428D01*
X80205714Y-82431904D01*
X80158095Y-82527142D01*
X80110476Y-82574761D01*
X80015238Y-82622380D01*
X79824761Y-82622380D01*
X79729523Y-82574761D01*
X79681904Y-82527142D01*
X79634285Y-82431904D01*
X79634285Y-82241428D01*
X79681904Y-82146190D01*
X79729523Y-82098571D01*
X79824761Y-82050952D01*
X13386666Y-51622380D02*
X13720000Y-51146190D01*
X13958095Y-51622380D02*
X13958095Y-50622380D01*
X13577142Y-50622380D01*
X13481904Y-50670000D01*
X13434285Y-50717619D01*
X13386666Y-50812857D01*
X13386666Y-50955714D01*
X13434285Y-51050952D01*
X13481904Y-51098571D01*
X13577142Y-51146190D01*
X13958095Y-51146190D01*
X12815238Y-51050952D02*
X12910476Y-51003333D01*
X12958095Y-50955714D01*
X13005714Y-50860476D01*
X13005714Y-50812857D01*
X12958095Y-50717619D01*
X12910476Y-50670000D01*
X12815238Y-50622380D01*
X12624761Y-50622380D01*
X12529523Y-50670000D01*
X12481904Y-50717619D01*
X12434285Y-50812857D01*
X12434285Y-50860476D01*
X12481904Y-50955714D01*
X12529523Y-51003333D01*
X12624761Y-51050952D01*
X12815238Y-51050952D01*
X12910476Y-51098571D01*
X12958095Y-51146190D01*
X13005714Y-51241428D01*
X13005714Y-51431904D01*
X12958095Y-51527142D01*
X12910476Y-51574761D01*
X12815238Y-51622380D01*
X12624761Y-51622380D01*
X12529523Y-51574761D01*
X12481904Y-51527142D01*
X12434285Y-51431904D01*
X12434285Y-51241428D01*
X12481904Y-51146190D01*
X12529523Y-51098571D01*
X12624761Y-51050952D01*
X97386666Y-20622380D02*
X97720000Y-20146190D01*
X97958095Y-20622380D02*
X97958095Y-19622380D01*
X97577142Y-19622380D01*
X97481904Y-19670000D01*
X97434285Y-19717619D01*
X97386666Y-19812857D01*
X97386666Y-19955714D01*
X97434285Y-20050952D01*
X97481904Y-20098571D01*
X97577142Y-20146190D01*
X97958095Y-20146190D01*
X96815238Y-20050952D02*
X96910476Y-20003333D01*
X96958095Y-19955714D01*
X97005714Y-19860476D01*
X97005714Y-19812857D01*
X96958095Y-19717619D01*
X96910476Y-19670000D01*
X96815238Y-19622380D01*
X96624761Y-19622380D01*
X96529523Y-19670000D01*
X96481904Y-19717619D01*
X96434285Y-19812857D01*
X96434285Y-19860476D01*
X96481904Y-19955714D01*
X96529523Y-20003333D01*
X96624761Y-20050952D01*
X96815238Y-20050952D01*
X96910476Y-20098571D01*
X96958095Y-20146190D01*
X97005714Y-20241428D01*
X97005714Y-20431904D01*
X96958095Y-20527142D01*
X96910476Y-20574761D01*
X96815238Y-20622380D01*
X96624761Y-20622380D01*
X96529523Y-20574761D01*
X96481904Y-20527142D01*
X96434285Y-20431904D01*
X96434285Y-20241428D01*
X96481904Y-20146190D01*
X96529523Y-20098571D01*
X96624761Y-20050952D01*
G04 #@! TO.C,R9*
X61856666Y-53962380D02*
X62190000Y-53486190D01*
X62428095Y-53962380D02*
X62428095Y-52962380D01*
X62047142Y-52962380D01*
X61951904Y-53010000D01*
X61904285Y-53057619D01*
X61856666Y-53152857D01*
X61856666Y-53295714D01*
X61904285Y-53390952D01*
X61951904Y-53438571D01*
X62047142Y-53486190D01*
X62428095Y-53486190D01*
X61380476Y-53962380D02*
X61190000Y-53962380D01*
X61094761Y-53914761D01*
X61047142Y-53867142D01*
X60951904Y-53724285D01*
X60904285Y-53533809D01*
X60904285Y-53152857D01*
X60951904Y-53057619D01*
X60999523Y-53010000D01*
X61094761Y-52962380D01*
X61285238Y-52962380D01*
X61380476Y-53010000D01*
X61428095Y-53057619D01*
X61475714Y-53152857D01*
X61475714Y-53390952D01*
X61428095Y-53486190D01*
X61380476Y-53533809D01*
X61285238Y-53581428D01*
X61094761Y-53581428D01*
X60999523Y-53533809D01*
X60951904Y-53486190D01*
X60904285Y-53390952D01*
X28256666Y-53962380D02*
X28590000Y-53486190D01*
X28828095Y-53962380D02*
X28828095Y-52962380D01*
X28447142Y-52962380D01*
X28351904Y-53010000D01*
X28304285Y-53057619D01*
X28256666Y-53152857D01*
X28256666Y-53295714D01*
X28304285Y-53390952D01*
X28351904Y-53438571D01*
X28447142Y-53486190D01*
X28828095Y-53486190D01*
X27780476Y-53962380D02*
X27590000Y-53962380D01*
X27494761Y-53914761D01*
X27447142Y-53867142D01*
X27351904Y-53724285D01*
X27304285Y-53533809D01*
X27304285Y-53152857D01*
X27351904Y-53057619D01*
X27399523Y-53010000D01*
X27494761Y-52962380D01*
X27685238Y-52962380D01*
X27780476Y-53010000D01*
X27828095Y-53057619D01*
X27875714Y-53152857D01*
X27875714Y-53390952D01*
X27828095Y-53486190D01*
X27780476Y-53533809D01*
X27685238Y-53581428D01*
X27494761Y-53581428D01*
X27399523Y-53533809D01*
X27351904Y-53486190D01*
X27304285Y-53390952D01*
X78656666Y-84962380D02*
X78990000Y-84486190D01*
X79228095Y-84962380D02*
X79228095Y-83962380D01*
X78847142Y-83962380D01*
X78751904Y-84010000D01*
X78704285Y-84057619D01*
X78656666Y-84152857D01*
X78656666Y-84295714D01*
X78704285Y-84390952D01*
X78751904Y-84438571D01*
X78847142Y-84486190D01*
X79228095Y-84486190D01*
X78180476Y-84962380D02*
X77990000Y-84962380D01*
X77894761Y-84914761D01*
X77847142Y-84867142D01*
X77751904Y-84724285D01*
X77704285Y-84533809D01*
X77704285Y-84152857D01*
X77751904Y-84057619D01*
X77799523Y-84010000D01*
X77894761Y-83962380D01*
X78085238Y-83962380D01*
X78180476Y-84010000D01*
X78228095Y-84057619D01*
X78275714Y-84152857D01*
X78275714Y-84390952D01*
X78228095Y-84486190D01*
X78180476Y-84533809D01*
X78085238Y-84581428D01*
X77894761Y-84581428D01*
X77799523Y-84533809D01*
X77751904Y-84486190D01*
X77704285Y-84390952D01*
G04 #@! TO.C,R8*
X63786666Y-20622380D02*
X64120000Y-20146190D01*
X64358095Y-20622380D02*
X64358095Y-19622380D01*
X63977142Y-19622380D01*
X63881904Y-19670000D01*
X63834285Y-19717619D01*
X63786666Y-19812857D01*
X63786666Y-19955714D01*
X63834285Y-20050952D01*
X63881904Y-20098571D01*
X63977142Y-20146190D01*
X64358095Y-20146190D01*
X63215238Y-20050952D02*
X63310476Y-20003333D01*
X63358095Y-19955714D01*
X63405714Y-19860476D01*
X63405714Y-19812857D01*
X63358095Y-19717619D01*
X63310476Y-19670000D01*
X63215238Y-19622380D01*
X63024761Y-19622380D01*
X62929523Y-19670000D01*
X62881904Y-19717619D01*
X62834285Y-19812857D01*
X62834285Y-19860476D01*
X62881904Y-19955714D01*
X62929523Y-20003333D01*
X63024761Y-20050952D01*
X63215238Y-20050952D01*
X63310476Y-20098571D01*
X63358095Y-20146190D01*
X63405714Y-20241428D01*
X63405714Y-20431904D01*
X63358095Y-20527142D01*
X63310476Y-20574761D01*
X63215238Y-20622380D01*
X63024761Y-20622380D01*
X62929523Y-20574761D01*
X62881904Y-20527142D01*
X62834285Y-20431904D01*
X62834285Y-20241428D01*
X62881904Y-20146190D01*
X62929523Y-20098571D01*
X63024761Y-20050952D01*
G04 #@! TO.C,U2*
X75861904Y-30987380D02*
X75861904Y-31796904D01*
X75814285Y-31892142D01*
X75766666Y-31939761D01*
X75671428Y-31987380D01*
X75480952Y-31987380D01*
X75385714Y-31939761D01*
X75338095Y-31892142D01*
X75290476Y-31796904D01*
X75290476Y-30987380D01*
X74861904Y-31082619D02*
X74814285Y-31035000D01*
X74719047Y-30987380D01*
X74480952Y-30987380D01*
X74385714Y-31035000D01*
X74338095Y-31082619D01*
X74290476Y-31177857D01*
X74290476Y-31273095D01*
X74338095Y-31415952D01*
X74909523Y-31987380D01*
X74290476Y-31987380D01*
G04 #@! TO.C,R8*
X63786666Y-51622380D02*
X64120000Y-51146190D01*
X64358095Y-51622380D02*
X64358095Y-50622380D01*
X63977142Y-50622380D01*
X63881904Y-50670000D01*
X63834285Y-50717619D01*
X63786666Y-50812857D01*
X63786666Y-50955714D01*
X63834285Y-51050952D01*
X63881904Y-51098571D01*
X63977142Y-51146190D01*
X64358095Y-51146190D01*
X63215238Y-51050952D02*
X63310476Y-51003333D01*
X63358095Y-50955714D01*
X63405714Y-50860476D01*
X63405714Y-50812857D01*
X63358095Y-50717619D01*
X63310476Y-50670000D01*
X63215238Y-50622380D01*
X63024761Y-50622380D01*
X62929523Y-50670000D01*
X62881904Y-50717619D01*
X62834285Y-50812857D01*
X62834285Y-50860476D01*
X62881904Y-50955714D01*
X62929523Y-51003333D01*
X63024761Y-51050952D01*
X63215238Y-51050952D01*
X63310476Y-51098571D01*
X63358095Y-51146190D01*
X63405714Y-51241428D01*
X63405714Y-51431904D01*
X63358095Y-51527142D01*
X63310476Y-51574761D01*
X63215238Y-51622380D01*
X63024761Y-51622380D01*
X62929523Y-51574761D01*
X62881904Y-51527142D01*
X62834285Y-51431904D01*
X62834285Y-51241428D01*
X62881904Y-51146190D01*
X62929523Y-51098571D01*
X63024761Y-51050952D01*
G04 #@! TO.C,U2*
X8661904Y12620D02*
X8661904Y-796904D01*
X8614285Y-892142D01*
X8566666Y-939761D01*
X8471428Y-987380D01*
X8280952Y-987380D01*
X8185714Y-939761D01*
X8138095Y-892142D01*
X8090476Y-796904D01*
X8090476Y12620D01*
X7661904Y-82619D02*
X7614285Y-35000D01*
X7519047Y12620D01*
X7280952Y12620D01*
X7185714Y-35000D01*
X7138095Y-82619D01*
X7090476Y-177857D01*
X7090476Y-273095D01*
X7138095Y-415952D01*
X7709523Y-987380D01*
X7090476Y-987380D01*
X42261904Y-61987380D02*
X42261904Y-62796904D01*
X42214285Y-62892142D01*
X42166666Y-62939761D01*
X42071428Y-62987380D01*
X41880952Y-62987380D01*
X41785714Y-62939761D01*
X41738095Y-62892142D01*
X41690476Y-62796904D01*
X41690476Y-61987380D01*
X41261904Y-62082619D02*
X41214285Y-62035000D01*
X41119047Y-61987380D01*
X40880952Y-61987380D01*
X40785714Y-62035000D01*
X40738095Y-62082619D01*
X40690476Y-62177857D01*
X40690476Y-62273095D01*
X40738095Y-62415952D01*
X41309523Y-62987380D01*
X40690476Y-62987380D01*
G04 #@! TO.C,R9*
X28256666Y-22962380D02*
X28590000Y-22486190D01*
X28828095Y-22962380D02*
X28828095Y-21962380D01*
X28447142Y-21962380D01*
X28351904Y-22010000D01*
X28304285Y-22057619D01*
X28256666Y-22152857D01*
X28256666Y-22295714D01*
X28304285Y-22390952D01*
X28351904Y-22438571D01*
X28447142Y-22486190D01*
X28828095Y-22486190D01*
X27780476Y-22962380D02*
X27590000Y-22962380D01*
X27494761Y-22914761D01*
X27447142Y-22867142D01*
X27351904Y-22724285D01*
X27304285Y-22533809D01*
X27304285Y-22152857D01*
X27351904Y-22057619D01*
X27399523Y-22010000D01*
X27494761Y-21962380D01*
X27685238Y-21962380D01*
X27780476Y-22010000D01*
X27828095Y-22057619D01*
X27875714Y-22152857D01*
X27875714Y-22390952D01*
X27828095Y-22486190D01*
X27780476Y-22533809D01*
X27685238Y-22581428D01*
X27494761Y-22581428D01*
X27399523Y-22533809D01*
X27351904Y-22486190D01*
X27304285Y-22390952D01*
G04 #@! TO.C,U2*
X8661904Y-61987380D02*
X8661904Y-62796904D01*
X8614285Y-62892142D01*
X8566666Y-62939761D01*
X8471428Y-62987380D01*
X8280952Y-62987380D01*
X8185714Y-62939761D01*
X8138095Y-62892142D01*
X8090476Y-62796904D01*
X8090476Y-61987380D01*
X7661904Y-62082619D02*
X7614285Y-62035000D01*
X7519047Y-61987380D01*
X7280952Y-61987380D01*
X7185714Y-62035000D01*
X7138095Y-62082619D01*
X7090476Y-62177857D01*
X7090476Y-62273095D01*
X7138095Y-62415952D01*
X7709523Y-62987380D01*
X7090476Y-62987380D01*
G04 #@! TO.C,R9*
X45056666Y-53962380D02*
X45390000Y-53486190D01*
X45628095Y-53962380D02*
X45628095Y-52962380D01*
X45247142Y-52962380D01*
X45151904Y-53010000D01*
X45104285Y-53057619D01*
X45056666Y-53152857D01*
X45056666Y-53295714D01*
X45104285Y-53390952D01*
X45151904Y-53438571D01*
X45247142Y-53486190D01*
X45628095Y-53486190D01*
X44580476Y-53962380D02*
X44390000Y-53962380D01*
X44294761Y-53914761D01*
X44247142Y-53867142D01*
X44151904Y-53724285D01*
X44104285Y-53533809D01*
X44104285Y-53152857D01*
X44151904Y-53057619D01*
X44199523Y-53010000D01*
X44294761Y-52962380D01*
X44485238Y-52962380D01*
X44580476Y-53010000D01*
X44628095Y-53057619D01*
X44675714Y-53152857D01*
X44675714Y-53390952D01*
X44628095Y-53486190D01*
X44580476Y-53533809D01*
X44485238Y-53581428D01*
X44294761Y-53581428D01*
X44199523Y-53533809D01*
X44151904Y-53486190D01*
X44104285Y-53390952D01*
G04 #@! TO.C,U2*
X25461904Y-30987380D02*
X25461904Y-31796904D01*
X25414285Y-31892142D01*
X25366666Y-31939761D01*
X25271428Y-31987380D01*
X25080952Y-31987380D01*
X24985714Y-31939761D01*
X24938095Y-31892142D01*
X24890476Y-31796904D01*
X24890476Y-30987380D01*
X24461904Y-31082619D02*
X24414285Y-31035000D01*
X24319047Y-30987380D01*
X24080952Y-30987380D01*
X23985714Y-31035000D01*
X23938095Y-31082619D01*
X23890476Y-31177857D01*
X23890476Y-31273095D01*
X23938095Y-31415952D01*
X24509523Y-31987380D01*
X23890476Y-31987380D01*
G04 #@! TO.C,R9*
X11456666Y-84962380D02*
X11790000Y-84486190D01*
X12028095Y-84962380D02*
X12028095Y-83962380D01*
X11647142Y-83962380D01*
X11551904Y-84010000D01*
X11504285Y-84057619D01*
X11456666Y-84152857D01*
X11456666Y-84295714D01*
X11504285Y-84390952D01*
X11551904Y-84438571D01*
X11647142Y-84486190D01*
X12028095Y-84486190D01*
X10980476Y-84962380D02*
X10790000Y-84962380D01*
X10694761Y-84914761D01*
X10647142Y-84867142D01*
X10551904Y-84724285D01*
X10504285Y-84533809D01*
X10504285Y-84152857D01*
X10551904Y-84057619D01*
X10599523Y-84010000D01*
X10694761Y-83962380D01*
X10885238Y-83962380D01*
X10980476Y-84010000D01*
X11028095Y-84057619D01*
X11075714Y-84152857D01*
X11075714Y-84390952D01*
X11028095Y-84486190D01*
X10980476Y-84533809D01*
X10885238Y-84581428D01*
X10694761Y-84581428D01*
X10599523Y-84533809D01*
X10551904Y-84486190D01*
X10504285Y-84390952D01*
G04 #@! TO.C,R8*
X63786666Y-82622380D02*
X64120000Y-82146190D01*
X64358095Y-82622380D02*
X64358095Y-81622380D01*
X63977142Y-81622380D01*
X63881904Y-81670000D01*
X63834285Y-81717619D01*
X63786666Y-81812857D01*
X63786666Y-81955714D01*
X63834285Y-82050952D01*
X63881904Y-82098571D01*
X63977142Y-82146190D01*
X64358095Y-82146190D01*
X63215238Y-82050952D02*
X63310476Y-82003333D01*
X63358095Y-81955714D01*
X63405714Y-81860476D01*
X63405714Y-81812857D01*
X63358095Y-81717619D01*
X63310476Y-81670000D01*
X63215238Y-81622380D01*
X63024761Y-81622380D01*
X62929523Y-81670000D01*
X62881904Y-81717619D01*
X62834285Y-81812857D01*
X62834285Y-81860476D01*
X62881904Y-81955714D01*
X62929523Y-82003333D01*
X63024761Y-82050952D01*
X63215238Y-82050952D01*
X63310476Y-82098571D01*
X63358095Y-82146190D01*
X63405714Y-82241428D01*
X63405714Y-82431904D01*
X63358095Y-82527142D01*
X63310476Y-82574761D01*
X63215238Y-82622380D01*
X63024761Y-82622380D01*
X62929523Y-82574761D01*
X62881904Y-82527142D01*
X62834285Y-82431904D01*
X62834285Y-82241428D01*
X62881904Y-82146190D01*
X62929523Y-82098571D01*
X63024761Y-82050952D01*
X46986666Y-20622380D02*
X47320000Y-20146190D01*
X47558095Y-20622380D02*
X47558095Y-19622380D01*
X47177142Y-19622380D01*
X47081904Y-19670000D01*
X47034285Y-19717619D01*
X46986666Y-19812857D01*
X46986666Y-19955714D01*
X47034285Y-20050952D01*
X47081904Y-20098571D01*
X47177142Y-20146190D01*
X47558095Y-20146190D01*
X46415238Y-20050952D02*
X46510476Y-20003333D01*
X46558095Y-19955714D01*
X46605714Y-19860476D01*
X46605714Y-19812857D01*
X46558095Y-19717619D01*
X46510476Y-19670000D01*
X46415238Y-19622380D01*
X46224761Y-19622380D01*
X46129523Y-19670000D01*
X46081904Y-19717619D01*
X46034285Y-19812857D01*
X46034285Y-19860476D01*
X46081904Y-19955714D01*
X46129523Y-20003333D01*
X46224761Y-20050952D01*
X46415238Y-20050952D01*
X46510476Y-20098571D01*
X46558095Y-20146190D01*
X46605714Y-20241428D01*
X46605714Y-20431904D01*
X46558095Y-20527142D01*
X46510476Y-20574761D01*
X46415238Y-20622380D01*
X46224761Y-20622380D01*
X46129523Y-20574761D01*
X46081904Y-20527142D01*
X46034285Y-20431904D01*
X46034285Y-20241428D01*
X46081904Y-20146190D01*
X46129523Y-20098571D01*
X46224761Y-20050952D01*
D12*
G04 #@! TO.C,R9*
X78336359Y-52720000D02*
X78643641Y-52720000D01*
X78336359Y-51960000D02*
X78643641Y-51960000D01*
X95136359Y-51960000D02*
X95443641Y-51960000D01*
X95136359Y-52720000D02*
X95443641Y-52720000D01*
X78336359Y-20960000D02*
X78643641Y-20960000D01*
X78336359Y-21720000D02*
X78643641Y-21720000D01*
X44736359Y-83720000D02*
X45043641Y-83720000D01*
X44736359Y-82960000D02*
X45043641Y-82960000D01*
G04 #@! TO.C,U2*
X64396000Y-35599000D02*
X64396000Y-40044000D01*
X60332000Y-35599000D02*
X60332000Y-37758000D01*
X54617000Y-40552000D02*
X54617000Y-35599000D01*
X56395000Y-35599000D02*
X56395000Y-37758000D01*
X62364000Y-35599000D02*
X64396000Y-35599000D01*
X60332000Y-37758000D02*
X62364000Y-37758000D01*
X58300000Y-37758000D02*
X58300000Y-35599000D01*
X58300000Y-35599000D02*
X60332000Y-35599000D01*
X52839000Y-35599000D02*
X56395000Y-35599000D01*
X56395000Y-37758000D02*
X58300000Y-37758000D01*
X62364000Y-37758000D02*
X62364000Y-35599000D01*
X52839000Y-40552000D02*
X52839000Y-35599000D01*
X64900000Y-40540000D02*
X51700000Y-40540000D01*
X51700000Y-40540000D02*
X51700000Y-35140000D01*
X51700000Y-35140000D02*
X64900000Y-35140000D01*
X64900000Y-35140000D02*
X64900000Y-40540000D01*
X64900000Y-40540000D02*
X51700000Y-40540000D01*
X51700000Y-40540000D02*
X51700000Y-51740000D01*
X51700000Y-51740000D02*
X64900000Y-51740000D01*
X64900000Y-51740000D02*
X64900000Y-40540000D01*
G04 #@! TO.C,R8*
X13373641Y-21720000D02*
X13066359Y-21720000D01*
X13373641Y-20960000D02*
X13066359Y-20960000D01*
G04 #@! TO.C,U2*
X89995000Y-6758000D02*
X91900000Y-6758000D01*
X86439000Y-9552000D02*
X86439000Y-4599000D01*
X91900000Y-4599000D02*
X93932000Y-4599000D01*
X86439000Y-4599000D02*
X89995000Y-4599000D01*
X97996000Y-4599000D02*
X97996000Y-9044000D01*
X93932000Y-4599000D02*
X93932000Y-6758000D01*
X91900000Y-6758000D02*
X91900000Y-4599000D01*
X89995000Y-4599000D02*
X89995000Y-6758000D01*
X95964000Y-4599000D02*
X97996000Y-4599000D01*
X88217000Y-9552000D02*
X88217000Y-4599000D01*
X93932000Y-6758000D02*
X95964000Y-6758000D01*
X95964000Y-6758000D02*
X95964000Y-4599000D01*
X98500000Y-9540000D02*
X85300000Y-9540000D01*
X85300000Y-9540000D02*
X85300000Y-4140000D01*
X85300000Y-4140000D02*
X98500000Y-4140000D01*
X98500000Y-4140000D02*
X98500000Y-9540000D01*
X98500000Y-9540000D02*
X85300000Y-9540000D01*
X85300000Y-9540000D02*
X85300000Y-20740000D01*
X85300000Y-20740000D02*
X98500000Y-20740000D01*
X98500000Y-20740000D02*
X98500000Y-9540000D01*
G04 #@! TO.C,R9*
X11136359Y-20960000D02*
X11443641Y-20960000D01*
X11136359Y-21720000D02*
X11443641Y-21720000D01*
G04 #@! TO.C,U2*
X86439000Y-40552000D02*
X86439000Y-35599000D01*
X95964000Y-37758000D02*
X95964000Y-35599000D01*
X91900000Y-37758000D02*
X91900000Y-35599000D01*
X89995000Y-37758000D02*
X91900000Y-37758000D01*
X91900000Y-35599000D02*
X93932000Y-35599000D01*
X97996000Y-35599000D02*
X97996000Y-40044000D01*
X86439000Y-35599000D02*
X89995000Y-35599000D01*
X93932000Y-35599000D02*
X93932000Y-37758000D01*
X95964000Y-35599000D02*
X97996000Y-35599000D01*
X88217000Y-40552000D02*
X88217000Y-35599000D01*
X89995000Y-35599000D02*
X89995000Y-37758000D01*
X93932000Y-37758000D02*
X95964000Y-37758000D01*
X98500000Y-40540000D02*
X85300000Y-40540000D01*
X85300000Y-40540000D02*
X85300000Y-51740000D01*
X85300000Y-51740000D02*
X98500000Y-51740000D01*
X98500000Y-51740000D02*
X98500000Y-40540000D01*
X98500000Y-40540000D02*
X85300000Y-40540000D01*
X85300000Y-40540000D02*
X85300000Y-35140000D01*
X85300000Y-35140000D02*
X98500000Y-35140000D01*
X98500000Y-35140000D02*
X98500000Y-40540000D01*
G04 #@! TO.C,R14*
X81910000Y-49833641D02*
X81910000Y-49526359D01*
X82670000Y-49833641D02*
X82670000Y-49526359D01*
G04 #@! TO.C,U2*
X24700000Y-6758000D02*
X24700000Y-4599000D01*
X26732000Y-6758000D02*
X28764000Y-6758000D01*
X28764000Y-4599000D02*
X30796000Y-4599000D01*
X24700000Y-4599000D02*
X26732000Y-4599000D01*
X28764000Y-6758000D02*
X28764000Y-4599000D01*
X22795000Y-6758000D02*
X24700000Y-6758000D01*
X19239000Y-4599000D02*
X22795000Y-4599000D01*
X22795000Y-4599000D02*
X22795000Y-6758000D01*
X19239000Y-9552000D02*
X19239000Y-4599000D01*
X26732000Y-4599000D02*
X26732000Y-6758000D01*
X21017000Y-9552000D02*
X21017000Y-4599000D01*
X30796000Y-4599000D02*
X30796000Y-9044000D01*
X31300000Y-9540000D02*
X18100000Y-9540000D01*
X18100000Y-9540000D02*
X18100000Y-4140000D01*
X18100000Y-4140000D02*
X31300000Y-4140000D01*
X31300000Y-4140000D02*
X31300000Y-9540000D01*
X31300000Y-9540000D02*
X18100000Y-9540000D01*
X18100000Y-9540000D02*
X18100000Y-20740000D01*
X18100000Y-20740000D02*
X31300000Y-20740000D01*
X31300000Y-20740000D02*
X31300000Y-9540000D01*
G04 #@! TO.C,R9*
X95136359Y-83720000D02*
X95443641Y-83720000D01*
X95136359Y-82960000D02*
X95443641Y-82960000D01*
G04 #@! TO.C,R14*
X98710000Y-18833641D02*
X98710000Y-18526359D01*
X99470000Y-18833641D02*
X99470000Y-18526359D01*
G04 #@! TO.C,R8*
X30173641Y-20960000D02*
X29866359Y-20960000D01*
X30173641Y-21720000D02*
X29866359Y-21720000D01*
G04 #@! TO.C,R14*
X14710000Y-49833641D02*
X14710000Y-49526359D01*
X15470000Y-49833641D02*
X15470000Y-49526359D01*
G04 #@! TO.C,R9*
X27936359Y-83720000D02*
X28243641Y-83720000D01*
X27936359Y-82960000D02*
X28243641Y-82960000D01*
X61536359Y-21720000D02*
X61843641Y-21720000D01*
X61536359Y-20960000D02*
X61843641Y-20960000D01*
G04 #@! TO.C,U2*
X28764000Y-68758000D02*
X28764000Y-66599000D01*
X21017000Y-71552000D02*
X21017000Y-66599000D01*
X28764000Y-66599000D02*
X30796000Y-66599000D01*
X19239000Y-71552000D02*
X19239000Y-66599000D01*
X26732000Y-68758000D02*
X28764000Y-68758000D01*
X24700000Y-66599000D02*
X26732000Y-66599000D01*
X24700000Y-68758000D02*
X24700000Y-66599000D01*
X26732000Y-66599000D02*
X26732000Y-68758000D01*
X22795000Y-66599000D02*
X22795000Y-68758000D01*
X22795000Y-68758000D02*
X24700000Y-68758000D01*
X19239000Y-66599000D02*
X22795000Y-66599000D01*
X30796000Y-66599000D02*
X30796000Y-71044000D01*
X31300000Y-71540000D02*
X18100000Y-71540000D01*
X18100000Y-71540000D02*
X18100000Y-82740000D01*
X18100000Y-82740000D02*
X31300000Y-82740000D01*
X31300000Y-82740000D02*
X31300000Y-71540000D01*
X31300000Y-71540000D02*
X18100000Y-71540000D01*
X18100000Y-71540000D02*
X18100000Y-66140000D01*
X18100000Y-66140000D02*
X31300000Y-66140000D01*
X31300000Y-66140000D02*
X31300000Y-71540000D01*
G04 #@! TO.C,R14*
X32270000Y-49833641D02*
X32270000Y-49526359D01*
X31510000Y-49833641D02*
X31510000Y-49526359D01*
X49070000Y-18833641D02*
X49070000Y-18526359D01*
X48310000Y-18833641D02*
X48310000Y-18526359D01*
G04 #@! TO.C,U2*
X89995000Y-66599000D02*
X89995000Y-68758000D01*
X93932000Y-68758000D02*
X95964000Y-68758000D01*
X93932000Y-66599000D02*
X93932000Y-68758000D01*
X95964000Y-68758000D02*
X95964000Y-66599000D01*
X86439000Y-66599000D02*
X89995000Y-66599000D01*
X91900000Y-66599000D02*
X93932000Y-66599000D01*
X89995000Y-68758000D02*
X91900000Y-68758000D01*
X88217000Y-71552000D02*
X88217000Y-66599000D01*
X95964000Y-66599000D02*
X97996000Y-66599000D01*
X86439000Y-71552000D02*
X86439000Y-66599000D01*
X91900000Y-68758000D02*
X91900000Y-66599000D01*
X97996000Y-66599000D02*
X97996000Y-71044000D01*
X98500000Y-71540000D02*
X85300000Y-71540000D01*
X85300000Y-71540000D02*
X85300000Y-66140000D01*
X85300000Y-66140000D02*
X98500000Y-66140000D01*
X98500000Y-66140000D02*
X98500000Y-71540000D01*
X98500000Y-71540000D02*
X85300000Y-71540000D01*
X85300000Y-71540000D02*
X85300000Y-82740000D01*
X85300000Y-82740000D02*
X98500000Y-82740000D01*
X98500000Y-82740000D02*
X98500000Y-71540000D01*
G04 #@! TO.C,R14*
X49070000Y-49833641D02*
X49070000Y-49526359D01*
X48310000Y-49833641D02*
X48310000Y-49526359D01*
G04 #@! TO.C,R8*
X30173641Y-51960000D02*
X29866359Y-51960000D01*
X30173641Y-52720000D02*
X29866359Y-52720000D01*
G04 #@! TO.C,R14*
X98710000Y-49833641D02*
X98710000Y-49526359D01*
X99470000Y-49833641D02*
X99470000Y-49526359D01*
G04 #@! TO.C,R9*
X11136359Y-51960000D02*
X11443641Y-51960000D01*
X11136359Y-52720000D02*
X11443641Y-52720000D01*
G04 #@! TO.C,U2*
X36039000Y-40552000D02*
X36039000Y-35599000D01*
X45564000Y-37758000D02*
X45564000Y-35599000D01*
X41500000Y-35599000D02*
X43532000Y-35599000D01*
X41500000Y-37758000D02*
X41500000Y-35599000D01*
X45564000Y-35599000D02*
X47596000Y-35599000D01*
X37817000Y-40552000D02*
X37817000Y-35599000D01*
X47596000Y-35599000D02*
X47596000Y-40044000D01*
X39595000Y-35599000D02*
X39595000Y-37758000D01*
X43532000Y-35599000D02*
X43532000Y-37758000D01*
X36039000Y-35599000D02*
X39595000Y-35599000D01*
X39595000Y-37758000D02*
X41500000Y-37758000D01*
X43532000Y-37758000D02*
X45564000Y-37758000D01*
X48100000Y-40540000D02*
X34900000Y-40540000D01*
X34900000Y-40540000D02*
X34900000Y-51740000D01*
X34900000Y-51740000D02*
X48100000Y-51740000D01*
X48100000Y-51740000D02*
X48100000Y-40540000D01*
X48100000Y-40540000D02*
X34900000Y-40540000D01*
X34900000Y-40540000D02*
X34900000Y-35140000D01*
X34900000Y-35140000D02*
X48100000Y-35140000D01*
X48100000Y-35140000D02*
X48100000Y-40540000D01*
X69639000Y-71552000D02*
X69639000Y-66599000D01*
X77132000Y-66599000D02*
X77132000Y-68758000D01*
X73195000Y-68758000D02*
X75100000Y-68758000D01*
X79164000Y-68758000D02*
X79164000Y-66599000D01*
X69639000Y-66599000D02*
X73195000Y-66599000D01*
X71417000Y-71552000D02*
X71417000Y-66599000D01*
X73195000Y-66599000D02*
X73195000Y-68758000D01*
X75100000Y-68758000D02*
X75100000Y-66599000D01*
X81196000Y-66599000D02*
X81196000Y-71044000D01*
X77132000Y-68758000D02*
X79164000Y-68758000D01*
X79164000Y-66599000D02*
X81196000Y-66599000D01*
X75100000Y-66599000D02*
X77132000Y-66599000D01*
X81700000Y-71540000D02*
X68500000Y-71540000D01*
X68500000Y-71540000D02*
X68500000Y-82740000D01*
X68500000Y-82740000D02*
X81700000Y-82740000D01*
X81700000Y-82740000D02*
X81700000Y-71540000D01*
X81700000Y-71540000D02*
X68500000Y-71540000D01*
X68500000Y-71540000D02*
X68500000Y-66140000D01*
X68500000Y-66140000D02*
X81700000Y-66140000D01*
X81700000Y-66140000D02*
X81700000Y-71540000D01*
X73195000Y-4599000D02*
X73195000Y-6758000D01*
X69639000Y-4599000D02*
X73195000Y-4599000D01*
X77132000Y-6758000D02*
X79164000Y-6758000D01*
X75100000Y-4599000D02*
X77132000Y-4599000D01*
X69639000Y-9552000D02*
X69639000Y-4599000D01*
X81196000Y-4599000D02*
X81196000Y-9044000D01*
X79164000Y-4599000D02*
X81196000Y-4599000D01*
X75100000Y-6758000D02*
X75100000Y-4599000D01*
X79164000Y-6758000D02*
X79164000Y-4599000D01*
X73195000Y-6758000D02*
X75100000Y-6758000D01*
X77132000Y-4599000D02*
X77132000Y-6758000D01*
X71417000Y-9552000D02*
X71417000Y-4599000D01*
X81700000Y-9540000D02*
X68500000Y-9540000D01*
X68500000Y-9540000D02*
X68500000Y-4140000D01*
X68500000Y-4140000D02*
X81700000Y-4140000D01*
X81700000Y-4140000D02*
X81700000Y-9540000D01*
X81700000Y-9540000D02*
X68500000Y-9540000D01*
X68500000Y-9540000D02*
X68500000Y-20740000D01*
X68500000Y-20740000D02*
X81700000Y-20740000D01*
X81700000Y-20740000D02*
X81700000Y-9540000D01*
G04 #@! TO.C,R14*
X65110000Y-18833641D02*
X65110000Y-18526359D01*
X65870000Y-18833641D02*
X65870000Y-18526359D01*
G04 #@! TO.C,R8*
X46973641Y-83720000D02*
X46666359Y-83720000D01*
X46973641Y-82960000D02*
X46666359Y-82960000D01*
G04 #@! TO.C,R14*
X65110000Y-49833641D02*
X65110000Y-49526359D01*
X65870000Y-49833641D02*
X65870000Y-49526359D01*
G04 #@! TO.C,R8*
X46973641Y-51960000D02*
X46666359Y-51960000D01*
X46973641Y-52720000D02*
X46666359Y-52720000D01*
X97373641Y-51960000D02*
X97066359Y-51960000D01*
X97373641Y-52720000D02*
X97066359Y-52720000D01*
G04 #@! TO.C,R14*
X49070000Y-80833641D02*
X49070000Y-80526359D01*
X48310000Y-80833641D02*
X48310000Y-80526359D01*
G04 #@! TO.C,U2*
X41500000Y-6758000D02*
X41500000Y-4599000D01*
X39595000Y-6758000D02*
X41500000Y-6758000D01*
X39595000Y-4599000D02*
X39595000Y-6758000D01*
X45564000Y-6758000D02*
X45564000Y-4599000D01*
X47596000Y-4599000D02*
X47596000Y-9044000D01*
X45564000Y-4599000D02*
X47596000Y-4599000D01*
X37817000Y-9552000D02*
X37817000Y-4599000D01*
X41500000Y-4599000D02*
X43532000Y-4599000D01*
X43532000Y-6758000D02*
X45564000Y-6758000D01*
X36039000Y-4599000D02*
X39595000Y-4599000D01*
X36039000Y-9552000D02*
X36039000Y-4599000D01*
X43532000Y-4599000D02*
X43532000Y-6758000D01*
X48100000Y-9540000D02*
X34900000Y-9540000D01*
X34900000Y-9540000D02*
X34900000Y-4140000D01*
X34900000Y-4140000D02*
X48100000Y-4140000D01*
X48100000Y-4140000D02*
X48100000Y-9540000D01*
X48100000Y-9540000D02*
X34900000Y-9540000D01*
X34900000Y-9540000D02*
X34900000Y-20740000D01*
X34900000Y-20740000D02*
X48100000Y-20740000D01*
X48100000Y-20740000D02*
X48100000Y-9540000D01*
G04 #@! TO.C,R8*
X13373641Y-82960000D02*
X13066359Y-82960000D01*
X13373641Y-83720000D02*
X13066359Y-83720000D01*
G04 #@! TO.C,R14*
X98710000Y-80833641D02*
X98710000Y-80526359D01*
X99470000Y-80833641D02*
X99470000Y-80526359D01*
G04 #@! TO.C,U2*
X9932000Y-37758000D02*
X11964000Y-37758000D01*
X13996000Y-35599000D02*
X13996000Y-40044000D01*
X4217000Y-40552000D02*
X4217000Y-35599000D01*
X7900000Y-35599000D02*
X9932000Y-35599000D01*
X2439000Y-40552000D02*
X2439000Y-35599000D01*
X2439000Y-35599000D02*
X5995000Y-35599000D01*
X7900000Y-37758000D02*
X7900000Y-35599000D01*
X11964000Y-35599000D02*
X13996000Y-35599000D01*
X5995000Y-35599000D02*
X5995000Y-37758000D01*
X5995000Y-37758000D02*
X7900000Y-37758000D01*
X11964000Y-37758000D02*
X11964000Y-35599000D01*
X9932000Y-35599000D02*
X9932000Y-37758000D01*
X14500000Y-40540000D02*
X1300000Y-40540000D01*
X1300000Y-40540000D02*
X1300000Y-51740000D01*
X1300000Y-51740000D02*
X14500000Y-51740000D01*
X14500000Y-51740000D02*
X14500000Y-40540000D01*
X14500000Y-40540000D02*
X1300000Y-40540000D01*
X1300000Y-40540000D02*
X1300000Y-35140000D01*
X1300000Y-35140000D02*
X14500000Y-35140000D01*
X14500000Y-35140000D02*
X14500000Y-40540000D01*
G04 #@! TO.C,R8*
X80573641Y-20960000D02*
X80266359Y-20960000D01*
X80573641Y-21720000D02*
X80266359Y-21720000D01*
G04 #@! TO.C,U2*
X60332000Y-68758000D02*
X62364000Y-68758000D01*
X58300000Y-66599000D02*
X60332000Y-66599000D01*
X54617000Y-71552000D02*
X54617000Y-66599000D01*
X56395000Y-68758000D02*
X58300000Y-68758000D01*
X58300000Y-68758000D02*
X58300000Y-66599000D01*
X62364000Y-66599000D02*
X64396000Y-66599000D01*
X52839000Y-66599000D02*
X56395000Y-66599000D01*
X64396000Y-66599000D02*
X64396000Y-71044000D01*
X62364000Y-68758000D02*
X62364000Y-66599000D01*
X60332000Y-66599000D02*
X60332000Y-68758000D01*
X56395000Y-66599000D02*
X56395000Y-68758000D01*
X52839000Y-71552000D02*
X52839000Y-66599000D01*
X64900000Y-71540000D02*
X51700000Y-71540000D01*
X51700000Y-71540000D02*
X51700000Y-66140000D01*
X51700000Y-66140000D02*
X64900000Y-66140000D01*
X64900000Y-66140000D02*
X64900000Y-71540000D01*
X64900000Y-71540000D02*
X51700000Y-71540000D01*
X51700000Y-71540000D02*
X51700000Y-82740000D01*
X51700000Y-82740000D02*
X64900000Y-82740000D01*
X64900000Y-82740000D02*
X64900000Y-71540000D01*
G04 #@! TO.C,R8*
X80573641Y-51960000D02*
X80266359Y-51960000D01*
X80573641Y-52720000D02*
X80266359Y-52720000D01*
X30173641Y-83720000D02*
X29866359Y-83720000D01*
X30173641Y-82960000D02*
X29866359Y-82960000D01*
G04 #@! TO.C,R14*
X65110000Y-80833641D02*
X65110000Y-80526359D01*
X65870000Y-80833641D02*
X65870000Y-80526359D01*
G04 #@! TO.C,R8*
X97373641Y-83720000D02*
X97066359Y-83720000D01*
X97373641Y-82960000D02*
X97066359Y-82960000D01*
G04 #@! TO.C,U2*
X58300000Y-4599000D02*
X60332000Y-4599000D01*
X60332000Y-4599000D02*
X60332000Y-6758000D01*
X64396000Y-4599000D02*
X64396000Y-9044000D01*
X54617000Y-9552000D02*
X54617000Y-4599000D01*
X56395000Y-4599000D02*
X56395000Y-6758000D01*
X62364000Y-6758000D02*
X62364000Y-4599000D01*
X62364000Y-4599000D02*
X64396000Y-4599000D01*
X58300000Y-6758000D02*
X58300000Y-4599000D01*
X60332000Y-6758000D02*
X62364000Y-6758000D01*
X56395000Y-6758000D02*
X58300000Y-6758000D01*
X52839000Y-9552000D02*
X52839000Y-4599000D01*
X52839000Y-4599000D02*
X56395000Y-4599000D01*
X64900000Y-9540000D02*
X51700000Y-9540000D01*
X51700000Y-9540000D02*
X51700000Y-20740000D01*
X51700000Y-20740000D02*
X64900000Y-20740000D01*
X64900000Y-20740000D02*
X64900000Y-9540000D01*
X64900000Y-9540000D02*
X51700000Y-9540000D01*
X51700000Y-9540000D02*
X51700000Y-4140000D01*
X51700000Y-4140000D02*
X64900000Y-4140000D01*
X64900000Y-4140000D02*
X64900000Y-9540000D01*
G04 #@! TO.C,R9*
X61536359Y-83720000D02*
X61843641Y-83720000D01*
X61536359Y-82960000D02*
X61843641Y-82960000D01*
X95136359Y-21720000D02*
X95443641Y-21720000D01*
X95136359Y-20960000D02*
X95443641Y-20960000D01*
X44736359Y-21720000D02*
X45043641Y-21720000D01*
X44736359Y-20960000D02*
X45043641Y-20960000D01*
G04 #@! TO.C,R8*
X80573641Y-82960000D02*
X80266359Y-82960000D01*
X80573641Y-83720000D02*
X80266359Y-83720000D01*
G04 #@! TO.C,R14*
X15470000Y-80833641D02*
X15470000Y-80526359D01*
X14710000Y-80833641D02*
X14710000Y-80526359D01*
G04 #@! TO.C,R8*
X13373641Y-52720000D02*
X13066359Y-52720000D01*
X13373641Y-51960000D02*
X13066359Y-51960000D01*
G04 #@! TO.C,R14*
X82670000Y-80833641D02*
X82670000Y-80526359D01*
X81910000Y-80833641D02*
X81910000Y-80526359D01*
G04 #@! TO.C,R8*
X97373641Y-21720000D02*
X97066359Y-21720000D01*
X97373641Y-20960000D02*
X97066359Y-20960000D01*
G04 #@! TO.C,R9*
X61536359Y-51960000D02*
X61843641Y-51960000D01*
X61536359Y-52720000D02*
X61843641Y-52720000D01*
X27936359Y-51960000D02*
X28243641Y-51960000D01*
X27936359Y-52720000D02*
X28243641Y-52720000D01*
X78336359Y-83720000D02*
X78643641Y-83720000D01*
X78336359Y-82960000D02*
X78643641Y-82960000D01*
G04 #@! TO.C,R8*
X63773641Y-20960000D02*
X63466359Y-20960000D01*
X63773641Y-21720000D02*
X63466359Y-21720000D01*
G04 #@! TO.C,R14*
X31510000Y-18833641D02*
X31510000Y-18526359D01*
X32270000Y-18833641D02*
X32270000Y-18526359D01*
G04 #@! TO.C,U2*
X77132000Y-35599000D02*
X77132000Y-37758000D01*
X69639000Y-35599000D02*
X73195000Y-35599000D01*
X69639000Y-40552000D02*
X69639000Y-35599000D01*
X71417000Y-40552000D02*
X71417000Y-35599000D01*
X77132000Y-37758000D02*
X79164000Y-37758000D01*
X73195000Y-35599000D02*
X73195000Y-37758000D01*
X79164000Y-37758000D02*
X79164000Y-35599000D01*
X75100000Y-37758000D02*
X75100000Y-35599000D01*
X73195000Y-37758000D02*
X75100000Y-37758000D01*
X75100000Y-35599000D02*
X77132000Y-35599000D01*
X81196000Y-35599000D02*
X81196000Y-40044000D01*
X79164000Y-35599000D02*
X81196000Y-35599000D01*
X81700000Y-40540000D02*
X68500000Y-40540000D01*
X68500000Y-40540000D02*
X68500000Y-35140000D01*
X68500000Y-35140000D02*
X81700000Y-35140000D01*
X81700000Y-35140000D02*
X81700000Y-40540000D01*
X81700000Y-40540000D02*
X68500000Y-40540000D01*
X68500000Y-40540000D02*
X68500000Y-51740000D01*
X68500000Y-51740000D02*
X81700000Y-51740000D01*
X81700000Y-51740000D02*
X81700000Y-40540000D01*
G04 #@! TO.C,R8*
X63773641Y-51960000D02*
X63466359Y-51960000D01*
X63773641Y-52720000D02*
X63466359Y-52720000D01*
G04 #@! TO.C,U2*
X2439000Y-4599000D02*
X5995000Y-4599000D01*
X11964000Y-4599000D02*
X13996000Y-4599000D01*
X11964000Y-6758000D02*
X11964000Y-4599000D01*
X4217000Y-9552000D02*
X4217000Y-4599000D01*
X7900000Y-6758000D02*
X7900000Y-4599000D01*
X9932000Y-6758000D02*
X11964000Y-6758000D01*
X7900000Y-4599000D02*
X9932000Y-4599000D01*
X5995000Y-6758000D02*
X7900000Y-6758000D01*
X2439000Y-9552000D02*
X2439000Y-4599000D01*
X5995000Y-4599000D02*
X5995000Y-6758000D01*
X13996000Y-4599000D02*
X13996000Y-9044000D01*
X9932000Y-4599000D02*
X9932000Y-6758000D01*
X14500000Y-9540000D02*
X1300000Y-9540000D01*
X1300000Y-9540000D02*
X1300000Y-4140000D01*
X1300000Y-4140000D02*
X14500000Y-4140000D01*
X14500000Y-4140000D02*
X14500000Y-9540000D01*
X14500000Y-9540000D02*
X1300000Y-9540000D01*
X1300000Y-9540000D02*
X1300000Y-20740000D01*
X1300000Y-20740000D02*
X14500000Y-20740000D01*
X14500000Y-20740000D02*
X14500000Y-9540000D01*
X39595000Y-68758000D02*
X41500000Y-68758000D01*
X39595000Y-66599000D02*
X39595000Y-68758000D01*
X43532000Y-68758000D02*
X45564000Y-68758000D01*
X43532000Y-66599000D02*
X43532000Y-68758000D01*
X45564000Y-66599000D02*
X47596000Y-66599000D01*
X41500000Y-68758000D02*
X41500000Y-66599000D01*
X47596000Y-66599000D02*
X47596000Y-71044000D01*
X45564000Y-68758000D02*
X45564000Y-66599000D01*
X41500000Y-66599000D02*
X43532000Y-66599000D01*
X36039000Y-66599000D02*
X39595000Y-66599000D01*
X37817000Y-71552000D02*
X37817000Y-66599000D01*
X36039000Y-71552000D02*
X36039000Y-66599000D01*
X48100000Y-71540000D02*
X34900000Y-71540000D01*
X34900000Y-71540000D02*
X34900000Y-82740000D01*
X34900000Y-82740000D02*
X48100000Y-82740000D01*
X48100000Y-82740000D02*
X48100000Y-71540000D01*
X48100000Y-71540000D02*
X34900000Y-71540000D01*
X34900000Y-71540000D02*
X34900000Y-66140000D01*
X34900000Y-66140000D02*
X48100000Y-66140000D01*
X48100000Y-66140000D02*
X48100000Y-71540000D01*
G04 #@! TO.C,R9*
X27936359Y-21720000D02*
X28243641Y-21720000D01*
X27936359Y-20960000D02*
X28243641Y-20960000D01*
G04 #@! TO.C,U2*
X2439000Y-66599000D02*
X5995000Y-66599000D01*
X11964000Y-66599000D02*
X13996000Y-66599000D01*
X4217000Y-71552000D02*
X4217000Y-66599000D01*
X2439000Y-71552000D02*
X2439000Y-66599000D01*
X7900000Y-68758000D02*
X7900000Y-66599000D01*
X5995000Y-68758000D02*
X7900000Y-68758000D01*
X5995000Y-66599000D02*
X5995000Y-68758000D01*
X13996000Y-66599000D02*
X13996000Y-71044000D01*
X9932000Y-66599000D02*
X9932000Y-68758000D01*
X11964000Y-68758000D02*
X11964000Y-66599000D01*
X9932000Y-68758000D02*
X11964000Y-68758000D01*
X7900000Y-66599000D02*
X9932000Y-66599000D01*
X14500000Y-71540000D02*
X1300000Y-71540000D01*
X1300000Y-71540000D02*
X1300000Y-82740000D01*
X1300000Y-82740000D02*
X14500000Y-82740000D01*
X14500000Y-82740000D02*
X14500000Y-71540000D01*
X14500000Y-71540000D02*
X1300000Y-71540000D01*
X1300000Y-71540000D02*
X1300000Y-66140000D01*
X1300000Y-66140000D02*
X14500000Y-66140000D01*
X14500000Y-66140000D02*
X14500000Y-71540000D01*
G04 #@! TO.C,R9*
X44736359Y-51960000D02*
X45043641Y-51960000D01*
X44736359Y-52720000D02*
X45043641Y-52720000D01*
G04 #@! TO.C,U2*
X24700000Y-37758000D02*
X24700000Y-35599000D01*
X28764000Y-35599000D02*
X30796000Y-35599000D01*
X19239000Y-40552000D02*
X19239000Y-35599000D01*
X26732000Y-37758000D02*
X28764000Y-37758000D01*
X22795000Y-35599000D02*
X22795000Y-37758000D01*
X28764000Y-37758000D02*
X28764000Y-35599000D01*
X19239000Y-35599000D02*
X22795000Y-35599000D01*
X24700000Y-35599000D02*
X26732000Y-35599000D01*
X21017000Y-40552000D02*
X21017000Y-35599000D01*
X30796000Y-35599000D02*
X30796000Y-40044000D01*
X26732000Y-35599000D02*
X26732000Y-37758000D01*
X22795000Y-37758000D02*
X24700000Y-37758000D01*
X31300000Y-40540000D02*
X18100000Y-40540000D01*
X18100000Y-40540000D02*
X18100000Y-51740000D01*
X18100000Y-51740000D02*
X31300000Y-51740000D01*
X31300000Y-51740000D02*
X31300000Y-40540000D01*
X31300000Y-40540000D02*
X18100000Y-40540000D01*
X18100000Y-40540000D02*
X18100000Y-35140000D01*
X18100000Y-35140000D02*
X31300000Y-35140000D01*
X31300000Y-35140000D02*
X31300000Y-40540000D01*
G04 #@! TO.C,R14*
X32270000Y-80833641D02*
X32270000Y-80526359D01*
X31510000Y-80833641D02*
X31510000Y-80526359D01*
G04 #@! TO.C,R9*
X11136359Y-82960000D02*
X11443641Y-82960000D01*
X11136359Y-83720000D02*
X11443641Y-83720000D01*
G04 #@! TO.C,R14*
X14710000Y-18833641D02*
X14710000Y-18526359D01*
X15470000Y-18833641D02*
X15470000Y-18526359D01*
G04 #@! TO.C,R8*
X63773641Y-82960000D02*
X63466359Y-82960000D01*
X63773641Y-83720000D02*
X63466359Y-83720000D01*
G04 #@! TO.C,R14*
X82670000Y-18833641D02*
X82670000Y-18526359D01*
X81910000Y-18833641D02*
X81910000Y-18526359D01*
G04 #@! TO.C,R8*
X46973641Y-20960000D02*
X46666359Y-20960000D01*
X46973641Y-21720000D02*
X46666359Y-21720000D01*
G04 #@! TD*
M02*
