G04 #@! TF.GenerationSoftware,KiCad,Pcbnew,6.0.11-2627ca5db0~126~ubuntu22.04.1*
G04 #@! TF.CreationDate,2023-04-03T23:49:23+02:00*
G04 #@! TF.ProjectId,panel,70616e65-6c2e-46b6-9963-61645f706362,rev?*
G04 #@! TF.SameCoordinates,Original*
G04 #@! TF.FileFunction,Soldermask,Bot*
G04 #@! TF.FilePolarity,Negative*
%FSLAX46Y46*%
G04 Gerber Fmt 4.6, Leading zero omitted, Abs format (unit mm)*
G04 Created by KiCad (PCBNEW 6.0.11-2627ca5db0~126~ubuntu22.04.1) date 2023-04-03 23:49:23*
%MOMM*%
%LPD*%
G01*
G04 APERTURE LIST*
G04 Aperture macros list*
%AMOutline5P*
0 Free polygon, 5 corners , with rotation*
0 The origin of the aperture is its center*
0 number of corners: always 5*
0 $1 to $10 corner X, Y*
0 $11 Rotation angle, in degrees counterclockwise*
0 create outline with 5 corners*
4,1,5,$1,$2,$3,$4,$5,$6,$7,$8,$9,$10,$1,$2,$11*%
%AMOutline6P*
0 Free polygon, 6 corners , with rotation*
0 The origin of the aperture is its center*
0 number of corners: always 6*
0 $1 to $12 corner X, Y*
0 $13 Rotation angle, in degrees counterclockwise*
0 create outline with 6 corners*
4,1,6,$1,$2,$3,$4,$5,$6,$7,$8,$9,$10,$11,$12,$1,$2,$13*%
%AMOutline7P*
0 Free polygon, 7 corners , with rotation*
0 The origin of the aperture is its center*
0 number of corners: always 7*
0 $1 to $14 corner X, Y*
0 $15 Rotation angle, in degrees counterclockwise*
0 create outline with 7 corners*
4,1,7,$1,$2,$3,$4,$5,$6,$7,$8,$9,$10,$11,$12,$13,$14,$1,$2,$15*%
%AMOutline8P*
0 Free polygon, 8 corners , with rotation*
0 The origin of the aperture is its center*
0 number of corners: always 8*
0 $1 to $16 corner X, Y*
0 $17 Rotation angle, in degrees counterclockwise*
0 create outline with 8 corners*
4,1,8,$1,$2,$3,$4,$5,$6,$7,$8,$9,$10,$11,$12,$13,$14,$15,$16,$1,$2,$17*%
G04 Aperture macros list end*
%ADD10C,1.500000*%
%ADD11R,0.800000X0.400000*%
%ADD12R,0.400000X0.800000*%
%ADD13R,1.450000X1.450000*%
%ADD14Outline5P,-0.725000X0.725000X0.725000X0.725000X0.725000X-0.725000X-0.125004X-0.725000X-0.725000X-0.125004X180.000000*%
%ADD15R,0.700000X0.700000*%
G04 APERTURE END LIST*
D10*
G04 #@! TO.C,REF\u002A\u002A*
X2500000Y-1500000D03*
G04 #@! TD*
G04 #@! TO.C,REF\u002A\u002A*
X2500000Y-98500000D03*
G04 #@! TD*
G04 #@! TO.C,REF\u002A\u002A*
X97300000Y-1500000D03*
G04 #@! TD*
D11*
G04 #@! TO.C,U2*
X81000000Y-11140000D03*
X81000000Y-11940000D03*
X81000000Y-12740000D03*
X81000000Y-13540000D03*
X81000000Y-14340000D03*
X81000000Y-15140000D03*
X81000000Y-15940000D03*
X81000000Y-16740000D03*
X81000000Y-17540000D03*
X81000000Y-18340000D03*
X81000000Y-19140000D03*
D12*
X79900000Y-20040000D03*
X79100000Y-20040000D03*
X78300000Y-20040000D03*
X77500000Y-20040000D03*
X76700000Y-20040000D03*
X75900000Y-20040000D03*
X75100000Y-20040000D03*
X74300000Y-20040000D03*
X73500000Y-20040000D03*
X72700000Y-20040000D03*
X71900000Y-20040000D03*
X71100000Y-20040000D03*
X70300000Y-20040000D03*
D11*
X69200000Y-19140000D03*
X69200000Y-18340000D03*
X69200000Y-17540000D03*
X69200000Y-16740000D03*
X69200000Y-15940000D03*
X69200000Y-15140000D03*
X69200000Y-14340000D03*
X69200000Y-13540000D03*
X69200000Y-12740000D03*
X69200000Y-11940000D03*
X69200000Y-11140000D03*
D12*
X70300000Y-10240000D03*
X71100000Y-10240000D03*
X71900000Y-10240000D03*
X72700000Y-10240000D03*
X73500000Y-10240000D03*
X74300000Y-10240000D03*
X75100000Y-10240000D03*
X75900000Y-10240000D03*
X76700000Y-10240000D03*
X77500000Y-10240000D03*
X78300000Y-10240000D03*
X79100000Y-10240000D03*
X79900000Y-10240000D03*
D13*
X73125000Y-15140000D03*
X75100000Y-13165000D03*
D14*
X77075000Y-13165000D03*
D13*
X75100000Y-17115000D03*
X77075000Y-17115000D03*
X75100000Y-15140000D03*
X77075000Y-15140000D03*
X73125000Y-17115000D03*
X73125000Y-13165000D03*
D15*
X69150000Y-10190000D03*
X69150000Y-20090000D03*
X81050000Y-20090000D03*
X81050000Y-10190000D03*
G04 #@! TD*
D11*
G04 #@! TO.C,U2*
X13800000Y-11140000D03*
X13800000Y-11940000D03*
X13800000Y-12740000D03*
X13800000Y-13540000D03*
X13800000Y-14340000D03*
X13800000Y-15140000D03*
X13800000Y-15940000D03*
X13800000Y-16740000D03*
X13800000Y-17540000D03*
X13800000Y-18340000D03*
X13800000Y-19140000D03*
D12*
X12700000Y-20040000D03*
X11900000Y-20040000D03*
X11100000Y-20040000D03*
X10300000Y-20040000D03*
X9500000Y-20040000D03*
X8700000Y-20040000D03*
X7900000Y-20040000D03*
X7100000Y-20040000D03*
X6300000Y-20040000D03*
X5500000Y-20040000D03*
X4700000Y-20040000D03*
X3900000Y-20040000D03*
X3100000Y-20040000D03*
D11*
X2000000Y-19140000D03*
X2000000Y-18340000D03*
X2000000Y-17540000D03*
X2000000Y-16740000D03*
X2000000Y-15940000D03*
X2000000Y-15140000D03*
X2000000Y-14340000D03*
X2000000Y-13540000D03*
X2000000Y-12740000D03*
X2000000Y-11940000D03*
X2000000Y-11140000D03*
D12*
X3100000Y-10240000D03*
X3900000Y-10240000D03*
X4700000Y-10240000D03*
X5500000Y-10240000D03*
X6300000Y-10240000D03*
X7100000Y-10240000D03*
X7900000Y-10240000D03*
X8700000Y-10240000D03*
X9500000Y-10240000D03*
X10300000Y-10240000D03*
X11100000Y-10240000D03*
X11900000Y-10240000D03*
X12700000Y-10240000D03*
D13*
X9875000Y-15140000D03*
X5925000Y-17115000D03*
X5925000Y-13165000D03*
X9875000Y-17115000D03*
X7900000Y-13165000D03*
X7900000Y-15140000D03*
D14*
X9875000Y-13165000D03*
D13*
X7900000Y-17115000D03*
X5925000Y-15140000D03*
D15*
X1950000Y-10190000D03*
X1950000Y-20090000D03*
X13850000Y-20090000D03*
X13850000Y-10190000D03*
G04 #@! TD*
D11*
G04 #@! TO.C,U2*
X81000000Y-73140000D03*
X81000000Y-73940000D03*
X81000000Y-74740000D03*
X81000000Y-75540000D03*
X81000000Y-76340000D03*
X81000000Y-77140000D03*
X81000000Y-77940000D03*
X81000000Y-78740000D03*
X81000000Y-79540000D03*
X81000000Y-80340000D03*
X81000000Y-81140000D03*
D12*
X79900000Y-82040000D03*
X79100000Y-82040000D03*
X78300000Y-82040000D03*
X77500000Y-82040000D03*
X76700000Y-82040000D03*
X75900000Y-82040000D03*
X75100000Y-82040000D03*
X74300000Y-82040000D03*
X73500000Y-82040000D03*
X72700000Y-82040000D03*
X71900000Y-82040000D03*
X71100000Y-82040000D03*
X70300000Y-82040000D03*
D11*
X69200000Y-81140000D03*
X69200000Y-80340000D03*
X69200000Y-79540000D03*
X69200000Y-78740000D03*
X69200000Y-77940000D03*
X69200000Y-77140000D03*
X69200000Y-76340000D03*
X69200000Y-75540000D03*
X69200000Y-74740000D03*
X69200000Y-73940000D03*
X69200000Y-73140000D03*
D12*
X70300000Y-72240000D03*
X71100000Y-72240000D03*
X71900000Y-72240000D03*
X72700000Y-72240000D03*
X73500000Y-72240000D03*
X74300000Y-72240000D03*
X75100000Y-72240000D03*
X75900000Y-72240000D03*
X76700000Y-72240000D03*
X77500000Y-72240000D03*
X78300000Y-72240000D03*
X79100000Y-72240000D03*
X79900000Y-72240000D03*
D13*
X77075000Y-79115000D03*
X77075000Y-77140000D03*
X73125000Y-77140000D03*
X73125000Y-75165000D03*
D14*
X77075000Y-75165000D03*
D13*
X75100000Y-75165000D03*
X75100000Y-79115000D03*
X73125000Y-79115000D03*
X75100000Y-77140000D03*
D15*
X69150000Y-72190000D03*
X69150000Y-82090000D03*
X81050000Y-82090000D03*
X81050000Y-72190000D03*
G04 #@! TD*
D11*
G04 #@! TO.C,U2*
X47400000Y-73140000D03*
X47400000Y-73940000D03*
X47400000Y-74740000D03*
X47400000Y-75540000D03*
X47400000Y-76340000D03*
X47400000Y-77140000D03*
X47400000Y-77940000D03*
X47400000Y-78740000D03*
X47400000Y-79540000D03*
X47400000Y-80340000D03*
X47400000Y-81140000D03*
D12*
X46300000Y-82040000D03*
X45500000Y-82040000D03*
X44700000Y-82040000D03*
X43900000Y-82040000D03*
X43100000Y-82040000D03*
X42300000Y-82040000D03*
X41500000Y-82040000D03*
X40700000Y-82040000D03*
X39900000Y-82040000D03*
X39100000Y-82040000D03*
X38300000Y-82040000D03*
X37500000Y-82040000D03*
X36700000Y-82040000D03*
D11*
X35600000Y-81140000D03*
X35600000Y-80340000D03*
X35600000Y-79540000D03*
X35600000Y-78740000D03*
X35600000Y-77940000D03*
X35600000Y-77140000D03*
X35600000Y-76340000D03*
X35600000Y-75540000D03*
X35600000Y-74740000D03*
X35600000Y-73940000D03*
X35600000Y-73140000D03*
D12*
X36700000Y-72240000D03*
X37500000Y-72240000D03*
X38300000Y-72240000D03*
X39100000Y-72240000D03*
X39900000Y-72240000D03*
X40700000Y-72240000D03*
X41500000Y-72240000D03*
X42300000Y-72240000D03*
X43100000Y-72240000D03*
X43900000Y-72240000D03*
X44700000Y-72240000D03*
X45500000Y-72240000D03*
X46300000Y-72240000D03*
D13*
X43475000Y-77140000D03*
X39525000Y-75165000D03*
X39525000Y-77140000D03*
X43475000Y-79115000D03*
X39525000Y-79115000D03*
X41500000Y-79115000D03*
X41500000Y-77140000D03*
D14*
X43475000Y-75165000D03*
D13*
X41500000Y-75165000D03*
D15*
X35550000Y-72190000D03*
X35550000Y-82090000D03*
X47450000Y-82090000D03*
X47450000Y-72190000D03*
G04 #@! TD*
D11*
G04 #@! TO.C,U2*
X64200000Y-42140000D03*
X64200000Y-42940000D03*
X64200000Y-43740000D03*
X64200000Y-44540000D03*
X64200000Y-45340000D03*
X64200000Y-46140000D03*
X64200000Y-46940000D03*
X64200000Y-47740000D03*
X64200000Y-48540000D03*
X64200000Y-49340000D03*
X64200000Y-50140000D03*
D12*
X63100000Y-51040000D03*
X62300000Y-51040000D03*
X61500000Y-51040000D03*
X60700000Y-51040000D03*
X59900000Y-51040000D03*
X59100000Y-51040000D03*
X58300000Y-51040000D03*
X57500000Y-51040000D03*
X56700000Y-51040000D03*
X55900000Y-51040000D03*
X55100000Y-51040000D03*
X54300000Y-51040000D03*
X53500000Y-51040000D03*
D11*
X52400000Y-50140000D03*
X52400000Y-49340000D03*
X52400000Y-48540000D03*
X52400000Y-47740000D03*
X52400000Y-46940000D03*
X52400000Y-46140000D03*
X52400000Y-45340000D03*
X52400000Y-44540000D03*
X52400000Y-43740000D03*
X52400000Y-42940000D03*
X52400000Y-42140000D03*
D12*
X53500000Y-41240000D03*
X54300000Y-41240000D03*
X55100000Y-41240000D03*
X55900000Y-41240000D03*
X56700000Y-41240000D03*
X57500000Y-41240000D03*
X58300000Y-41240000D03*
X59100000Y-41240000D03*
X59900000Y-41240000D03*
X60700000Y-41240000D03*
X61500000Y-41240000D03*
X62300000Y-41240000D03*
X63100000Y-41240000D03*
D13*
X60275000Y-48115000D03*
X56325000Y-44165000D03*
X56325000Y-48115000D03*
D14*
X60275000Y-44165000D03*
D13*
X58300000Y-44165000D03*
X58300000Y-48115000D03*
X60275000Y-46140000D03*
X56325000Y-46140000D03*
X58300000Y-46140000D03*
D15*
X52350000Y-41190000D03*
X52350000Y-51090000D03*
X64250000Y-51090000D03*
X64250000Y-41190000D03*
G04 #@! TD*
D11*
G04 #@! TO.C,U2*
X97800000Y-73140000D03*
X97800000Y-73940000D03*
X97800000Y-74740000D03*
X97800000Y-75540000D03*
X97800000Y-76340000D03*
X97800000Y-77140000D03*
X97800000Y-77940000D03*
X97800000Y-78740000D03*
X97800000Y-79540000D03*
X97800000Y-80340000D03*
X97800000Y-81140000D03*
D12*
X96700000Y-82040000D03*
X95900000Y-82040000D03*
X95100000Y-82040000D03*
X94300000Y-82040000D03*
X93500000Y-82040000D03*
X92700000Y-82040000D03*
X91900000Y-82040000D03*
X91100000Y-82040000D03*
X90300000Y-82040000D03*
X89500000Y-82040000D03*
X88700000Y-82040000D03*
X87900000Y-82040000D03*
X87100000Y-82040000D03*
D11*
X86000000Y-81140000D03*
X86000000Y-80340000D03*
X86000000Y-79540000D03*
X86000000Y-78740000D03*
X86000000Y-77940000D03*
X86000000Y-77140000D03*
X86000000Y-76340000D03*
X86000000Y-75540000D03*
X86000000Y-74740000D03*
X86000000Y-73940000D03*
X86000000Y-73140000D03*
D12*
X87100000Y-72240000D03*
X87900000Y-72240000D03*
X88700000Y-72240000D03*
X89500000Y-72240000D03*
X90300000Y-72240000D03*
X91100000Y-72240000D03*
X91900000Y-72240000D03*
X92700000Y-72240000D03*
X93500000Y-72240000D03*
X94300000Y-72240000D03*
X95100000Y-72240000D03*
X95900000Y-72240000D03*
X96700000Y-72240000D03*
D13*
X89925000Y-77140000D03*
X93875000Y-77140000D03*
X89925000Y-79115000D03*
X93875000Y-79115000D03*
X91900000Y-75165000D03*
X91900000Y-77140000D03*
X89925000Y-75165000D03*
D14*
X93875000Y-75165000D03*
D13*
X91900000Y-79115000D03*
D15*
X85950000Y-72190000D03*
X85950000Y-82090000D03*
X97850000Y-82090000D03*
X97850000Y-72190000D03*
G04 #@! TD*
D11*
G04 #@! TO.C,U2*
X47400000Y-42140000D03*
X47400000Y-42940000D03*
X47400000Y-43740000D03*
X47400000Y-44540000D03*
X47400000Y-45340000D03*
X47400000Y-46140000D03*
X47400000Y-46940000D03*
X47400000Y-47740000D03*
X47400000Y-48540000D03*
X47400000Y-49340000D03*
X47400000Y-50140000D03*
D12*
X46300000Y-51040000D03*
X45500000Y-51040000D03*
X44700000Y-51040000D03*
X43900000Y-51040000D03*
X43100000Y-51040000D03*
X42300000Y-51040000D03*
X41500000Y-51040000D03*
X40700000Y-51040000D03*
X39900000Y-51040000D03*
X39100000Y-51040000D03*
X38300000Y-51040000D03*
X37500000Y-51040000D03*
X36700000Y-51040000D03*
D11*
X35600000Y-50140000D03*
X35600000Y-49340000D03*
X35600000Y-48540000D03*
X35600000Y-47740000D03*
X35600000Y-46940000D03*
X35600000Y-46140000D03*
X35600000Y-45340000D03*
X35600000Y-44540000D03*
X35600000Y-43740000D03*
X35600000Y-42940000D03*
X35600000Y-42140000D03*
D12*
X36700000Y-41240000D03*
X37500000Y-41240000D03*
X38300000Y-41240000D03*
X39100000Y-41240000D03*
X39900000Y-41240000D03*
X40700000Y-41240000D03*
X41500000Y-41240000D03*
X42300000Y-41240000D03*
X43100000Y-41240000D03*
X43900000Y-41240000D03*
X44700000Y-41240000D03*
X45500000Y-41240000D03*
X46300000Y-41240000D03*
D13*
X39525000Y-46140000D03*
X43475000Y-48115000D03*
X39525000Y-44165000D03*
X43475000Y-46140000D03*
X39525000Y-48115000D03*
X41500000Y-46140000D03*
D14*
X43475000Y-44165000D03*
D13*
X41500000Y-44165000D03*
X41500000Y-48115000D03*
D15*
X35550000Y-41190000D03*
X35550000Y-51090000D03*
X47450000Y-51090000D03*
X47450000Y-41190000D03*
G04 #@! TD*
D11*
G04 #@! TO.C,U2*
X47400000Y-11140000D03*
X47400000Y-11940000D03*
X47400000Y-12740000D03*
X47400000Y-13540000D03*
X47400000Y-14340000D03*
X47400000Y-15140000D03*
X47400000Y-15940000D03*
X47400000Y-16740000D03*
X47400000Y-17540000D03*
X47400000Y-18340000D03*
X47400000Y-19140000D03*
D12*
X46300000Y-20040000D03*
X45500000Y-20040000D03*
X44700000Y-20040000D03*
X43900000Y-20040000D03*
X43100000Y-20040000D03*
X42300000Y-20040000D03*
X41500000Y-20040000D03*
X40700000Y-20040000D03*
X39900000Y-20040000D03*
X39100000Y-20040000D03*
X38300000Y-20040000D03*
X37500000Y-20040000D03*
X36700000Y-20040000D03*
D11*
X35600000Y-19140000D03*
X35600000Y-18340000D03*
X35600000Y-17540000D03*
X35600000Y-16740000D03*
X35600000Y-15940000D03*
X35600000Y-15140000D03*
X35600000Y-14340000D03*
X35600000Y-13540000D03*
X35600000Y-12740000D03*
X35600000Y-11940000D03*
X35600000Y-11140000D03*
D12*
X36700000Y-10240000D03*
X37500000Y-10240000D03*
X38300000Y-10240000D03*
X39100000Y-10240000D03*
X39900000Y-10240000D03*
X40700000Y-10240000D03*
X41500000Y-10240000D03*
X42300000Y-10240000D03*
X43100000Y-10240000D03*
X43900000Y-10240000D03*
X44700000Y-10240000D03*
X45500000Y-10240000D03*
X46300000Y-10240000D03*
D14*
X43475000Y-13165000D03*
D13*
X41500000Y-15140000D03*
X41500000Y-13165000D03*
X43475000Y-17115000D03*
X43475000Y-15140000D03*
X39525000Y-13165000D03*
X39525000Y-15140000D03*
X41500000Y-17115000D03*
X39525000Y-17115000D03*
D15*
X35550000Y-10190000D03*
X35550000Y-20090000D03*
X47450000Y-20090000D03*
X47450000Y-10190000D03*
G04 #@! TD*
D11*
G04 #@! TO.C,U2*
X64200000Y-11140000D03*
X64200000Y-11940000D03*
X64200000Y-12740000D03*
X64200000Y-13540000D03*
X64200000Y-14340000D03*
X64200000Y-15140000D03*
X64200000Y-15940000D03*
X64200000Y-16740000D03*
X64200000Y-17540000D03*
X64200000Y-18340000D03*
X64200000Y-19140000D03*
D12*
X63100000Y-20040000D03*
X62300000Y-20040000D03*
X61500000Y-20040000D03*
X60700000Y-20040000D03*
X59900000Y-20040000D03*
X59100000Y-20040000D03*
X58300000Y-20040000D03*
X57500000Y-20040000D03*
X56700000Y-20040000D03*
X55900000Y-20040000D03*
X55100000Y-20040000D03*
X54300000Y-20040000D03*
X53500000Y-20040000D03*
D11*
X52400000Y-19140000D03*
X52400000Y-18340000D03*
X52400000Y-17540000D03*
X52400000Y-16740000D03*
X52400000Y-15940000D03*
X52400000Y-15140000D03*
X52400000Y-14340000D03*
X52400000Y-13540000D03*
X52400000Y-12740000D03*
X52400000Y-11940000D03*
X52400000Y-11140000D03*
D12*
X53500000Y-10240000D03*
X54300000Y-10240000D03*
X55100000Y-10240000D03*
X55900000Y-10240000D03*
X56700000Y-10240000D03*
X57500000Y-10240000D03*
X58300000Y-10240000D03*
X59100000Y-10240000D03*
X59900000Y-10240000D03*
X60700000Y-10240000D03*
X61500000Y-10240000D03*
X62300000Y-10240000D03*
X63100000Y-10240000D03*
D13*
X58300000Y-13165000D03*
X56325000Y-17115000D03*
X56325000Y-13165000D03*
X60275000Y-15140000D03*
X56325000Y-15140000D03*
X58300000Y-15140000D03*
D14*
X60275000Y-13165000D03*
D13*
X60275000Y-17115000D03*
X58300000Y-17115000D03*
D15*
X52350000Y-10190000D03*
X52350000Y-20090000D03*
X64250000Y-20090000D03*
X64250000Y-10190000D03*
G04 #@! TD*
D11*
G04 #@! TO.C,U2*
X81000000Y-42140000D03*
X81000000Y-42940000D03*
X81000000Y-43740000D03*
X81000000Y-44540000D03*
X81000000Y-45340000D03*
X81000000Y-46140000D03*
X81000000Y-46940000D03*
X81000000Y-47740000D03*
X81000000Y-48540000D03*
X81000000Y-49340000D03*
X81000000Y-50140000D03*
D12*
X79900000Y-51040000D03*
X79100000Y-51040000D03*
X78300000Y-51040000D03*
X77500000Y-51040000D03*
X76700000Y-51040000D03*
X75900000Y-51040000D03*
X75100000Y-51040000D03*
X74300000Y-51040000D03*
X73500000Y-51040000D03*
X72700000Y-51040000D03*
X71900000Y-51040000D03*
X71100000Y-51040000D03*
X70300000Y-51040000D03*
D11*
X69200000Y-50140000D03*
X69200000Y-49340000D03*
X69200000Y-48540000D03*
X69200000Y-47740000D03*
X69200000Y-46940000D03*
X69200000Y-46140000D03*
X69200000Y-45340000D03*
X69200000Y-44540000D03*
X69200000Y-43740000D03*
X69200000Y-42940000D03*
X69200000Y-42140000D03*
D12*
X70300000Y-41240000D03*
X71100000Y-41240000D03*
X71900000Y-41240000D03*
X72700000Y-41240000D03*
X73500000Y-41240000D03*
X74300000Y-41240000D03*
X75100000Y-41240000D03*
X75900000Y-41240000D03*
X76700000Y-41240000D03*
X77500000Y-41240000D03*
X78300000Y-41240000D03*
X79100000Y-41240000D03*
X79900000Y-41240000D03*
D13*
X75100000Y-46140000D03*
X75100000Y-44165000D03*
X77075000Y-46140000D03*
D14*
X77075000Y-44165000D03*
D13*
X73125000Y-44165000D03*
X73125000Y-48115000D03*
X77075000Y-48115000D03*
X75100000Y-48115000D03*
X73125000Y-46140000D03*
D15*
X69150000Y-41190000D03*
X69150000Y-51090000D03*
X81050000Y-51090000D03*
X81050000Y-41190000D03*
G04 #@! TD*
D11*
G04 #@! TO.C,U2*
X97800000Y-42140000D03*
X97800000Y-42940000D03*
X97800000Y-43740000D03*
X97800000Y-44540000D03*
X97800000Y-45340000D03*
X97800000Y-46140000D03*
X97800000Y-46940000D03*
X97800000Y-47740000D03*
X97800000Y-48540000D03*
X97800000Y-49340000D03*
X97800000Y-50140000D03*
D12*
X96700000Y-51040000D03*
X95900000Y-51040000D03*
X95100000Y-51040000D03*
X94300000Y-51040000D03*
X93500000Y-51040000D03*
X92700000Y-51040000D03*
X91900000Y-51040000D03*
X91100000Y-51040000D03*
X90300000Y-51040000D03*
X89500000Y-51040000D03*
X88700000Y-51040000D03*
X87900000Y-51040000D03*
X87100000Y-51040000D03*
D11*
X86000000Y-50140000D03*
X86000000Y-49340000D03*
X86000000Y-48540000D03*
X86000000Y-47740000D03*
X86000000Y-46940000D03*
X86000000Y-46140000D03*
X86000000Y-45340000D03*
X86000000Y-44540000D03*
X86000000Y-43740000D03*
X86000000Y-42940000D03*
X86000000Y-42140000D03*
D12*
X87100000Y-41240000D03*
X87900000Y-41240000D03*
X88700000Y-41240000D03*
X89500000Y-41240000D03*
X90300000Y-41240000D03*
X91100000Y-41240000D03*
X91900000Y-41240000D03*
X92700000Y-41240000D03*
X93500000Y-41240000D03*
X94300000Y-41240000D03*
X95100000Y-41240000D03*
X95900000Y-41240000D03*
X96700000Y-41240000D03*
D13*
X89925000Y-46140000D03*
X89925000Y-48115000D03*
X93875000Y-48115000D03*
X91900000Y-48115000D03*
X89925000Y-44165000D03*
D14*
X93875000Y-44165000D03*
D13*
X91900000Y-44165000D03*
X93875000Y-46140000D03*
X91900000Y-46140000D03*
D15*
X85950000Y-41190000D03*
X85950000Y-51090000D03*
X97850000Y-51090000D03*
X97850000Y-41190000D03*
G04 #@! TD*
D11*
G04 #@! TO.C,U2*
X30600000Y-73140000D03*
X30600000Y-73940000D03*
X30600000Y-74740000D03*
X30600000Y-75540000D03*
X30600000Y-76340000D03*
X30600000Y-77140000D03*
X30600000Y-77940000D03*
X30600000Y-78740000D03*
X30600000Y-79540000D03*
X30600000Y-80340000D03*
X30600000Y-81140000D03*
D12*
X29500000Y-82040000D03*
X28700000Y-82040000D03*
X27900000Y-82040000D03*
X27100000Y-82040000D03*
X26300000Y-82040000D03*
X25500000Y-82040000D03*
X24700000Y-82040000D03*
X23900000Y-82040000D03*
X23100000Y-82040000D03*
X22300000Y-82040000D03*
X21500000Y-82040000D03*
X20700000Y-82040000D03*
X19900000Y-82040000D03*
D11*
X18800000Y-81140000D03*
X18800000Y-80340000D03*
X18800000Y-79540000D03*
X18800000Y-78740000D03*
X18800000Y-77940000D03*
X18800000Y-77140000D03*
X18800000Y-76340000D03*
X18800000Y-75540000D03*
X18800000Y-74740000D03*
X18800000Y-73940000D03*
X18800000Y-73140000D03*
D12*
X19900000Y-72240000D03*
X20700000Y-72240000D03*
X21500000Y-72240000D03*
X22300000Y-72240000D03*
X23100000Y-72240000D03*
X23900000Y-72240000D03*
X24700000Y-72240000D03*
X25500000Y-72240000D03*
X26300000Y-72240000D03*
X27100000Y-72240000D03*
X27900000Y-72240000D03*
X28700000Y-72240000D03*
X29500000Y-72240000D03*
D13*
X22725000Y-75165000D03*
X26675000Y-79115000D03*
X22725000Y-77140000D03*
X24700000Y-77140000D03*
X26675000Y-77140000D03*
D14*
X26675000Y-75165000D03*
D13*
X22725000Y-79115000D03*
X24700000Y-79115000D03*
X24700000Y-75165000D03*
D15*
X18750000Y-72190000D03*
X18750000Y-82090000D03*
X30650000Y-82090000D03*
X30650000Y-72190000D03*
G04 #@! TD*
D11*
G04 #@! TO.C,U2*
X13800000Y-42140000D03*
X13800000Y-42940000D03*
X13800000Y-43740000D03*
X13800000Y-44540000D03*
X13800000Y-45340000D03*
X13800000Y-46140000D03*
X13800000Y-46940000D03*
X13800000Y-47740000D03*
X13800000Y-48540000D03*
X13800000Y-49340000D03*
X13800000Y-50140000D03*
D12*
X12700000Y-51040000D03*
X11900000Y-51040000D03*
X11100000Y-51040000D03*
X10300000Y-51040000D03*
X9500000Y-51040000D03*
X8700000Y-51040000D03*
X7900000Y-51040000D03*
X7100000Y-51040000D03*
X6300000Y-51040000D03*
X5500000Y-51040000D03*
X4700000Y-51040000D03*
X3900000Y-51040000D03*
X3100000Y-51040000D03*
D11*
X2000000Y-50140000D03*
X2000000Y-49340000D03*
X2000000Y-48540000D03*
X2000000Y-47740000D03*
X2000000Y-46940000D03*
X2000000Y-46140000D03*
X2000000Y-45340000D03*
X2000000Y-44540000D03*
X2000000Y-43740000D03*
X2000000Y-42940000D03*
X2000000Y-42140000D03*
D12*
X3100000Y-41240000D03*
X3900000Y-41240000D03*
X4700000Y-41240000D03*
X5500000Y-41240000D03*
X6300000Y-41240000D03*
X7100000Y-41240000D03*
X7900000Y-41240000D03*
X8700000Y-41240000D03*
X9500000Y-41240000D03*
X10300000Y-41240000D03*
X11100000Y-41240000D03*
X11900000Y-41240000D03*
X12700000Y-41240000D03*
D13*
X5925000Y-44165000D03*
X9875000Y-48115000D03*
X5925000Y-48115000D03*
X9875000Y-46140000D03*
X7900000Y-44165000D03*
X7900000Y-46140000D03*
D14*
X9875000Y-44165000D03*
D13*
X7900000Y-48115000D03*
X5925000Y-46140000D03*
D15*
X1950000Y-41190000D03*
X1950000Y-51090000D03*
X13850000Y-51090000D03*
X13850000Y-41190000D03*
G04 #@! TD*
D11*
G04 #@! TO.C,U2*
X64200000Y-73140000D03*
X64200000Y-73940000D03*
X64200000Y-74740000D03*
X64200000Y-75540000D03*
X64200000Y-76340000D03*
X64200000Y-77140000D03*
X64200000Y-77940000D03*
X64200000Y-78740000D03*
X64200000Y-79540000D03*
X64200000Y-80340000D03*
X64200000Y-81140000D03*
D12*
X63100000Y-82040000D03*
X62300000Y-82040000D03*
X61500000Y-82040000D03*
X60700000Y-82040000D03*
X59900000Y-82040000D03*
X59100000Y-82040000D03*
X58300000Y-82040000D03*
X57500000Y-82040000D03*
X56700000Y-82040000D03*
X55900000Y-82040000D03*
X55100000Y-82040000D03*
X54300000Y-82040000D03*
X53500000Y-82040000D03*
D11*
X52400000Y-81140000D03*
X52400000Y-80340000D03*
X52400000Y-79540000D03*
X52400000Y-78740000D03*
X52400000Y-77940000D03*
X52400000Y-77140000D03*
X52400000Y-76340000D03*
X52400000Y-75540000D03*
X52400000Y-74740000D03*
X52400000Y-73940000D03*
X52400000Y-73140000D03*
D12*
X53500000Y-72240000D03*
X54300000Y-72240000D03*
X55100000Y-72240000D03*
X55900000Y-72240000D03*
X56700000Y-72240000D03*
X57500000Y-72240000D03*
X58300000Y-72240000D03*
X59100000Y-72240000D03*
X59900000Y-72240000D03*
X60700000Y-72240000D03*
X61500000Y-72240000D03*
X62300000Y-72240000D03*
X63100000Y-72240000D03*
D13*
X58300000Y-79115000D03*
X58300000Y-77140000D03*
X56325000Y-79115000D03*
X60275000Y-77140000D03*
D14*
X60275000Y-75165000D03*
D13*
X56325000Y-75165000D03*
X60275000Y-79115000D03*
X58300000Y-75165000D03*
X56325000Y-77140000D03*
D15*
X52350000Y-72190000D03*
X52350000Y-82090000D03*
X64250000Y-82090000D03*
X64250000Y-72190000D03*
G04 #@! TD*
D11*
G04 #@! TO.C,U2*
X30600000Y-42140000D03*
X30600000Y-42940000D03*
X30600000Y-43740000D03*
X30600000Y-44540000D03*
X30600000Y-45340000D03*
X30600000Y-46140000D03*
X30600000Y-46940000D03*
X30600000Y-47740000D03*
X30600000Y-48540000D03*
X30600000Y-49340000D03*
X30600000Y-50140000D03*
D12*
X29500000Y-51040000D03*
X28700000Y-51040000D03*
X27900000Y-51040000D03*
X27100000Y-51040000D03*
X26300000Y-51040000D03*
X25500000Y-51040000D03*
X24700000Y-51040000D03*
X23900000Y-51040000D03*
X23100000Y-51040000D03*
X22300000Y-51040000D03*
X21500000Y-51040000D03*
X20700000Y-51040000D03*
X19900000Y-51040000D03*
D11*
X18800000Y-50140000D03*
X18800000Y-49340000D03*
X18800000Y-48540000D03*
X18800000Y-47740000D03*
X18800000Y-46940000D03*
X18800000Y-46140000D03*
X18800000Y-45340000D03*
X18800000Y-44540000D03*
X18800000Y-43740000D03*
X18800000Y-42940000D03*
X18800000Y-42140000D03*
D12*
X19900000Y-41240000D03*
X20700000Y-41240000D03*
X21500000Y-41240000D03*
X22300000Y-41240000D03*
X23100000Y-41240000D03*
X23900000Y-41240000D03*
X24700000Y-41240000D03*
X25500000Y-41240000D03*
X26300000Y-41240000D03*
X27100000Y-41240000D03*
X27900000Y-41240000D03*
X28700000Y-41240000D03*
X29500000Y-41240000D03*
D13*
X24700000Y-48115000D03*
X24700000Y-46140000D03*
X26675000Y-46140000D03*
X22725000Y-44165000D03*
D14*
X26675000Y-44165000D03*
D13*
X22725000Y-46140000D03*
X26675000Y-48115000D03*
X22725000Y-48115000D03*
X24700000Y-44165000D03*
D15*
X18750000Y-41190000D03*
X18750000Y-51090000D03*
X30650000Y-51090000D03*
X30650000Y-41190000D03*
G04 #@! TD*
D11*
G04 #@! TO.C,U2*
X97800000Y-11140000D03*
X97800000Y-11940000D03*
X97800000Y-12740000D03*
X97800000Y-13540000D03*
X97800000Y-14340000D03*
X97800000Y-15140000D03*
X97800000Y-15940000D03*
X97800000Y-16740000D03*
X97800000Y-17540000D03*
X97800000Y-18340000D03*
X97800000Y-19140000D03*
D12*
X96700000Y-20040000D03*
X95900000Y-20040000D03*
X95100000Y-20040000D03*
X94300000Y-20040000D03*
X93500000Y-20040000D03*
X92700000Y-20040000D03*
X91900000Y-20040000D03*
X91100000Y-20040000D03*
X90300000Y-20040000D03*
X89500000Y-20040000D03*
X88700000Y-20040000D03*
X87900000Y-20040000D03*
X87100000Y-20040000D03*
D11*
X86000000Y-19140000D03*
X86000000Y-18340000D03*
X86000000Y-17540000D03*
X86000000Y-16740000D03*
X86000000Y-15940000D03*
X86000000Y-15140000D03*
X86000000Y-14340000D03*
X86000000Y-13540000D03*
X86000000Y-12740000D03*
X86000000Y-11940000D03*
X86000000Y-11140000D03*
D12*
X87100000Y-10240000D03*
X87900000Y-10240000D03*
X88700000Y-10240000D03*
X89500000Y-10240000D03*
X90300000Y-10240000D03*
X91100000Y-10240000D03*
X91900000Y-10240000D03*
X92700000Y-10240000D03*
X93500000Y-10240000D03*
X94300000Y-10240000D03*
X95100000Y-10240000D03*
X95900000Y-10240000D03*
X96700000Y-10240000D03*
D14*
X93875000Y-13165000D03*
D13*
X91900000Y-15140000D03*
X89925000Y-17115000D03*
X89925000Y-15140000D03*
X93875000Y-15140000D03*
X89925000Y-13165000D03*
X91900000Y-17115000D03*
X93875000Y-17115000D03*
X91900000Y-13165000D03*
D15*
X85950000Y-10190000D03*
X85950000Y-20090000D03*
X97850000Y-20090000D03*
X97850000Y-10190000D03*
G04 #@! TD*
D11*
G04 #@! TO.C,U2*
X13800000Y-73140000D03*
X13800000Y-73940000D03*
X13800000Y-74740000D03*
X13800000Y-75540000D03*
X13800000Y-76340000D03*
X13800000Y-77140000D03*
X13800000Y-77940000D03*
X13800000Y-78740000D03*
X13800000Y-79540000D03*
X13800000Y-80340000D03*
X13800000Y-81140000D03*
D12*
X12700000Y-82040000D03*
X11900000Y-82040000D03*
X11100000Y-82040000D03*
X10300000Y-82040000D03*
X9500000Y-82040000D03*
X8700000Y-82040000D03*
X7900000Y-82040000D03*
X7100000Y-82040000D03*
X6300000Y-82040000D03*
X5500000Y-82040000D03*
X4700000Y-82040000D03*
X3900000Y-82040000D03*
X3100000Y-82040000D03*
D11*
X2000000Y-81140000D03*
X2000000Y-80340000D03*
X2000000Y-79540000D03*
X2000000Y-78740000D03*
X2000000Y-77940000D03*
X2000000Y-77140000D03*
X2000000Y-76340000D03*
X2000000Y-75540000D03*
X2000000Y-74740000D03*
X2000000Y-73940000D03*
X2000000Y-73140000D03*
D12*
X3100000Y-72240000D03*
X3900000Y-72240000D03*
X4700000Y-72240000D03*
X5500000Y-72240000D03*
X6300000Y-72240000D03*
X7100000Y-72240000D03*
X7900000Y-72240000D03*
X8700000Y-72240000D03*
X9500000Y-72240000D03*
X10300000Y-72240000D03*
X11100000Y-72240000D03*
X11900000Y-72240000D03*
X12700000Y-72240000D03*
D13*
X5925000Y-79115000D03*
D14*
X9875000Y-75165000D03*
D13*
X7900000Y-75165000D03*
X9875000Y-77140000D03*
X5925000Y-77140000D03*
X5925000Y-75165000D03*
X7900000Y-77140000D03*
X9875000Y-79115000D03*
X7900000Y-79115000D03*
D15*
X1950000Y-72190000D03*
X1950000Y-82090000D03*
X13850000Y-82090000D03*
X13850000Y-72190000D03*
G04 #@! TD*
D11*
G04 #@! TO.C,U2*
X30600000Y-11140000D03*
X30600000Y-11940000D03*
X30600000Y-12740000D03*
X30600000Y-13540000D03*
X30600000Y-14340000D03*
X30600000Y-15140000D03*
X30600000Y-15940000D03*
X30600000Y-16740000D03*
X30600000Y-17540000D03*
X30600000Y-18340000D03*
X30600000Y-19140000D03*
D12*
X29500000Y-20040000D03*
X28700000Y-20040000D03*
X27900000Y-20040000D03*
X27100000Y-20040000D03*
X26300000Y-20040000D03*
X25500000Y-20040000D03*
X24700000Y-20040000D03*
X23900000Y-20040000D03*
X23100000Y-20040000D03*
X22300000Y-20040000D03*
X21500000Y-20040000D03*
X20700000Y-20040000D03*
X19900000Y-20040000D03*
D11*
X18800000Y-19140000D03*
X18800000Y-18340000D03*
X18800000Y-17540000D03*
X18800000Y-16740000D03*
X18800000Y-15940000D03*
X18800000Y-15140000D03*
X18800000Y-14340000D03*
X18800000Y-13540000D03*
X18800000Y-12740000D03*
X18800000Y-11940000D03*
X18800000Y-11140000D03*
D12*
X19900000Y-10240000D03*
X20700000Y-10240000D03*
X21500000Y-10240000D03*
X22300000Y-10240000D03*
X23100000Y-10240000D03*
X23900000Y-10240000D03*
X24700000Y-10240000D03*
X25500000Y-10240000D03*
X26300000Y-10240000D03*
X27100000Y-10240000D03*
X27900000Y-10240000D03*
X28700000Y-10240000D03*
X29500000Y-10240000D03*
D13*
X24700000Y-17115000D03*
X22725000Y-15140000D03*
X24700000Y-13165000D03*
X26675000Y-15140000D03*
X26675000Y-17115000D03*
X22725000Y-13165000D03*
X22725000Y-17115000D03*
D14*
X26675000Y-13165000D03*
D13*
X24700000Y-15140000D03*
D15*
X18750000Y-10190000D03*
X18750000Y-20090000D03*
X30650000Y-20090000D03*
X30650000Y-10190000D03*
G04 #@! TD*
M02*
