M48
; DRILL file {KiCad 6.0.11-2627ca5db0~126~ubuntu22.04.1} date Mon Apr  3 23:49:23 2023
; FORMAT={-:-/ absolute / metric / decimal}
; #@! TF.CreationDate,2023-04-03T23:49:23+02:00
; #@! TF.GenerationSoftware,Kicad,Pcbnew,6.0.11-2627ca5db0~126~ubuntu22.04.1
; #@! TF.FileFunction,MixedPlating,1,2
FMAT,2
METRIC
; #@! TA.AperFunction,Plated,PTH,ViaDrill
T1C0.300
; #@! TA.AperFunction,NonPlated,NPTH,ComponentDrill
T2C1.500
%
G90
G05
T1
X2.56Y-25.09
X2.56Y-26.09
X2.56Y-27.09
X2.56Y-28.09
X2.56Y-29.09
X2.56Y-30.09
X2.56Y-56.09
X2.56Y-57.09
X2.56Y-58.09
X2.56Y-59.09
X2.56Y-60.09
X2.56Y-61.09
X2.56Y-87.09
X2.56Y-88.09
X2.56Y-89.09
X2.56Y-90.09
X2.56Y-91.09
X2.56Y-92.09
X4.2Y-22.225
X4.2Y-53.225
X4.2Y-84.225
X4.41Y-23.4
X4.41Y-54.4
X4.41Y-85.4
X4.7Y-11.58
X4.7Y-42.58
X4.7Y-73.58
X5.41Y-23.4
X5.41Y-54.4
X5.41Y-85.4
X5.7Y-11.58
X5.7Y-42.58
X5.7Y-73.58
X5.902Y-20.899
X5.902Y-51.899
X5.902Y-82.899
X6.41Y-23.4
X6.41Y-54.4
X6.41Y-85.4
X6.599Y-24.707
X6.599Y-55.707
X6.599Y-86.707
X6.7Y-11.58
X6.7Y-20.9
X6.7Y-42.58
X6.7Y-51.9
X6.7Y-73.58
X6.7Y-82.9
X6.91Y-19.059
X6.91Y-50.059
X6.91Y-81.059
X7.41Y-23.4
X7.41Y-54.4
X7.41Y-85.4
X7.7Y-11.58
X7.7Y-42.58
X7.7Y-73.58
X8.41Y-23.4
X8.41Y-54.4
X8.41Y-85.4
X8.66Y-18.89
X8.66Y-49.89
X8.66Y-80.89
X8.7Y-11.58
X8.7Y-42.58
X8.7Y-73.58
X9.2Y-24.71
X9.2Y-55.71
X9.2Y-86.71
X9.41Y-23.4
X9.41Y-54.4
X9.41Y-85.4
X9.7Y-11.58
X9.7Y-42.58
X9.7Y-73.58
X9.9Y-18.41
X9.9Y-19.12
X9.9Y-49.41
X9.9Y-50.12
X9.9Y-80.41
X9.9Y-81.12
X10.7Y-11.58
X10.7Y-42.58
X10.7Y-73.58
X10.9Y-18.41
X10.9Y-19.12
X10.9Y-49.41
X10.9Y-50.12
X10.9Y-80.41
X10.9Y-81.12
X11.7Y-11.58
X11.7Y-42.58
X11.7Y-73.58
X11.9Y-18.41
X11.9Y-19.12
X11.9Y-49.41
X11.9Y-50.12
X11.9Y-80.41
X11.9Y-81.12
X12.02Y-13.39
X12.02Y-44.39
X12.02Y-75.39
X13.25Y-25.1
X13.25Y-26.1
X13.25Y-27.1
X13.25Y-28.1
X13.25Y-29.1
X13.25Y-30.1
X13.25Y-56.1
X13.25Y-57.1
X13.25Y-58.1
X13.25Y-59.1
X13.25Y-60.1
X13.25Y-61.1
X13.25Y-87.1
X13.25Y-88.1
X13.25Y-89.1
X13.25Y-90.1
X13.25Y-91.1
X13.25Y-92.1
X14.75Y-16.105
X14.75Y-47.105
X14.75Y-78.105
X14.95Y-12.74
X14.95Y-43.74
X14.95Y-74.74
X14.98Y-14.32
X14.98Y-45.32
X14.98Y-76.32
X19.36Y-25.09
X19.36Y-26.09
X19.36Y-27.09
X19.36Y-28.09
X19.36Y-29.09
X19.36Y-30.09
X19.36Y-56.09
X19.36Y-57.09
X19.36Y-58.09
X19.36Y-59.09
X19.36Y-60.09
X19.36Y-61.09
X19.36Y-87.09
X19.36Y-88.09
X19.36Y-89.09
X19.36Y-90.09
X19.36Y-91.09
X19.36Y-92.09
X21.0Y-22.225
X21.0Y-53.225
X21.0Y-84.225
X21.21Y-23.4
X21.21Y-54.4
X21.21Y-85.4
X21.5Y-11.58
X21.5Y-42.58
X21.5Y-73.58
X22.21Y-23.4
X22.21Y-54.4
X22.21Y-85.4
X22.5Y-11.58
X22.5Y-42.58
X22.5Y-73.58
X22.702Y-20.899
X22.702Y-51.899
X22.702Y-82.899
X23.21Y-23.4
X23.21Y-54.4
X23.21Y-85.4
X23.399Y-24.707
X23.399Y-55.707
X23.399Y-86.707
X23.5Y-11.58
X23.5Y-20.9
X23.5Y-42.58
X23.5Y-51.9
X23.5Y-73.58
X23.5Y-82.9
X23.71Y-19.059
X23.71Y-50.059
X23.71Y-81.059
X24.21Y-23.4
X24.21Y-54.4
X24.21Y-85.4
X24.5Y-11.58
X24.5Y-42.58
X24.5Y-73.58
X25.21Y-23.4
X25.21Y-54.4
X25.21Y-85.4
X25.46Y-18.89
X25.46Y-49.89
X25.46Y-80.89
X25.5Y-11.58
X25.5Y-42.58
X25.5Y-73.58
X26.0Y-24.71
X26.0Y-55.71
X26.0Y-86.71
X26.21Y-23.4
X26.21Y-54.4
X26.21Y-85.4
X26.5Y-11.58
X26.5Y-42.58
X26.5Y-73.58
X26.7Y-18.41
X26.7Y-19.12
X26.7Y-49.41
X26.7Y-50.12
X26.7Y-80.41
X26.7Y-81.12
X27.5Y-11.58
X27.5Y-42.58
X27.5Y-73.58
X27.7Y-18.41
X27.7Y-19.12
X27.7Y-49.41
X27.7Y-50.12
X27.7Y-80.41
X27.7Y-81.12
X28.5Y-11.58
X28.5Y-42.58
X28.5Y-73.58
X28.7Y-18.41
X28.7Y-19.12
X28.7Y-49.41
X28.7Y-50.12
X28.7Y-80.41
X28.7Y-81.12
X28.82Y-13.39
X28.82Y-44.39
X28.82Y-75.39
X30.05Y-25.1
X30.05Y-26.1
X30.05Y-27.1
X30.05Y-28.1
X30.05Y-29.1
X30.05Y-30.1
X30.05Y-56.1
X30.05Y-57.1
X30.05Y-58.1
X30.05Y-59.1
X30.05Y-60.1
X30.05Y-61.1
X30.05Y-87.1
X30.05Y-88.1
X30.05Y-89.1
X30.05Y-90.1
X30.05Y-91.1
X30.05Y-92.1
X31.55Y-16.105
X31.55Y-47.105
X31.55Y-78.105
X31.75Y-12.74
X31.75Y-43.74
X31.75Y-74.74
X31.78Y-14.32
X31.78Y-45.32
X31.78Y-76.32
X36.16Y-25.09
X36.16Y-26.09
X36.16Y-27.09
X36.16Y-28.09
X36.16Y-29.09
X36.16Y-30.09
X36.16Y-56.09
X36.16Y-57.09
X36.16Y-58.09
X36.16Y-59.09
X36.16Y-60.09
X36.16Y-61.09
X36.16Y-87.09
X36.16Y-88.09
X36.16Y-89.09
X36.16Y-90.09
X36.16Y-91.09
X36.16Y-92.09
X37.8Y-22.225
X37.8Y-53.225
X37.8Y-84.225
X38.01Y-23.4
X38.01Y-54.4
X38.01Y-85.4
X38.3Y-11.58
X38.3Y-42.58
X38.3Y-73.58
X39.01Y-23.4
X39.01Y-54.4
X39.01Y-85.4
X39.3Y-11.58
X39.3Y-42.58
X39.3Y-73.58
X39.502Y-20.899
X39.502Y-51.899
X39.502Y-82.899
X40.01Y-23.4
X40.01Y-54.4
X40.01Y-85.4
X40.199Y-24.707
X40.199Y-55.707
X40.199Y-86.707
X40.3Y-11.58
X40.3Y-20.9
X40.3Y-42.58
X40.3Y-51.9
X40.3Y-73.58
X40.3Y-82.9
X40.51Y-19.059
X40.51Y-50.059
X40.51Y-81.059
X41.01Y-23.4
X41.01Y-54.4
X41.01Y-85.4
X41.3Y-11.58
X41.3Y-42.58
X41.3Y-73.58
X42.01Y-23.4
X42.01Y-54.4
X42.01Y-85.4
X42.26Y-18.89
X42.26Y-49.89
X42.26Y-80.89
X42.3Y-11.58
X42.3Y-42.58
X42.3Y-73.58
X42.8Y-24.71
X42.8Y-55.71
X42.8Y-86.71
X43.01Y-23.4
X43.01Y-54.4
X43.01Y-85.4
X43.3Y-11.58
X43.3Y-42.58
X43.3Y-73.58
X43.5Y-18.41
X43.5Y-19.12
X43.5Y-49.41
X43.5Y-50.12
X43.5Y-80.41
X43.5Y-81.12
X44.3Y-11.58
X44.3Y-42.58
X44.3Y-73.58
X44.5Y-18.41
X44.5Y-19.12
X44.5Y-49.41
X44.5Y-50.12
X44.5Y-80.41
X44.5Y-81.12
X45.3Y-11.58
X45.3Y-42.58
X45.3Y-73.58
X45.5Y-18.41
X45.5Y-19.12
X45.5Y-49.41
X45.5Y-50.12
X45.5Y-80.41
X45.5Y-81.12
X45.62Y-13.39
X45.62Y-44.39
X45.62Y-75.39
X46.85Y-25.1
X46.85Y-26.1
X46.85Y-27.1
X46.85Y-28.1
X46.85Y-29.1
X46.85Y-30.1
X46.85Y-56.1
X46.85Y-57.1
X46.85Y-58.1
X46.85Y-59.1
X46.85Y-60.1
X46.85Y-61.1
X46.85Y-87.1
X46.85Y-88.1
X46.85Y-89.1
X46.85Y-90.1
X46.85Y-91.1
X46.85Y-92.1
X48.35Y-16.105
X48.35Y-47.105
X48.35Y-78.105
X48.55Y-12.74
X48.55Y-43.74
X48.55Y-74.74
X48.58Y-14.32
X48.58Y-45.32
X48.58Y-76.32
X52.96Y-25.09
X52.96Y-26.09
X52.96Y-27.09
X52.96Y-28.09
X52.96Y-29.09
X52.96Y-30.09
X52.96Y-56.09
X52.96Y-57.09
X52.96Y-58.09
X52.96Y-59.09
X52.96Y-60.09
X52.96Y-61.09
X52.96Y-87.09
X52.96Y-88.09
X52.96Y-89.09
X52.96Y-90.09
X52.96Y-91.09
X52.96Y-92.09
X54.6Y-22.225
X54.6Y-53.225
X54.6Y-84.225
X54.81Y-23.4
X54.81Y-54.4
X54.81Y-85.4
X55.1Y-11.58
X55.1Y-42.58
X55.1Y-73.58
X55.81Y-23.4
X55.81Y-54.4
X55.81Y-85.4
X56.1Y-11.58
X56.1Y-42.58
X56.1Y-73.58
X56.302Y-20.899
X56.302Y-51.899
X56.302Y-82.899
X56.81Y-23.4
X56.81Y-54.4
X56.81Y-85.4
X56.999Y-24.707
X56.999Y-55.707
X56.999Y-86.707
X57.1Y-11.58
X57.1Y-20.9
X57.1Y-42.58
X57.1Y-51.9
X57.1Y-73.58
X57.1Y-82.9
X57.31Y-19.059
X57.31Y-50.059
X57.31Y-81.059
X57.81Y-23.4
X57.81Y-54.4
X57.81Y-85.4
X58.1Y-11.58
X58.1Y-42.58
X58.1Y-73.58
X58.81Y-23.4
X58.81Y-54.4
X58.81Y-85.4
X59.06Y-18.89
X59.06Y-49.89
X59.06Y-80.89
X59.1Y-11.58
X59.1Y-42.58
X59.1Y-73.58
X59.6Y-24.71
X59.6Y-55.71
X59.6Y-86.71
X59.81Y-23.4
X59.81Y-54.4
X59.81Y-85.4
X60.1Y-11.58
X60.1Y-42.58
X60.1Y-73.58
X60.3Y-18.41
X60.3Y-19.12
X60.3Y-49.41
X60.3Y-50.12
X60.3Y-80.41
X60.3Y-81.12
X61.1Y-11.58
X61.1Y-42.58
X61.1Y-73.58
X61.3Y-18.41
X61.3Y-19.12
X61.3Y-49.41
X61.3Y-50.12
X61.3Y-80.41
X61.3Y-81.12
X62.1Y-11.58
X62.1Y-42.58
X62.1Y-73.58
X62.3Y-18.41
X62.3Y-19.12
X62.3Y-49.41
X62.3Y-50.12
X62.3Y-80.41
X62.3Y-81.12
X62.42Y-13.39
X62.42Y-44.39
X62.42Y-75.39
X63.65Y-25.1
X63.65Y-26.1
X63.65Y-27.1
X63.65Y-28.1
X63.65Y-29.1
X63.65Y-30.1
X63.65Y-56.1
X63.65Y-57.1
X63.65Y-58.1
X63.65Y-59.1
X63.65Y-60.1
X63.65Y-61.1
X63.65Y-87.1
X63.65Y-88.1
X63.65Y-89.1
X63.65Y-90.1
X63.65Y-91.1
X63.65Y-92.1
X65.15Y-16.105
X65.15Y-47.105
X65.15Y-78.105
X65.35Y-12.74
X65.35Y-43.74
X65.35Y-74.74
X65.38Y-14.32
X65.38Y-45.32
X65.38Y-76.32
X69.76Y-25.09
X69.76Y-26.09
X69.76Y-27.09
X69.76Y-28.09
X69.76Y-29.09
X69.76Y-30.09
X69.76Y-56.09
X69.76Y-57.09
X69.76Y-58.09
X69.76Y-59.09
X69.76Y-60.09
X69.76Y-61.09
X69.76Y-87.09
X69.76Y-88.09
X69.76Y-89.09
X69.76Y-90.09
X69.76Y-91.09
X69.76Y-92.09
X71.4Y-22.225
X71.4Y-53.225
X71.4Y-84.225
X71.61Y-23.4
X71.61Y-54.4
X71.61Y-85.4
X71.9Y-11.58
X71.9Y-42.58
X71.9Y-73.58
X72.61Y-23.4
X72.61Y-54.4
X72.61Y-85.4
X72.9Y-11.58
X72.9Y-42.58
X72.9Y-73.58
X73.102Y-20.899
X73.102Y-51.899
X73.102Y-82.899
X73.61Y-23.4
X73.61Y-54.4
X73.61Y-85.4
X73.799Y-24.707
X73.799Y-55.707
X73.799Y-86.707
X73.9Y-11.58
X73.9Y-20.9
X73.9Y-42.58
X73.9Y-51.9
X73.9Y-73.58
X73.9Y-82.9
X74.11Y-19.059
X74.11Y-50.059
X74.11Y-81.059
X74.61Y-23.4
X74.61Y-54.4
X74.61Y-85.4
X74.9Y-11.58
X74.9Y-42.58
X74.9Y-73.58
X75.61Y-23.4
X75.61Y-54.4
X75.61Y-85.4
X75.86Y-18.89
X75.86Y-49.89
X75.86Y-80.89
X75.9Y-11.58
X75.9Y-42.58
X75.9Y-73.58
X76.4Y-24.71
X76.4Y-55.71
X76.4Y-86.71
X76.61Y-23.4
X76.61Y-54.4
X76.61Y-85.4
X76.9Y-11.58
X76.9Y-42.58
X76.9Y-73.58
X77.1Y-18.41
X77.1Y-19.12
X77.1Y-49.41
X77.1Y-50.12
X77.1Y-80.41
X77.1Y-81.12
X77.9Y-11.58
X77.9Y-42.58
X77.9Y-73.58
X78.1Y-18.41
X78.1Y-19.12
X78.1Y-49.41
X78.1Y-50.12
X78.1Y-80.41
X78.1Y-81.12
X78.9Y-11.58
X78.9Y-42.58
X78.9Y-73.58
X79.1Y-18.41
X79.1Y-19.12
X79.1Y-49.41
X79.1Y-50.12
X79.1Y-80.41
X79.1Y-81.12
X79.22Y-13.39
X79.22Y-44.39
X79.22Y-75.39
X80.45Y-25.1
X80.45Y-26.1
X80.45Y-27.1
X80.45Y-28.1
X80.45Y-29.1
X80.45Y-30.1
X80.45Y-56.1
X80.45Y-57.1
X80.45Y-58.1
X80.45Y-59.1
X80.45Y-60.1
X80.45Y-61.1
X80.45Y-87.1
X80.45Y-88.1
X80.45Y-89.1
X80.45Y-90.1
X80.45Y-91.1
X80.45Y-92.1
X81.95Y-16.105
X81.95Y-47.105
X81.95Y-78.105
X82.15Y-12.74
X82.15Y-43.74
X82.15Y-74.74
X82.18Y-14.32
X82.18Y-45.32
X82.18Y-76.32
X86.56Y-25.09
X86.56Y-26.09
X86.56Y-27.09
X86.56Y-28.09
X86.56Y-29.09
X86.56Y-30.09
X86.56Y-56.09
X86.56Y-57.09
X86.56Y-58.09
X86.56Y-59.09
X86.56Y-60.09
X86.56Y-61.09
X86.56Y-87.09
X86.56Y-88.09
X86.56Y-89.09
X86.56Y-90.09
X86.56Y-91.09
X86.56Y-92.09
X88.2Y-22.225
X88.2Y-53.225
X88.2Y-84.225
X88.41Y-23.4
X88.41Y-54.4
X88.41Y-85.4
X88.7Y-11.58
X88.7Y-42.58
X88.7Y-73.58
X89.41Y-23.4
X89.41Y-54.4
X89.41Y-85.4
X89.7Y-11.58
X89.7Y-42.58
X89.7Y-73.58
X89.902Y-20.899
X89.902Y-51.899
X89.902Y-82.899
X90.41Y-23.4
X90.41Y-54.4
X90.41Y-85.4
X90.599Y-24.707
X90.599Y-55.707
X90.599Y-86.707
X90.7Y-11.58
X90.7Y-20.9
X90.7Y-42.58
X90.7Y-51.9
X90.7Y-73.58
X90.7Y-82.9
X90.91Y-19.059
X90.91Y-50.059
X90.91Y-81.059
X91.41Y-23.4
X91.41Y-54.4
X91.41Y-85.4
X91.7Y-11.58
X91.7Y-42.58
X91.7Y-73.58
X92.41Y-23.4
X92.41Y-54.4
X92.41Y-85.4
X92.66Y-18.89
X92.66Y-49.89
X92.66Y-80.89
X92.7Y-11.58
X92.7Y-42.58
X92.7Y-73.58
X93.2Y-24.71
X93.2Y-55.71
X93.2Y-86.71
X93.41Y-23.4
X93.41Y-54.4
X93.41Y-85.4
X93.7Y-11.58
X93.7Y-42.58
X93.7Y-73.58
X93.9Y-18.41
X93.9Y-19.12
X93.9Y-49.41
X93.9Y-50.12
X93.9Y-80.41
X93.9Y-81.12
X94.7Y-11.58
X94.7Y-42.58
X94.7Y-73.58
X94.9Y-18.41
X94.9Y-19.12
X94.9Y-49.41
X94.9Y-50.12
X94.9Y-80.41
X94.9Y-81.12
X95.7Y-11.58
X95.7Y-42.58
X95.7Y-73.58
X95.9Y-18.41
X95.9Y-19.12
X95.9Y-49.41
X95.9Y-50.12
X95.9Y-80.41
X95.9Y-81.12
X96.02Y-13.39
X96.02Y-44.39
X96.02Y-75.39
X97.25Y-25.1
X97.25Y-26.1
X97.25Y-27.1
X97.25Y-28.1
X97.25Y-29.1
X97.25Y-30.1
X97.25Y-56.1
X97.25Y-57.1
X97.25Y-58.1
X97.25Y-59.1
X97.25Y-60.1
X97.25Y-61.1
X97.25Y-87.1
X97.25Y-88.1
X97.25Y-89.1
X97.25Y-90.1
X97.25Y-91.1
X97.25Y-92.1
X98.75Y-16.105
X98.75Y-47.105
X98.75Y-78.105
X98.95Y-12.74
X98.95Y-43.74
X98.95Y-74.74
X98.98Y-14.32
X98.98Y-45.32
X98.98Y-76.32
T2
X2.5Y-1.5
X2.5Y-98.5
X97.3Y-1.5
T0
M30
