G04 #@! TF.GenerationSoftware,KiCad,Pcbnew,6.0.11-2627ca5db0~126~ubuntu22.04.1*
G04 #@! TF.CreationDate,2023-04-03T23:49:23+02:00*
G04 #@! TF.ProjectId,panel,70616e65-6c2e-46b6-9963-61645f706362,rev?*
G04 #@! TF.SameCoordinates,Original*
G04 #@! TF.FileFunction,Legend,Bot*
G04 #@! TF.FilePolarity,Positive*
%FSLAX46Y46*%
G04 Gerber Fmt 4.6, Leading zero omitted, Abs format (unit mm)*
G04 Created by KiCad (PCBNEW 6.0.11-2627ca5db0~126~ubuntu22.04.1) date 2023-04-03 23:49:23*
%MOMM*%
%LPD*%
G01*
G04 APERTURE LIST*
%ADD10C,0.150000*%
%ADD11C,0.120000*%
G04 APERTURE END LIST*
D10*
G04 #@! TO.C,U2*
X75861904Y12620D02*
X75861904Y-796904D01*
X75814285Y-892142D01*
X75766666Y-939761D01*
X75671428Y-987380D01*
X75480952Y-987380D01*
X75385714Y-939761D01*
X75338095Y-892142D01*
X75290476Y-796904D01*
X75290476Y12620D01*
X74861904Y-82619D02*
X74814285Y-35000D01*
X74719047Y12620D01*
X74480952Y12620D01*
X74385714Y-35000D01*
X74338095Y-82619D01*
X74290476Y-177857D01*
X74290476Y-273095D01*
X74338095Y-415952D01*
X74909523Y-987380D01*
X74290476Y-987380D01*
X8661904Y12620D02*
X8661904Y-796904D01*
X8614285Y-892142D01*
X8566666Y-939761D01*
X8471428Y-987380D01*
X8280952Y-987380D01*
X8185714Y-939761D01*
X8138095Y-892142D01*
X8090476Y-796904D01*
X8090476Y12620D01*
X7661904Y-82619D02*
X7614285Y-35000D01*
X7519047Y12620D01*
X7280952Y12620D01*
X7185714Y-35000D01*
X7138095Y-82619D01*
X7090476Y-177857D01*
X7090476Y-273095D01*
X7138095Y-415952D01*
X7709523Y-987380D01*
X7090476Y-987380D01*
X75861904Y-61987380D02*
X75861904Y-62796904D01*
X75814285Y-62892142D01*
X75766666Y-62939761D01*
X75671428Y-62987380D01*
X75480952Y-62987380D01*
X75385714Y-62939761D01*
X75338095Y-62892142D01*
X75290476Y-62796904D01*
X75290476Y-61987380D01*
X74861904Y-62082619D02*
X74814285Y-62035000D01*
X74719047Y-61987380D01*
X74480952Y-61987380D01*
X74385714Y-62035000D01*
X74338095Y-62082619D01*
X74290476Y-62177857D01*
X74290476Y-62273095D01*
X74338095Y-62415952D01*
X74909523Y-62987380D01*
X74290476Y-62987380D01*
X42261904Y-61987380D02*
X42261904Y-62796904D01*
X42214285Y-62892142D01*
X42166666Y-62939761D01*
X42071428Y-62987380D01*
X41880952Y-62987380D01*
X41785714Y-62939761D01*
X41738095Y-62892142D01*
X41690476Y-62796904D01*
X41690476Y-61987380D01*
X41261904Y-62082619D02*
X41214285Y-62035000D01*
X41119047Y-61987380D01*
X40880952Y-61987380D01*
X40785714Y-62035000D01*
X40738095Y-62082619D01*
X40690476Y-62177857D01*
X40690476Y-62273095D01*
X40738095Y-62415952D01*
X41309523Y-62987380D01*
X40690476Y-62987380D01*
X59061904Y-30987380D02*
X59061904Y-31796904D01*
X59014285Y-31892142D01*
X58966666Y-31939761D01*
X58871428Y-31987380D01*
X58680952Y-31987380D01*
X58585714Y-31939761D01*
X58538095Y-31892142D01*
X58490476Y-31796904D01*
X58490476Y-30987380D01*
X58061904Y-31082619D02*
X58014285Y-31035000D01*
X57919047Y-30987380D01*
X57680952Y-30987380D01*
X57585714Y-31035000D01*
X57538095Y-31082619D01*
X57490476Y-31177857D01*
X57490476Y-31273095D01*
X57538095Y-31415952D01*
X58109523Y-31987380D01*
X57490476Y-31987380D01*
X92661904Y-61987380D02*
X92661904Y-62796904D01*
X92614285Y-62892142D01*
X92566666Y-62939761D01*
X92471428Y-62987380D01*
X92280952Y-62987380D01*
X92185714Y-62939761D01*
X92138095Y-62892142D01*
X92090476Y-62796904D01*
X92090476Y-61987380D01*
X91661904Y-62082619D02*
X91614285Y-62035000D01*
X91519047Y-61987380D01*
X91280952Y-61987380D01*
X91185714Y-62035000D01*
X91138095Y-62082619D01*
X91090476Y-62177857D01*
X91090476Y-62273095D01*
X91138095Y-62415952D01*
X91709523Y-62987380D01*
X91090476Y-62987380D01*
X42261904Y-30987380D02*
X42261904Y-31796904D01*
X42214285Y-31892142D01*
X42166666Y-31939761D01*
X42071428Y-31987380D01*
X41880952Y-31987380D01*
X41785714Y-31939761D01*
X41738095Y-31892142D01*
X41690476Y-31796904D01*
X41690476Y-30987380D01*
X41261904Y-31082619D02*
X41214285Y-31035000D01*
X41119047Y-30987380D01*
X40880952Y-30987380D01*
X40785714Y-31035000D01*
X40738095Y-31082619D01*
X40690476Y-31177857D01*
X40690476Y-31273095D01*
X40738095Y-31415952D01*
X41309523Y-31987380D01*
X40690476Y-31987380D01*
X42261904Y12620D02*
X42261904Y-796904D01*
X42214285Y-892142D01*
X42166666Y-939761D01*
X42071428Y-987380D01*
X41880952Y-987380D01*
X41785714Y-939761D01*
X41738095Y-892142D01*
X41690476Y-796904D01*
X41690476Y12620D01*
X41261904Y-82619D02*
X41214285Y-35000D01*
X41119047Y12620D01*
X40880952Y12620D01*
X40785714Y-35000D01*
X40738095Y-82619D01*
X40690476Y-177857D01*
X40690476Y-273095D01*
X40738095Y-415952D01*
X41309523Y-987380D01*
X40690476Y-987380D01*
X59061904Y12620D02*
X59061904Y-796904D01*
X59014285Y-892142D01*
X58966666Y-939761D01*
X58871428Y-987380D01*
X58680952Y-987380D01*
X58585714Y-939761D01*
X58538095Y-892142D01*
X58490476Y-796904D01*
X58490476Y12620D01*
X58061904Y-82619D02*
X58014285Y-35000D01*
X57919047Y12620D01*
X57680952Y12620D01*
X57585714Y-35000D01*
X57538095Y-82619D01*
X57490476Y-177857D01*
X57490476Y-273095D01*
X57538095Y-415952D01*
X58109523Y-987380D01*
X57490476Y-987380D01*
X75861904Y-30987380D02*
X75861904Y-31796904D01*
X75814285Y-31892142D01*
X75766666Y-31939761D01*
X75671428Y-31987380D01*
X75480952Y-31987380D01*
X75385714Y-31939761D01*
X75338095Y-31892142D01*
X75290476Y-31796904D01*
X75290476Y-30987380D01*
X74861904Y-31082619D02*
X74814285Y-31035000D01*
X74719047Y-30987380D01*
X74480952Y-30987380D01*
X74385714Y-31035000D01*
X74338095Y-31082619D01*
X74290476Y-31177857D01*
X74290476Y-31273095D01*
X74338095Y-31415952D01*
X74909523Y-31987380D01*
X74290476Y-31987380D01*
X92661904Y-30987380D02*
X92661904Y-31796904D01*
X92614285Y-31892142D01*
X92566666Y-31939761D01*
X92471428Y-31987380D01*
X92280952Y-31987380D01*
X92185714Y-31939761D01*
X92138095Y-31892142D01*
X92090476Y-31796904D01*
X92090476Y-30987380D01*
X91661904Y-31082619D02*
X91614285Y-31035000D01*
X91519047Y-30987380D01*
X91280952Y-30987380D01*
X91185714Y-31035000D01*
X91138095Y-31082619D01*
X91090476Y-31177857D01*
X91090476Y-31273095D01*
X91138095Y-31415952D01*
X91709523Y-31987380D01*
X91090476Y-31987380D01*
X25461904Y-61987380D02*
X25461904Y-62796904D01*
X25414285Y-62892142D01*
X25366666Y-62939761D01*
X25271428Y-62987380D01*
X25080952Y-62987380D01*
X24985714Y-62939761D01*
X24938095Y-62892142D01*
X24890476Y-62796904D01*
X24890476Y-61987380D01*
X24461904Y-62082619D02*
X24414285Y-62035000D01*
X24319047Y-61987380D01*
X24080952Y-61987380D01*
X23985714Y-62035000D01*
X23938095Y-62082619D01*
X23890476Y-62177857D01*
X23890476Y-62273095D01*
X23938095Y-62415952D01*
X24509523Y-62987380D01*
X23890476Y-62987380D01*
X8661904Y-30987380D02*
X8661904Y-31796904D01*
X8614285Y-31892142D01*
X8566666Y-31939761D01*
X8471428Y-31987380D01*
X8280952Y-31987380D01*
X8185714Y-31939761D01*
X8138095Y-31892142D01*
X8090476Y-31796904D01*
X8090476Y-30987380D01*
X7661904Y-31082619D02*
X7614285Y-31035000D01*
X7519047Y-30987380D01*
X7280952Y-30987380D01*
X7185714Y-31035000D01*
X7138095Y-31082619D01*
X7090476Y-31177857D01*
X7090476Y-31273095D01*
X7138095Y-31415952D01*
X7709523Y-31987380D01*
X7090476Y-31987380D01*
X59061904Y-61987380D02*
X59061904Y-62796904D01*
X59014285Y-62892142D01*
X58966666Y-62939761D01*
X58871428Y-62987380D01*
X58680952Y-62987380D01*
X58585714Y-62939761D01*
X58538095Y-62892142D01*
X58490476Y-62796904D01*
X58490476Y-61987380D01*
X58061904Y-62082619D02*
X58014285Y-62035000D01*
X57919047Y-61987380D01*
X57680952Y-61987380D01*
X57585714Y-62035000D01*
X57538095Y-62082619D01*
X57490476Y-62177857D01*
X57490476Y-62273095D01*
X57538095Y-62415952D01*
X58109523Y-62987380D01*
X57490476Y-62987380D01*
X25461904Y-30987380D02*
X25461904Y-31796904D01*
X25414285Y-31892142D01*
X25366666Y-31939761D01*
X25271428Y-31987380D01*
X25080952Y-31987380D01*
X24985714Y-31939761D01*
X24938095Y-31892142D01*
X24890476Y-31796904D01*
X24890476Y-30987380D01*
X24461904Y-31082619D02*
X24414285Y-31035000D01*
X24319047Y-30987380D01*
X24080952Y-30987380D01*
X23985714Y-31035000D01*
X23938095Y-31082619D01*
X23890476Y-31177857D01*
X23890476Y-31273095D01*
X23938095Y-31415952D01*
X24509523Y-31987380D01*
X23890476Y-31987380D01*
X92661904Y12620D02*
X92661904Y-796904D01*
X92614285Y-892142D01*
X92566666Y-939761D01*
X92471428Y-987380D01*
X92280952Y-987380D01*
X92185714Y-939761D01*
X92138095Y-892142D01*
X92090476Y-796904D01*
X92090476Y12620D01*
X91661904Y-82619D02*
X91614285Y-35000D01*
X91519047Y12620D01*
X91280952Y12620D01*
X91185714Y-35000D01*
X91138095Y-82619D01*
X91090476Y-177857D01*
X91090476Y-273095D01*
X91138095Y-415952D01*
X91709523Y-987380D01*
X91090476Y-987380D01*
X8661904Y-61987380D02*
X8661904Y-62796904D01*
X8614285Y-62892142D01*
X8566666Y-62939761D01*
X8471428Y-62987380D01*
X8280952Y-62987380D01*
X8185714Y-62939761D01*
X8138095Y-62892142D01*
X8090476Y-62796904D01*
X8090476Y-61987380D01*
X7661904Y-62082619D02*
X7614285Y-62035000D01*
X7519047Y-61987380D01*
X7280952Y-61987380D01*
X7185714Y-62035000D01*
X7138095Y-62082619D01*
X7090476Y-62177857D01*
X7090476Y-62273095D01*
X7138095Y-62415952D01*
X7709523Y-62987380D01*
X7090476Y-62987380D01*
X25461904Y12620D02*
X25461904Y-796904D01*
X25414285Y-892142D01*
X25366666Y-939761D01*
X25271428Y-987380D01*
X25080952Y-987380D01*
X24985714Y-939761D01*
X24938095Y-892142D01*
X24890476Y-796904D01*
X24890476Y12620D01*
X24461904Y-82619D02*
X24414285Y-35000D01*
X24319047Y12620D01*
X24080952Y12620D01*
X23985714Y-35000D01*
X23938095Y-82619D01*
X23890476Y-177857D01*
X23890476Y-273095D01*
X23938095Y-415952D01*
X24509523Y-987380D01*
X23890476Y-987380D01*
D11*
X69639000Y-4599000D02*
X73195000Y-4599000D01*
X71417000Y-9552000D02*
X71417000Y-4599000D01*
X77132000Y-4599000D02*
X77132000Y-6758000D01*
X69639000Y-9552000D02*
X69639000Y-4599000D01*
X81196000Y-4599000D02*
X81196000Y-9044000D01*
X75100000Y-4599000D02*
X77132000Y-4599000D01*
X79164000Y-4599000D02*
X81196000Y-4599000D01*
X75100000Y-6758000D02*
X75100000Y-4599000D01*
X79164000Y-6758000D02*
X79164000Y-4599000D01*
X77132000Y-6758000D02*
X79164000Y-6758000D01*
X73195000Y-6758000D02*
X75100000Y-6758000D01*
X73195000Y-4599000D02*
X73195000Y-6758000D01*
X81700000Y-9540000D02*
X68500000Y-9540000D01*
X68500000Y-9540000D02*
X68500000Y-4140000D01*
X68500000Y-4140000D02*
X81700000Y-4140000D01*
X81700000Y-4140000D02*
X81700000Y-9540000D01*
X81700000Y-9540000D02*
X68500000Y-9540000D01*
X68500000Y-9540000D02*
X68500000Y-20740000D01*
X68500000Y-20740000D02*
X81700000Y-20740000D01*
X81700000Y-20740000D02*
X81700000Y-9540000D01*
X7900000Y-6758000D02*
X7900000Y-4599000D01*
X9932000Y-4599000D02*
X9932000Y-6758000D01*
X13996000Y-4599000D02*
X13996000Y-9044000D01*
X7900000Y-4599000D02*
X9932000Y-4599000D01*
X4217000Y-9552000D02*
X4217000Y-4599000D01*
X5995000Y-6758000D02*
X7900000Y-6758000D01*
X9932000Y-6758000D02*
X11964000Y-6758000D01*
X5995000Y-4599000D02*
X5995000Y-6758000D01*
X2439000Y-9552000D02*
X2439000Y-4599000D01*
X11964000Y-4599000D02*
X13996000Y-4599000D01*
X2439000Y-4599000D02*
X5995000Y-4599000D01*
X11964000Y-6758000D02*
X11964000Y-4599000D01*
X14500000Y-9540000D02*
X1300000Y-9540000D01*
X1300000Y-9540000D02*
X1300000Y-4140000D01*
X1300000Y-4140000D02*
X14500000Y-4140000D01*
X14500000Y-4140000D02*
X14500000Y-9540000D01*
X14500000Y-9540000D02*
X1300000Y-9540000D01*
X1300000Y-9540000D02*
X1300000Y-20740000D01*
X1300000Y-20740000D02*
X14500000Y-20740000D01*
X14500000Y-20740000D02*
X14500000Y-9540000D01*
X69639000Y-71552000D02*
X69639000Y-66599000D01*
X73195000Y-66599000D02*
X73195000Y-68758000D01*
X81196000Y-66599000D02*
X81196000Y-71044000D01*
X77132000Y-68758000D02*
X79164000Y-68758000D01*
X79164000Y-68758000D02*
X79164000Y-66599000D01*
X73195000Y-68758000D02*
X75100000Y-68758000D01*
X75100000Y-68758000D02*
X75100000Y-66599000D01*
X71417000Y-71552000D02*
X71417000Y-66599000D01*
X77132000Y-66599000D02*
X77132000Y-68758000D01*
X69639000Y-66599000D02*
X73195000Y-66599000D01*
X79164000Y-66599000D02*
X81196000Y-66599000D01*
X75100000Y-66599000D02*
X77132000Y-66599000D01*
X81700000Y-71540000D02*
X68500000Y-71540000D01*
X68500000Y-71540000D02*
X68500000Y-66140000D01*
X68500000Y-66140000D02*
X81700000Y-66140000D01*
X81700000Y-66140000D02*
X81700000Y-71540000D01*
X81700000Y-71540000D02*
X68500000Y-71540000D01*
X68500000Y-71540000D02*
X68500000Y-82740000D01*
X68500000Y-82740000D02*
X81700000Y-82740000D01*
X81700000Y-82740000D02*
X81700000Y-71540000D01*
X36039000Y-71552000D02*
X36039000Y-66599000D01*
X47596000Y-66599000D02*
X47596000Y-71044000D01*
X43532000Y-68758000D02*
X45564000Y-68758000D01*
X43532000Y-66599000D02*
X43532000Y-68758000D01*
X37817000Y-71552000D02*
X37817000Y-66599000D01*
X36039000Y-66599000D02*
X39595000Y-66599000D01*
X39595000Y-68758000D02*
X41500000Y-68758000D01*
X39595000Y-66599000D02*
X39595000Y-68758000D01*
X41500000Y-66599000D02*
X43532000Y-66599000D01*
X41500000Y-68758000D02*
X41500000Y-66599000D01*
X45564000Y-66599000D02*
X47596000Y-66599000D01*
X45564000Y-68758000D02*
X45564000Y-66599000D01*
X48100000Y-71540000D02*
X34900000Y-71540000D01*
X34900000Y-71540000D02*
X34900000Y-82740000D01*
X34900000Y-82740000D02*
X48100000Y-82740000D01*
X48100000Y-82740000D02*
X48100000Y-71540000D01*
X48100000Y-71540000D02*
X34900000Y-71540000D01*
X34900000Y-71540000D02*
X34900000Y-66140000D01*
X34900000Y-66140000D02*
X48100000Y-66140000D01*
X48100000Y-66140000D02*
X48100000Y-71540000D01*
X56395000Y-37758000D02*
X58300000Y-37758000D01*
X64396000Y-35599000D02*
X64396000Y-40044000D01*
X52839000Y-35599000D02*
X56395000Y-35599000D01*
X60332000Y-35599000D02*
X60332000Y-37758000D01*
X58300000Y-37758000D02*
X58300000Y-35599000D01*
X62364000Y-37758000D02*
X62364000Y-35599000D01*
X56395000Y-35599000D02*
X56395000Y-37758000D01*
X60332000Y-37758000D02*
X62364000Y-37758000D01*
X54617000Y-40552000D02*
X54617000Y-35599000D01*
X58300000Y-35599000D02*
X60332000Y-35599000D01*
X52839000Y-40552000D02*
X52839000Y-35599000D01*
X62364000Y-35599000D02*
X64396000Y-35599000D01*
X64900000Y-40540000D02*
X51700000Y-40540000D01*
X51700000Y-40540000D02*
X51700000Y-51740000D01*
X51700000Y-51740000D02*
X64900000Y-51740000D01*
X64900000Y-51740000D02*
X64900000Y-40540000D01*
X64900000Y-40540000D02*
X51700000Y-40540000D01*
X51700000Y-40540000D02*
X51700000Y-35140000D01*
X51700000Y-35140000D02*
X64900000Y-35140000D01*
X64900000Y-35140000D02*
X64900000Y-40540000D01*
X95964000Y-68758000D02*
X95964000Y-66599000D01*
X93932000Y-68758000D02*
X95964000Y-68758000D01*
X95964000Y-66599000D02*
X97996000Y-66599000D01*
X91900000Y-66599000D02*
X93932000Y-66599000D01*
X97996000Y-66599000D02*
X97996000Y-71044000D01*
X86439000Y-71552000D02*
X86439000Y-66599000D01*
X91900000Y-68758000D02*
X91900000Y-66599000D01*
X88217000Y-71552000D02*
X88217000Y-66599000D01*
X86439000Y-66599000D02*
X89995000Y-66599000D01*
X93932000Y-66599000D02*
X93932000Y-68758000D01*
X89995000Y-66599000D02*
X89995000Y-68758000D01*
X89995000Y-68758000D02*
X91900000Y-68758000D01*
X98500000Y-71540000D02*
X85300000Y-71540000D01*
X85300000Y-71540000D02*
X85300000Y-82740000D01*
X85300000Y-82740000D02*
X98500000Y-82740000D01*
X98500000Y-82740000D02*
X98500000Y-71540000D01*
X98500000Y-71540000D02*
X85300000Y-71540000D01*
X85300000Y-71540000D02*
X85300000Y-66140000D01*
X85300000Y-66140000D02*
X98500000Y-66140000D01*
X98500000Y-66140000D02*
X98500000Y-71540000D01*
X45564000Y-37758000D02*
X45564000Y-35599000D01*
X41500000Y-35599000D02*
X43532000Y-35599000D01*
X39595000Y-37758000D02*
X41500000Y-37758000D01*
X45564000Y-35599000D02*
X47596000Y-35599000D01*
X36039000Y-35599000D02*
X39595000Y-35599000D01*
X39595000Y-35599000D02*
X39595000Y-37758000D01*
X47596000Y-35599000D02*
X47596000Y-40044000D01*
X43532000Y-35599000D02*
X43532000Y-37758000D01*
X36039000Y-40552000D02*
X36039000Y-35599000D01*
X43532000Y-37758000D02*
X45564000Y-37758000D01*
X37817000Y-40552000D02*
X37817000Y-35599000D01*
X41500000Y-37758000D02*
X41500000Y-35599000D01*
X48100000Y-40540000D02*
X34900000Y-40540000D01*
X34900000Y-40540000D02*
X34900000Y-35140000D01*
X34900000Y-35140000D02*
X48100000Y-35140000D01*
X48100000Y-35140000D02*
X48100000Y-40540000D01*
X48100000Y-40540000D02*
X34900000Y-40540000D01*
X34900000Y-40540000D02*
X34900000Y-51740000D01*
X34900000Y-51740000D02*
X48100000Y-51740000D01*
X48100000Y-51740000D02*
X48100000Y-40540000D01*
X41500000Y-6758000D02*
X41500000Y-4599000D01*
X47596000Y-4599000D02*
X47596000Y-9044000D01*
X39595000Y-6758000D02*
X41500000Y-6758000D01*
X43532000Y-4599000D02*
X43532000Y-6758000D01*
X36039000Y-9552000D02*
X36039000Y-4599000D01*
X43532000Y-6758000D02*
X45564000Y-6758000D01*
X37817000Y-9552000D02*
X37817000Y-4599000D01*
X39595000Y-4599000D02*
X39595000Y-6758000D01*
X45564000Y-4599000D02*
X47596000Y-4599000D01*
X45564000Y-6758000D02*
X45564000Y-4599000D01*
X41500000Y-4599000D02*
X43532000Y-4599000D01*
X36039000Y-4599000D02*
X39595000Y-4599000D01*
X48100000Y-9540000D02*
X34900000Y-9540000D01*
X34900000Y-9540000D02*
X34900000Y-4140000D01*
X34900000Y-4140000D02*
X48100000Y-4140000D01*
X48100000Y-4140000D02*
X48100000Y-9540000D01*
X48100000Y-9540000D02*
X34900000Y-9540000D01*
X34900000Y-9540000D02*
X34900000Y-20740000D01*
X34900000Y-20740000D02*
X48100000Y-20740000D01*
X48100000Y-20740000D02*
X48100000Y-9540000D01*
X62364000Y-6758000D02*
X62364000Y-4599000D01*
X56395000Y-4599000D02*
X56395000Y-6758000D01*
X58300000Y-4599000D02*
X60332000Y-4599000D01*
X52839000Y-4599000D02*
X56395000Y-4599000D01*
X58300000Y-6758000D02*
X58300000Y-4599000D01*
X60332000Y-4599000D02*
X60332000Y-6758000D01*
X54617000Y-9552000D02*
X54617000Y-4599000D01*
X52839000Y-9552000D02*
X52839000Y-4599000D01*
X64396000Y-4599000D02*
X64396000Y-9044000D01*
X56395000Y-6758000D02*
X58300000Y-6758000D01*
X60332000Y-6758000D02*
X62364000Y-6758000D01*
X62364000Y-4599000D02*
X64396000Y-4599000D01*
X64900000Y-9540000D02*
X51700000Y-9540000D01*
X51700000Y-9540000D02*
X51700000Y-20740000D01*
X51700000Y-20740000D02*
X64900000Y-20740000D01*
X64900000Y-20740000D02*
X64900000Y-9540000D01*
X64900000Y-9540000D02*
X51700000Y-9540000D01*
X51700000Y-9540000D02*
X51700000Y-4140000D01*
X51700000Y-4140000D02*
X64900000Y-4140000D01*
X64900000Y-4140000D02*
X64900000Y-9540000D01*
X69639000Y-35599000D02*
X73195000Y-35599000D01*
X81196000Y-35599000D02*
X81196000Y-40044000D01*
X71417000Y-40552000D02*
X71417000Y-35599000D01*
X75100000Y-37758000D02*
X75100000Y-35599000D01*
X75100000Y-35599000D02*
X77132000Y-35599000D01*
X79164000Y-35599000D02*
X81196000Y-35599000D01*
X73195000Y-35599000D02*
X73195000Y-37758000D01*
X79164000Y-37758000D02*
X79164000Y-35599000D01*
X77132000Y-35599000D02*
X77132000Y-37758000D01*
X73195000Y-37758000D02*
X75100000Y-37758000D01*
X69639000Y-40552000D02*
X69639000Y-35599000D01*
X77132000Y-37758000D02*
X79164000Y-37758000D01*
X81700000Y-40540000D02*
X68500000Y-40540000D01*
X68500000Y-40540000D02*
X68500000Y-51740000D01*
X68500000Y-51740000D02*
X81700000Y-51740000D01*
X81700000Y-51740000D02*
X81700000Y-40540000D01*
X81700000Y-40540000D02*
X68500000Y-40540000D01*
X68500000Y-40540000D02*
X68500000Y-35140000D01*
X68500000Y-35140000D02*
X81700000Y-35140000D01*
X81700000Y-35140000D02*
X81700000Y-40540000D01*
X89995000Y-37758000D02*
X91900000Y-37758000D01*
X86439000Y-40552000D02*
X86439000Y-35599000D01*
X89995000Y-35599000D02*
X89995000Y-37758000D01*
X93932000Y-35599000D02*
X93932000Y-37758000D01*
X88217000Y-40552000D02*
X88217000Y-35599000D01*
X97996000Y-35599000D02*
X97996000Y-40044000D01*
X86439000Y-35599000D02*
X89995000Y-35599000D01*
X95964000Y-37758000D02*
X95964000Y-35599000D01*
X93932000Y-37758000D02*
X95964000Y-37758000D01*
X91900000Y-37758000D02*
X91900000Y-35599000D01*
X91900000Y-35599000D02*
X93932000Y-35599000D01*
X95964000Y-35599000D02*
X97996000Y-35599000D01*
X98500000Y-40540000D02*
X85300000Y-40540000D01*
X85300000Y-40540000D02*
X85300000Y-51740000D01*
X85300000Y-51740000D02*
X98500000Y-51740000D01*
X98500000Y-51740000D02*
X98500000Y-40540000D01*
X98500000Y-40540000D02*
X85300000Y-40540000D01*
X85300000Y-40540000D02*
X85300000Y-35140000D01*
X85300000Y-35140000D02*
X98500000Y-35140000D01*
X98500000Y-35140000D02*
X98500000Y-40540000D01*
X30796000Y-66599000D02*
X30796000Y-71044000D01*
X28764000Y-66599000D02*
X30796000Y-66599000D01*
X22795000Y-66599000D02*
X22795000Y-68758000D01*
X26732000Y-66599000D02*
X26732000Y-68758000D01*
X19239000Y-66599000D02*
X22795000Y-66599000D01*
X28764000Y-68758000D02*
X28764000Y-66599000D01*
X19239000Y-71552000D02*
X19239000Y-66599000D01*
X24700000Y-66599000D02*
X26732000Y-66599000D01*
X24700000Y-68758000D02*
X24700000Y-66599000D01*
X21017000Y-71552000D02*
X21017000Y-66599000D01*
X26732000Y-68758000D02*
X28764000Y-68758000D01*
X22795000Y-68758000D02*
X24700000Y-68758000D01*
X31300000Y-71540000D02*
X18100000Y-71540000D01*
X18100000Y-71540000D02*
X18100000Y-66140000D01*
X18100000Y-66140000D02*
X31300000Y-66140000D01*
X31300000Y-66140000D02*
X31300000Y-71540000D01*
X31300000Y-71540000D02*
X18100000Y-71540000D01*
X18100000Y-71540000D02*
X18100000Y-82740000D01*
X18100000Y-82740000D02*
X31300000Y-82740000D01*
X31300000Y-82740000D02*
X31300000Y-71540000D01*
X9932000Y-37758000D02*
X11964000Y-37758000D01*
X4217000Y-40552000D02*
X4217000Y-35599000D01*
X7900000Y-35599000D02*
X9932000Y-35599000D01*
X2439000Y-40552000D02*
X2439000Y-35599000D01*
X2439000Y-35599000D02*
X5995000Y-35599000D01*
X13996000Y-35599000D02*
X13996000Y-40044000D01*
X11964000Y-37758000D02*
X11964000Y-35599000D01*
X11964000Y-35599000D02*
X13996000Y-35599000D01*
X9932000Y-35599000D02*
X9932000Y-37758000D01*
X7900000Y-37758000D02*
X7900000Y-35599000D01*
X5995000Y-37758000D02*
X7900000Y-37758000D01*
X5995000Y-35599000D02*
X5995000Y-37758000D01*
X14500000Y-40540000D02*
X1300000Y-40540000D01*
X1300000Y-40540000D02*
X1300000Y-51740000D01*
X1300000Y-51740000D02*
X14500000Y-51740000D01*
X14500000Y-51740000D02*
X14500000Y-40540000D01*
X14500000Y-40540000D02*
X1300000Y-40540000D01*
X1300000Y-40540000D02*
X1300000Y-35140000D01*
X1300000Y-35140000D02*
X14500000Y-35140000D01*
X14500000Y-35140000D02*
X14500000Y-40540000D01*
X52839000Y-66599000D02*
X56395000Y-66599000D01*
X58300000Y-68758000D02*
X58300000Y-66599000D01*
X56395000Y-66599000D02*
X56395000Y-68758000D01*
X54617000Y-71552000D02*
X54617000Y-66599000D01*
X52839000Y-71552000D02*
X52839000Y-66599000D01*
X64396000Y-66599000D02*
X64396000Y-71044000D01*
X56395000Y-68758000D02*
X58300000Y-68758000D01*
X60332000Y-66599000D02*
X60332000Y-68758000D01*
X60332000Y-68758000D02*
X62364000Y-68758000D01*
X62364000Y-66599000D02*
X64396000Y-66599000D01*
X62364000Y-68758000D02*
X62364000Y-66599000D01*
X58300000Y-66599000D02*
X60332000Y-66599000D01*
X64900000Y-71540000D02*
X51700000Y-71540000D01*
X51700000Y-71540000D02*
X51700000Y-66140000D01*
X51700000Y-66140000D02*
X64900000Y-66140000D01*
X64900000Y-66140000D02*
X64900000Y-71540000D01*
X64900000Y-71540000D02*
X51700000Y-71540000D01*
X51700000Y-71540000D02*
X51700000Y-82740000D01*
X51700000Y-82740000D02*
X64900000Y-82740000D01*
X64900000Y-82740000D02*
X64900000Y-71540000D01*
X21017000Y-40552000D02*
X21017000Y-35599000D01*
X28764000Y-35599000D02*
X30796000Y-35599000D01*
X24700000Y-37758000D02*
X24700000Y-35599000D01*
X30796000Y-35599000D02*
X30796000Y-40044000D01*
X19239000Y-35599000D02*
X22795000Y-35599000D01*
X22795000Y-35599000D02*
X22795000Y-37758000D01*
X19239000Y-40552000D02*
X19239000Y-35599000D01*
X24700000Y-35599000D02*
X26732000Y-35599000D01*
X26732000Y-37758000D02*
X28764000Y-37758000D01*
X28764000Y-37758000D02*
X28764000Y-35599000D01*
X26732000Y-35599000D02*
X26732000Y-37758000D01*
X22795000Y-37758000D02*
X24700000Y-37758000D01*
X31300000Y-40540000D02*
X18100000Y-40540000D01*
X18100000Y-40540000D02*
X18100000Y-35140000D01*
X18100000Y-35140000D02*
X31300000Y-35140000D01*
X31300000Y-35140000D02*
X31300000Y-40540000D01*
X31300000Y-40540000D02*
X18100000Y-40540000D01*
X18100000Y-40540000D02*
X18100000Y-51740000D01*
X18100000Y-51740000D02*
X31300000Y-51740000D01*
X31300000Y-51740000D02*
X31300000Y-40540000D01*
X86439000Y-9552000D02*
X86439000Y-4599000D01*
X91900000Y-6758000D02*
X91900000Y-4599000D01*
X91900000Y-4599000D02*
X93932000Y-4599000D01*
X97996000Y-4599000D02*
X97996000Y-9044000D01*
X89995000Y-6758000D02*
X91900000Y-6758000D01*
X95964000Y-6758000D02*
X95964000Y-4599000D01*
X93932000Y-4599000D02*
X93932000Y-6758000D01*
X88217000Y-9552000D02*
X88217000Y-4599000D01*
X89995000Y-4599000D02*
X89995000Y-6758000D01*
X95964000Y-4599000D02*
X97996000Y-4599000D01*
X86439000Y-4599000D02*
X89995000Y-4599000D01*
X93932000Y-6758000D02*
X95964000Y-6758000D01*
X98500000Y-9540000D02*
X85300000Y-9540000D01*
X85300000Y-9540000D02*
X85300000Y-20740000D01*
X85300000Y-20740000D02*
X98500000Y-20740000D01*
X98500000Y-20740000D02*
X98500000Y-9540000D01*
X98500000Y-9540000D02*
X85300000Y-9540000D01*
X85300000Y-9540000D02*
X85300000Y-4140000D01*
X85300000Y-4140000D02*
X98500000Y-4140000D01*
X98500000Y-4140000D02*
X98500000Y-9540000D01*
X7900000Y-66599000D02*
X9932000Y-66599000D01*
X11964000Y-66599000D02*
X13996000Y-66599000D01*
X4217000Y-71552000D02*
X4217000Y-66599000D01*
X7900000Y-68758000D02*
X7900000Y-66599000D01*
X2439000Y-66599000D02*
X5995000Y-66599000D01*
X9932000Y-68758000D02*
X11964000Y-68758000D01*
X13996000Y-66599000D02*
X13996000Y-71044000D01*
X5995000Y-68758000D02*
X7900000Y-68758000D01*
X9932000Y-66599000D02*
X9932000Y-68758000D01*
X2439000Y-71552000D02*
X2439000Y-66599000D01*
X11964000Y-68758000D02*
X11964000Y-66599000D01*
X5995000Y-66599000D02*
X5995000Y-68758000D01*
X14500000Y-71540000D02*
X1300000Y-71540000D01*
X1300000Y-71540000D02*
X1300000Y-66140000D01*
X1300000Y-66140000D02*
X14500000Y-66140000D01*
X14500000Y-66140000D02*
X14500000Y-71540000D01*
X14500000Y-71540000D02*
X1300000Y-71540000D01*
X1300000Y-71540000D02*
X1300000Y-82740000D01*
X1300000Y-82740000D02*
X14500000Y-82740000D01*
X14500000Y-82740000D02*
X14500000Y-71540000D01*
X24700000Y-6758000D02*
X24700000Y-4599000D01*
X19239000Y-9552000D02*
X19239000Y-4599000D01*
X28764000Y-6758000D02*
X28764000Y-4599000D01*
X24700000Y-4599000D02*
X26732000Y-4599000D01*
X28764000Y-4599000D02*
X30796000Y-4599000D01*
X22795000Y-4599000D02*
X22795000Y-6758000D01*
X26732000Y-6758000D02*
X28764000Y-6758000D01*
X19239000Y-4599000D02*
X22795000Y-4599000D01*
X21017000Y-9552000D02*
X21017000Y-4599000D01*
X30796000Y-4599000D02*
X30796000Y-9044000D01*
X26732000Y-4599000D02*
X26732000Y-6758000D01*
X22795000Y-6758000D02*
X24700000Y-6758000D01*
X31300000Y-9540000D02*
X18100000Y-9540000D01*
X18100000Y-9540000D02*
X18100000Y-20740000D01*
X18100000Y-20740000D02*
X31300000Y-20740000D01*
X31300000Y-20740000D02*
X31300000Y-9540000D01*
X31300000Y-9540000D02*
X18100000Y-9540000D01*
X18100000Y-9540000D02*
X18100000Y-4140000D01*
X18100000Y-4140000D02*
X31300000Y-4140000D01*
X31300000Y-4140000D02*
X31300000Y-9540000D01*
G04 #@! TD*
M02*
