G04 #@! TF.GenerationSoftware,KiCad,Pcbnew,6.0.11-2627ca5db0~126~ubuntu22.04.1*
G04 #@! TF.CreationDate,2023-04-03T23:49:23+02:00*
G04 #@! TF.ProjectId,panel,70616e65-6c2e-46b6-9963-61645f706362,rev?*
G04 #@! TF.SameCoordinates,Original*
G04 #@! TF.FileFunction,Other,Comment*
%FSLAX46Y46*%
G04 Gerber Fmt 4.6, Leading zero omitted, Abs format (unit mm)*
G04 Created by KiCad (PCBNEW 6.0.11-2627ca5db0~126~ubuntu22.04.1) date 2023-04-03 23:49:23*
%MOMM*%
%LPD*%
G01*
G04 APERTURE LIST*
%ADD10C,0.400000*%
G04 APERTURE END LIST*
D10*
X49400000Y3000000D02*
X49400000Y-103000000D01*
X83000000Y3000000D02*
X83000000Y-103000000D01*
X67200000Y3000000D02*
X67200000Y-103000000D01*
X16800000Y3000000D02*
X16800000Y-103000000D01*
X-3000000Y-4000000D02*
X102800000Y-4000000D01*
X66200000Y3000000D02*
X66200000Y-103000000D01*
X-3000000Y-65000000D02*
X102800000Y-65000000D01*
X15800000Y3000000D02*
X15800000Y-103000000D01*
X-3000000Y-34000000D02*
X102800000Y-34000000D01*
X33600000Y3000000D02*
X33600000Y-103000000D01*
X-3000000Y-96000000D02*
X102800000Y-96000000D01*
X84000000Y3000000D02*
X84000000Y-103000000D01*
X32600000Y3000000D02*
X32600000Y-103000000D01*
X-3000000Y-35000000D02*
X102800000Y-35000000D01*
X50400000Y3000000D02*
X50400000Y-103000000D01*
X-3000000Y-66000000D02*
X102800000Y-66000000D01*
X15704761Y6450477D02*
X17704761Y7117143D01*
X15704761Y7783810D01*
X16942857Y8450477D02*
X16942857Y9974286D01*
X17514285Y12069524D02*
X17609523Y11974286D01*
X17704761Y11688572D01*
X17704761Y11498096D01*
X17609523Y11212381D01*
X17419047Y11021905D01*
X17228571Y10926667D01*
X16847619Y10831429D01*
X16561904Y10831429D01*
X16180952Y10926667D01*
X15990476Y11021905D01*
X15800000Y11212381D01*
X15704761Y11498096D01*
X15704761Y11688572D01*
X15800000Y11974286D01*
X15895238Y12069524D01*
X15704761Y12926667D02*
X17323809Y12926667D01*
X17514285Y13021905D01*
X17609523Y13117143D01*
X17704761Y13307620D01*
X17704761Y13688572D01*
X17609523Y13879048D01*
X17514285Y13974286D01*
X17323809Y14069524D01*
X15704761Y14069524D01*
X15704761Y14736191D02*
X15704761Y15879048D01*
X17704761Y15307620D02*
X15704761Y15307620D01*
X31504761Y6450477D02*
X33504761Y7117143D01*
X31504761Y7783810D01*
X32742857Y8450477D02*
X32742857Y9974286D01*
X33314285Y12069524D02*
X33409523Y11974286D01*
X33504761Y11688572D01*
X33504761Y11498096D01*
X33409523Y11212381D01*
X33219047Y11021905D01*
X33028571Y10926667D01*
X32647619Y10831429D01*
X32361904Y10831429D01*
X31980952Y10926667D01*
X31790476Y11021905D01*
X31600000Y11212381D01*
X31504761Y11498096D01*
X31504761Y11688572D01*
X31600000Y11974286D01*
X31695238Y12069524D01*
X31504761Y12926667D02*
X33123809Y12926667D01*
X33314285Y13021905D01*
X33409523Y13117143D01*
X33504761Y13307620D01*
X33504761Y13688572D01*
X33409523Y13879048D01*
X33314285Y13974286D01*
X33123809Y14069524D01*
X31504761Y14069524D01*
X31504761Y14736191D02*
X31504761Y15879048D01*
X33504761Y15307620D02*
X31504761Y15307620D01*
X106250476Y-2904761D02*
X106917142Y-4904761D01*
X107583809Y-2904761D01*
X108250476Y-4142857D02*
X109774285Y-4142857D01*
X111869523Y-4714285D02*
X111774285Y-4809523D01*
X111488571Y-4904761D01*
X111298095Y-4904761D01*
X111012380Y-4809523D01*
X110821904Y-4619047D01*
X110726666Y-4428571D01*
X110631428Y-4047619D01*
X110631428Y-3761904D01*
X110726666Y-3380952D01*
X110821904Y-3190476D01*
X111012380Y-3000000D01*
X111298095Y-2904761D01*
X111488571Y-2904761D01*
X111774285Y-3000000D01*
X111869523Y-3095238D01*
X112726666Y-2904761D02*
X112726666Y-4523809D01*
X112821904Y-4714285D01*
X112917142Y-4809523D01*
X113107619Y-4904761D01*
X113488571Y-4904761D01*
X113679047Y-4809523D01*
X113774285Y-4714285D01*
X113869523Y-4523809D01*
X113869523Y-2904761D01*
X114536190Y-2904761D02*
X115679047Y-2904761D01*
X115107619Y-4904761D02*
X115107619Y-2904761D01*
X106250476Y-32904761D02*
X106917142Y-34904761D01*
X107583809Y-32904761D01*
X108250476Y-34142857D02*
X109774285Y-34142857D01*
X111869523Y-34714285D02*
X111774285Y-34809523D01*
X111488571Y-34904761D01*
X111298095Y-34904761D01*
X111012380Y-34809523D01*
X110821904Y-34619047D01*
X110726666Y-34428571D01*
X110631428Y-34047619D01*
X110631428Y-33761904D01*
X110726666Y-33380952D01*
X110821904Y-33190476D01*
X111012380Y-33000000D01*
X111298095Y-32904761D01*
X111488571Y-32904761D01*
X111774285Y-33000000D01*
X111869523Y-33095238D01*
X112726666Y-32904761D02*
X112726666Y-34523809D01*
X112821904Y-34714285D01*
X112917142Y-34809523D01*
X113107619Y-34904761D01*
X113488571Y-34904761D01*
X113679047Y-34809523D01*
X113774285Y-34714285D01*
X113869523Y-34523809D01*
X113869523Y-32904761D01*
X114536190Y-32904761D02*
X115679047Y-32904761D01*
X115107619Y-34904761D02*
X115107619Y-32904761D01*
X106250476Y-63904761D02*
X106917142Y-65904761D01*
X107583809Y-63904761D01*
X108250476Y-65142857D02*
X109774285Y-65142857D01*
X111869523Y-65714285D02*
X111774285Y-65809523D01*
X111488571Y-65904761D01*
X111298095Y-65904761D01*
X111012380Y-65809523D01*
X110821904Y-65619047D01*
X110726666Y-65428571D01*
X110631428Y-65047619D01*
X110631428Y-64761904D01*
X110726666Y-64380952D01*
X110821904Y-64190476D01*
X111012380Y-64000000D01*
X111298095Y-63904761D01*
X111488571Y-63904761D01*
X111774285Y-64000000D01*
X111869523Y-64095238D01*
X112726666Y-63904761D02*
X112726666Y-65523809D01*
X112821904Y-65714285D01*
X112917142Y-65809523D01*
X113107619Y-65904761D01*
X113488571Y-65904761D01*
X113679047Y-65809523D01*
X113774285Y-65714285D01*
X113869523Y-65523809D01*
X113869523Y-63904761D01*
X114536190Y-63904761D02*
X115679047Y-63904761D01*
X115107619Y-65904761D02*
X115107619Y-63904761D01*
X82904761Y6450477D02*
X84904761Y7117143D01*
X82904761Y7783810D01*
X84142857Y8450477D02*
X84142857Y9974286D01*
X84714285Y12069524D02*
X84809523Y11974286D01*
X84904761Y11688572D01*
X84904761Y11498096D01*
X84809523Y11212381D01*
X84619047Y11021905D01*
X84428571Y10926667D01*
X84047619Y10831429D01*
X83761904Y10831429D01*
X83380952Y10926667D01*
X83190476Y11021905D01*
X83000000Y11212381D01*
X82904761Y11498096D01*
X82904761Y11688572D01*
X83000000Y11974286D01*
X83095238Y12069524D01*
X82904761Y12926667D02*
X84523809Y12926667D01*
X84714285Y13021905D01*
X84809523Y13117143D01*
X84904761Y13307620D01*
X84904761Y13688572D01*
X84809523Y13879048D01*
X84714285Y13974286D01*
X84523809Y14069524D01*
X82904761Y14069524D01*
X82904761Y14736191D02*
X82904761Y15879048D01*
X84904761Y15307620D02*
X82904761Y15307620D01*
X32504761Y6450477D02*
X34504761Y7117143D01*
X32504761Y7783810D01*
X33742857Y8450477D02*
X33742857Y9974286D01*
X34314285Y12069524D02*
X34409523Y11974286D01*
X34504761Y11688572D01*
X34504761Y11498096D01*
X34409523Y11212381D01*
X34219047Y11021905D01*
X34028571Y10926667D01*
X33647619Y10831429D01*
X33361904Y10831429D01*
X32980952Y10926667D01*
X32790476Y11021905D01*
X32600000Y11212381D01*
X32504761Y11498096D01*
X32504761Y11688572D01*
X32600000Y11974286D01*
X32695238Y12069524D01*
X32504761Y12926667D02*
X34123809Y12926667D01*
X34314285Y13021905D01*
X34409523Y13117143D01*
X34504761Y13307620D01*
X34504761Y13688572D01*
X34409523Y13879048D01*
X34314285Y13974286D01*
X34123809Y14069524D01*
X32504761Y14069524D01*
X32504761Y14736191D02*
X32504761Y15879048D01*
X34504761Y15307620D02*
X32504761Y15307620D01*
X81904761Y6450477D02*
X83904761Y7117143D01*
X81904761Y7783810D01*
X83142857Y8450477D02*
X83142857Y9974286D01*
X83714285Y12069524D02*
X83809523Y11974286D01*
X83904761Y11688572D01*
X83904761Y11498096D01*
X83809523Y11212381D01*
X83619047Y11021905D01*
X83428571Y10926667D01*
X83047619Y10831429D01*
X82761904Y10831429D01*
X82380952Y10926667D01*
X82190476Y11021905D01*
X82000000Y11212381D01*
X81904761Y11498096D01*
X81904761Y11688572D01*
X82000000Y11974286D01*
X82095238Y12069524D01*
X81904761Y12926667D02*
X83523809Y12926667D01*
X83714285Y13021905D01*
X83809523Y13117143D01*
X83904761Y13307620D01*
X83904761Y13688572D01*
X83809523Y13879048D01*
X83714285Y13974286D01*
X83523809Y14069524D01*
X81904761Y14069524D01*
X81904761Y14736191D02*
X81904761Y15879048D01*
X83904761Y15307620D02*
X81904761Y15307620D01*
X65104761Y6450477D02*
X67104761Y7117143D01*
X65104761Y7783810D01*
X66342857Y8450477D02*
X66342857Y9974286D01*
X66914285Y12069524D02*
X67009523Y11974286D01*
X67104761Y11688572D01*
X67104761Y11498096D01*
X67009523Y11212381D01*
X66819047Y11021905D01*
X66628571Y10926667D01*
X66247619Y10831429D01*
X65961904Y10831429D01*
X65580952Y10926667D01*
X65390476Y11021905D01*
X65200000Y11212381D01*
X65104761Y11498096D01*
X65104761Y11688572D01*
X65200000Y11974286D01*
X65295238Y12069524D01*
X65104761Y12926667D02*
X66723809Y12926667D01*
X66914285Y13021905D01*
X67009523Y13117143D01*
X67104761Y13307620D01*
X67104761Y13688572D01*
X67009523Y13879048D01*
X66914285Y13974286D01*
X66723809Y14069524D01*
X65104761Y14069524D01*
X65104761Y14736191D02*
X65104761Y15879048D01*
X67104761Y15307620D02*
X65104761Y15307620D01*
X106250476Y-94904761D02*
X106917142Y-96904761D01*
X107583809Y-94904761D01*
X108250476Y-96142857D02*
X109774285Y-96142857D01*
X111869523Y-96714285D02*
X111774285Y-96809523D01*
X111488571Y-96904761D01*
X111298095Y-96904761D01*
X111012380Y-96809523D01*
X110821904Y-96619047D01*
X110726666Y-96428571D01*
X110631428Y-96047619D01*
X110631428Y-95761904D01*
X110726666Y-95380952D01*
X110821904Y-95190476D01*
X111012380Y-95000000D01*
X111298095Y-94904761D01*
X111488571Y-94904761D01*
X111774285Y-95000000D01*
X111869523Y-95095238D01*
X112726666Y-94904761D02*
X112726666Y-96523809D01*
X112821904Y-96714285D01*
X112917142Y-96809523D01*
X113107619Y-96904761D01*
X113488571Y-96904761D01*
X113679047Y-96809523D01*
X113774285Y-96714285D01*
X113869523Y-96523809D01*
X113869523Y-94904761D01*
X114536190Y-94904761D02*
X115679047Y-94904761D01*
X115107619Y-96904761D02*
X115107619Y-94904761D01*
X49304761Y6450477D02*
X51304761Y7117143D01*
X49304761Y7783810D01*
X50542857Y8450477D02*
X50542857Y9974286D01*
X51114285Y12069524D02*
X51209523Y11974286D01*
X51304761Y11688572D01*
X51304761Y11498096D01*
X51209523Y11212381D01*
X51019047Y11021905D01*
X50828571Y10926667D01*
X50447619Y10831429D01*
X50161904Y10831429D01*
X49780952Y10926667D01*
X49590476Y11021905D01*
X49400000Y11212381D01*
X49304761Y11498096D01*
X49304761Y11688572D01*
X49400000Y11974286D01*
X49495238Y12069524D01*
X49304761Y12926667D02*
X50923809Y12926667D01*
X51114285Y13021905D01*
X51209523Y13117143D01*
X51304761Y13307620D01*
X51304761Y13688572D01*
X51209523Y13879048D01*
X51114285Y13974286D01*
X50923809Y14069524D01*
X49304761Y14069524D01*
X49304761Y14736191D02*
X49304761Y15879048D01*
X51304761Y15307620D02*
X49304761Y15307620D01*
X106250476Y-64904761D02*
X106917142Y-66904761D01*
X107583809Y-64904761D01*
X108250476Y-66142857D02*
X109774285Y-66142857D01*
X111869523Y-66714285D02*
X111774285Y-66809523D01*
X111488571Y-66904761D01*
X111298095Y-66904761D01*
X111012380Y-66809523D01*
X110821904Y-66619047D01*
X110726666Y-66428571D01*
X110631428Y-66047619D01*
X110631428Y-65761904D01*
X110726666Y-65380952D01*
X110821904Y-65190476D01*
X111012380Y-65000000D01*
X111298095Y-64904761D01*
X111488571Y-64904761D01*
X111774285Y-65000000D01*
X111869523Y-65095238D01*
X112726666Y-64904761D02*
X112726666Y-66523809D01*
X112821904Y-66714285D01*
X112917142Y-66809523D01*
X113107619Y-66904761D01*
X113488571Y-66904761D01*
X113679047Y-66809523D01*
X113774285Y-66714285D01*
X113869523Y-66523809D01*
X113869523Y-64904761D01*
X114536190Y-64904761D02*
X115679047Y-64904761D01*
X115107619Y-66904761D02*
X115107619Y-64904761D01*
X14704761Y6450477D02*
X16704761Y7117143D01*
X14704761Y7783810D01*
X15942857Y8450477D02*
X15942857Y9974286D01*
X16514285Y12069524D02*
X16609523Y11974286D01*
X16704761Y11688572D01*
X16704761Y11498096D01*
X16609523Y11212381D01*
X16419047Y11021905D01*
X16228571Y10926667D01*
X15847619Y10831429D01*
X15561904Y10831429D01*
X15180952Y10926667D01*
X14990476Y11021905D01*
X14800000Y11212381D01*
X14704761Y11498096D01*
X14704761Y11688572D01*
X14800000Y11974286D01*
X14895238Y12069524D01*
X14704761Y12926667D02*
X16323809Y12926667D01*
X16514285Y13021905D01*
X16609523Y13117143D01*
X16704761Y13307620D01*
X16704761Y13688572D01*
X16609523Y13879048D01*
X16514285Y13974286D01*
X16323809Y14069524D01*
X14704761Y14069524D01*
X14704761Y14736191D02*
X14704761Y15879048D01*
X16704761Y15307620D02*
X14704761Y15307620D01*
X66104761Y6450477D02*
X68104761Y7117143D01*
X66104761Y7783810D01*
X67342857Y8450477D02*
X67342857Y9974286D01*
X67914285Y12069524D02*
X68009523Y11974286D01*
X68104761Y11688572D01*
X68104761Y11498096D01*
X68009523Y11212381D01*
X67819047Y11021905D01*
X67628571Y10926667D01*
X67247619Y10831429D01*
X66961904Y10831429D01*
X66580952Y10926667D01*
X66390476Y11021905D01*
X66200000Y11212381D01*
X66104761Y11498096D01*
X66104761Y11688572D01*
X66200000Y11974286D01*
X66295238Y12069524D01*
X66104761Y12926667D02*
X67723809Y12926667D01*
X67914285Y13021905D01*
X68009523Y13117143D01*
X68104761Y13307620D01*
X68104761Y13688572D01*
X68009523Y13879048D01*
X67914285Y13974286D01*
X67723809Y14069524D01*
X66104761Y14069524D01*
X66104761Y14736191D02*
X66104761Y15879048D01*
X68104761Y15307620D02*
X66104761Y15307620D01*
X106250476Y-33904761D02*
X106917142Y-35904761D01*
X107583809Y-33904761D01*
X108250476Y-35142857D02*
X109774285Y-35142857D01*
X111869523Y-35714285D02*
X111774285Y-35809523D01*
X111488571Y-35904761D01*
X111298095Y-35904761D01*
X111012380Y-35809523D01*
X110821904Y-35619047D01*
X110726666Y-35428571D01*
X110631428Y-35047619D01*
X110631428Y-34761904D01*
X110726666Y-34380952D01*
X110821904Y-34190476D01*
X111012380Y-34000000D01*
X111298095Y-33904761D01*
X111488571Y-33904761D01*
X111774285Y-34000000D01*
X111869523Y-34095238D01*
X112726666Y-33904761D02*
X112726666Y-35523809D01*
X112821904Y-35714285D01*
X112917142Y-35809523D01*
X113107619Y-35904761D01*
X113488571Y-35904761D01*
X113679047Y-35809523D01*
X113774285Y-35714285D01*
X113869523Y-35523809D01*
X113869523Y-33904761D01*
X114536190Y-33904761D02*
X115679047Y-33904761D01*
X115107619Y-35904761D02*
X115107619Y-33904761D01*
X48304761Y6450477D02*
X50304761Y7117143D01*
X48304761Y7783810D01*
X49542857Y8450477D02*
X49542857Y9974286D01*
X50114285Y12069524D02*
X50209523Y11974286D01*
X50304761Y11688572D01*
X50304761Y11498096D01*
X50209523Y11212381D01*
X50019047Y11021905D01*
X49828571Y10926667D01*
X49447619Y10831429D01*
X49161904Y10831429D01*
X48780952Y10926667D01*
X48590476Y11021905D01*
X48400000Y11212381D01*
X48304761Y11498096D01*
X48304761Y11688572D01*
X48400000Y11974286D01*
X48495238Y12069524D01*
X48304761Y12926667D02*
X49923809Y12926667D01*
X50114285Y13021905D01*
X50209523Y13117143D01*
X50304761Y13307620D01*
X50304761Y13688572D01*
X50209523Y13879048D01*
X50114285Y13974286D01*
X49923809Y14069524D01*
X48304761Y14069524D01*
X48304761Y14736191D02*
X48304761Y15879048D01*
X50304761Y15307620D02*
X48304761Y15307620D01*
M02*
